<svg width="220" height="38" viewBox="0 0 220 38" fill="none" xmlns="http://www.w3.org/2000/svg">
<g clip-path="url(#clip0_8122_903)">
<path d="M7.84151 14.1065C7.32169 14.5706 6.82923 15.1167 6.36413 15.6628C6.85659 15.772 7.32169 15.8266 7.84151 15.8266C8.36133 15.8266 8.8538 15.772 9.3189 15.6628C8.88115 15.0894 8.38869 14.5706 7.84151 14.1065ZM1.52159 10.9665C2.04141 12.9051 3.43672 14.516 5.26977 15.3078C5.81695 14.6525 6.41885 14.0246 7.07546 13.4785C5.48864 12.2225 3.57351 11.3488 1.52159 10.9665ZM10.4133 15.3078C12.2463 14.5433 13.6416 12.9324 14.1614 10.9665C12.1369 11.3488 10.2217 12.2225 8.58021 13.4785C9.26418 14.0246 9.86608 14.6252 10.4133 15.3078ZM7.84151 2.80273C4.23013 2.80273 1.33008 5.72423 1.33008 9.32832C1.33008 9.71057 1.35744 10.1201 1.43951 10.4751C3.76503 10.7208 5.9811 11.5672 7.84151 12.9051C9.72928 11.5672 11.918 10.7208 14.2709 10.4751C14.353 10.0928 14.3803 9.71057 14.3803 9.32832C14.3803 5.72423 11.4529 2.80273 7.84151 2.80273ZM11.6718 8.37269C11.6718 8.50921 11.6444 8.64573 11.6444 8.78224C11.5076 7.66279 10.9057 6.67986 10.0029 6.05187C10.7963 7.49897 10.5774 9.32832 9.34626 10.557C9.23682 10.6662 9.12738 10.7481 9.01795 10.83C10.2217 9.32832 10.1397 7.14402 8.74436 5.75153C8.60756 5.61501 8.49813 5.5058 8.36133 5.39659C8.33397 5.39659 8.27926 5.39659 8.27926 5.39659V11.4034C8.27926 11.6491 8.08774 11.8403 7.84151 11.8403C7.59528 11.8403 7.43113 11.6491 7.43113 11.4034V5.39659C7.40377 5.39659 7.34905 5.39659 7.32169 5.39659C7.1849 5.5058 7.0481 5.61501 6.93867 5.75153C5.54336 7.14402 5.43392 9.32832 6.66508 10.83C6.55564 10.7481 6.4462 10.6389 6.36413 10.557C5.13297 9.32832 4.9141 7.49897 5.70751 6.05187C4.80467 6.65256 4.20277 7.63549 4.06598 8.78224C4.03862 8.64573 4.03861 8.50921 4.03861 8.37269C4.03861 6.65256 5.18769 5.17816 6.77451 4.71399C5.70751 4.52287 4.55844 4.7686 3.68295 5.47849C3.76503 5.36928 3.87446 5.26006 3.95654 5.17815C5.02354 4.11331 6.52828 3.81297 7.86887 4.24983C9.20946 3.81297 10.7142 4.11331 11.7812 5.17815C11.8633 5.28737 11.9727 5.39658 12.0548 5.47849C11.1519 4.7686 10.0302 4.49556 8.96323 4.71399C10.5227 5.17816 11.6718 6.62525 11.6718 8.37269Z" fill="#E7E8EC"/>
<path d="M29.2634 13.2326C29.0993 13.6149 28.8804 13.9698 28.6068 14.2975C28.1143 14.8163 27.3756 15.335 26.1171 15.335C24.1747 15.335 22.6973 13.178 22.6973 10.7753C22.6973 8.53639 24.202 6.29749 26.5822 6.29749C28.0596 6.29749 28.9898 7.30773 29.2908 7.30773C29.6464 7.30773 29.7012 6.73436 29.838 6.51593H30.3578C30.2757 6.95279 30.2757 7.47156 30.2757 7.88111V13.1234C30.2757 13.6968 30.3578 14.7616 31.5616 14.8436H33.5861V15.335H32.1361C30.6861 15.335 29.537 15.1439 29.2634 13.2326ZM26.5549 6.78896C24.8039 6.78896 23.9831 8.75483 23.9831 10.8845C23.9831 13.9152 25.4332 14.8163 26.3634 14.8163C27.4851 14.8163 28.4427 14.0517 28.7983 12.9323C28.9898 12.277 29.0446 11.5671 29.0446 10.475C29.0446 8.75483 28.771 6.78896 26.5549 6.78896ZM25.5973 4.19511C25.1869 4.19511 24.8586 3.89477 24.8586 3.48521C24.8586 3.04835 25.1596 2.7207 25.5973 2.7207C26.0351 2.7207 26.336 3.04835 26.336 3.48521C26.336 3.92207 26.0351 4.19511 25.5973 4.19511ZM28.1964 4.19511C27.7587 4.19511 27.4577 3.89477 27.4577 3.48521C27.4577 3.04835 27.7587 2.7207 28.1964 2.7207C28.6068 2.7207 28.9351 3.04835 28.9351 3.48521C28.9351 3.92207 28.6342 4.19511 28.1964 4.19511Z" fill="#E7E8EC"/>
<path d="M33.3129 18.8307C32.9025 18.8307 32.5742 18.5304 32.5742 18.0935C32.5742 17.6839 32.9025 17.3563 33.3129 17.3563C33.7507 17.3563 34.0516 17.6839 34.0516 18.0935C34.0516 18.5304 33.7507 18.8307 33.3129 18.8307ZM39.9338 15.3358C38.5385 15.3358 37.663 14.7624 37.0064 13.4246C36.7601 14.6532 35.7752 15.3358 34.3799 15.3358H33.1761V14.8444H34.0242C35.2828 14.817 35.8026 14.0798 35.8026 12.8239V7.77269C35.8026 7.28122 35.7752 7.19931 35.1186 7.00819L37.0611 6.59863V11.5952C37.0611 12.9058 37.9366 14.8444 39.496 14.8444H40.0979V15.3358H39.9338ZM35.9394 18.8307C35.5016 18.8307 35.2007 18.5304 35.2007 18.0935C35.2007 17.6839 35.529 17.3563 35.9394 17.3563C36.3498 17.3563 36.6781 17.6839 36.6781 18.0935C36.6781 18.5304 36.3498 18.8307 35.9394 18.8307Z" fill="#E7E8EC"/>
<path d="M39.7422 14.8436H39.9337C41.2469 14.8436 41.7941 14.079 41.7941 12.8231V4.00398C41.7941 3.51251 41.7668 3.32138 41.1101 3.13026L43.0526 2.7207V12.8231C43.0526 14.4613 41.9856 15.3623 40.3714 15.3623H39.7695V14.8436H39.7422Z" fill="#E7E8EC"/>
<path d="M46.4998 12.9322V4.08584C46.4998 3.53977 46.1989 3.32134 45.0498 3.32134V2.80257L47.7583 2.69336V13.0142C47.7583 14.1336 48.3329 14.7343 49.3178 14.8162H50.1386V15.3077H49.2357C47.6489 15.335 46.4998 14.7616 46.4998 12.9322Z" fill="#E7E8EC"/>
<path d="M62.2863 15.335C60.891 15.335 60.1523 14.7616 59.4409 13.6422C58.9758 15.0347 57.7173 16.2087 55.6928 16.2087C53.9418 16.2087 53.0663 15.1712 52.4918 14.3521L52.4097 14.2702C51.9172 14.9255 51.4248 15.335 50.3304 15.335H49.7559V14.8436H50.3578C50.4946 14.8163 51.0144 14.7343 51.288 14.4613C53.2578 12.6319 51.8351 7.99032 56.2126 7.99032C58.4834 7.99032 59.7145 10.3657 59.7145 12.1951C59.7145 12.4408 59.6872 12.6866 59.6598 12.905C59.9881 13.9152 60.7815 14.8436 61.8759 14.8436H62.3136C63.6269 14.8436 64.174 14.079 64.174 12.8231V4.00398C64.174 3.51251 64.1467 3.32138 63.4627 3.13026L65.4052 2.7207V12.8231C65.4052 14.4613 64.3382 15.3623 62.724 15.3623H62.2863V15.335ZM55.8843 8.42718C53.5861 8.42718 53.8324 11.7582 52.738 13.806C52.8201 13.8606 52.8748 13.9152 52.9021 13.9698C53.4493 14.5978 54.3248 15.69 55.8022 15.69C57.1975 15.69 58.4013 14.161 58.4013 12.277C58.4013 10.3111 57.5805 8.48179 55.939 8.42718H55.8843Z" fill="#E7E8EC"/>
<path d="M68.2768 3.97663C68.2768 3.48516 68.2494 3.29404 67.5654 3.10291L69.5079 2.69336V15.335H68.2768V3.97663Z" fill="#E7E8EC"/>
<path d="M86.3616 12.2774C86.3616 15.4719 84.4738 18.8302 80.753 18.8302C77.0048 18.8302 75.117 15.4992 75.117 12.2774V9.46508C75.117 8.9463 74.8161 8.72787 73.667 8.72787V8.2091L76.3755 8.09989V12.2774C76.3755 17.0009 78.5642 18.2842 80.753 18.2842C82.6407 18.2842 84.5559 17.3012 84.9936 13.9156C84.4738 14.7893 83.7077 15.3354 82.2851 15.3354C81.0266 15.3354 79.4671 14.1613 79.4671 12.3047C79.4671 8.83709 81.82 6.62549 85.103 6.62549H86.3616V12.2774ZM85.1304 7.14426C84.9662 7.08965 84.8021 7.08965 84.6653 7.08965C82.7502 7.08965 80.7256 9.11013 80.7256 12.1681C80.7256 13.3695 81.4096 14.8439 82.7228 14.8985C84.0908 14.8985 85.1304 13.3968 85.1304 11.7859V7.14426ZM83.0511 4.41389C82.6407 4.41389 82.3398 4.11355 82.3398 3.70399C82.3398 3.26713 82.6407 2.9668 83.0511 2.9668C83.4889 2.9668 83.8172 3.29444 83.8172 3.70399C83.8172 4.11355 83.4889 4.41389 83.0511 4.41389ZM85.6776 4.41389C85.2398 4.41389 84.9389 4.11355 84.9389 3.70399C84.9389 3.26713 85.2398 2.9668 85.6776 2.9668C86.088 2.9668 86.3889 3.29444 86.3889 3.70399C86.3889 4.11355 86.088 4.41389 85.6776 4.41389Z" fill="#E7E8EC"/>
<path d="M98.3169 15.3349H95.4989C94.8423 18.3383 92.6536 19.0482 91.0394 19.0482C90.7658 19.0482 90.4922 19.0209 89.7535 18.9663C91.5318 18.584 93.5564 18.0379 94.213 15.3349H91.5866C90.3554 15.3349 88.7412 14.1608 88.7412 12.3042C88.7412 8.8366 91.0941 6.625 94.3772 6.625H95.663V13.6694C95.663 14.1062 95.6083 14.4885 95.5536 14.8434H98.2895V15.3349H98.3169ZM94.4319 13.724V7.14377C94.2677 7.08916 94.1036 7.08916 93.9668 7.08916C92.079 7.08916 90.0271 9.10963 90.0271 12.1676C90.0271 13.3963 90.7111 14.7615 92.0516 14.8161H94.3224C94.3772 14.4885 94.4045 14.1335 94.4319 13.724Z" fill="#E7E8EC"/>
<path d="M97.9346 14.8433H98.1261C99.4393 14.8433 99.9591 14.0788 99.9591 12.8229V9.24608C99.9591 8.75461 99.9318 8.6727 99.2752 8.48157L101.218 8.09932V11.6215C101.218 12.9048 102.093 14.8706 103.625 14.8706C104.966 14.8706 105.486 14.1061 105.486 12.8502V8.50888C105.486 7.99011 105.486 7.9355 104.774 7.71707L106.717 7.33482V11.5669C106.717 12.8775 107.62 14.816 109.152 14.816C110.492 14.816 111.04 14.0515 111.04 12.7956V7.74438C111.04 7.25291 111.012 7.17099 110.328 6.97987L112.271 6.57031V11.5669C112.271 12.8775 113.174 14.816 114.706 14.816H115.308V15.3075H115.116C113.721 15.3075 112.873 14.7068 112.189 13.3962C111.97 14.6249 110.957 15.3075 109.589 15.3075C108.194 15.3075 107.373 14.7614 106.662 13.3962C106.416 14.6249 105.431 15.3075 104.09 15.3075C102.695 15.3075 101.929 14.7341 101.245 13.5874L101.19 13.5055C100.917 14.6795 99.9318 15.3348 98.5638 15.3348H97.9346V14.8433Z" fill="#E7E8EC"/>
<path d="M114.98 14.8436H115.144C116.457 14.8436 117.004 14.079 117.004 12.8231V4.00398C117.004 3.51251 116.977 3.32138 116.32 3.13026L118.263 2.7207V12.8231C118.263 14.4613 117.168 15.3623 115.554 15.3623H114.952V14.8436H114.98Z" fill="#E7E8EC"/>
<path d="M121.189 3.97663C121.189 3.48516 121.162 3.29404 120.478 3.10291L122.42 2.69336V15.335H121.189V3.97663Z" fill="#E7E8EC"/>
<path d="M134.595 13.2326C134.431 13.6149 134.212 13.9698 133.939 14.2975C133.446 14.8163 132.708 15.335 131.477 15.335C129.507 15.335 128.057 13.178 128.057 10.7753C128.057 8.53639 129.561 6.29749 131.942 6.29749C133.419 6.29749 134.377 7.30773 134.65 7.30773C135.006 7.30773 135.061 6.73436 135.197 6.51593H135.717C135.635 6.95279 135.635 7.47156 135.635 7.88111V13.1234C135.635 13.6968 135.717 14.7616 136.921 14.8436H138.918V15.335H137.468C136.045 15.335 134.896 15.1439 134.595 13.2326ZM131.914 6.78896C130.191 6.78896 129.343 8.75483 129.343 10.8845C129.343 13.9152 130.793 14.8163 131.723 14.8163C132.844 14.8163 133.802 14.0517 134.158 12.9323C134.349 12.277 134.404 11.5671 134.404 10.475C134.404 8.75483 134.13 6.78896 131.914 6.78896ZM130.957 4.19511C130.546 4.19511 130.218 3.89477 130.218 3.48521C130.218 3.04835 130.546 2.7207 130.957 2.7207C131.367 2.7207 131.695 3.04835 131.695 3.48521C131.695 3.92207 131.367 4.19511 130.957 4.19511ZM133.583 4.19511C133.145 4.19511 132.817 3.89477 132.817 3.48521C132.817 3.04835 133.145 2.7207 133.583 2.7207C133.994 2.7207 134.294 3.04835 134.294 3.48521C134.294 3.92207 133.966 4.19511 133.583 4.19511Z" fill="#E7E8EC"/>
<path d="M145.265 15.3352C143.87 15.3352 142.995 14.7618 142.365 13.424C142.147 14.6526 141.134 15.3352 139.739 15.3352H138.508V14.8438H139.383C140.642 14.8165 141.162 14.0792 141.162 12.8233V7.77209C141.162 7.28062 141.134 7.19872 140.478 7.00759L142.42 6.59803V11.5946C142.42 12.9052 143.296 14.8438 144.855 14.8438H145.457V15.3352H145.265ZM142.748 4.22261V3.78576H142.064C141.107 3.78576 140.614 2.77552 140.614 2.14753C140.614 1.71068 140.861 1.24651 141.381 1.24651C141.627 1.24651 141.846 1.27381 141.928 1.49224C141.818 1.57415 141.681 1.76528 141.681 1.9291C141.681 2.14753 141.873 2.33866 142.092 2.33866C142.311 2.33866 142.475 2.22944 142.475 1.84719C142.475 1.27381 142.01 0.864258 141.408 0.864258C140.532 0.864258 139.985 1.57416 139.985 2.39327C139.985 3.02125 140.45 3.54002 140.861 3.78576H139.821L139.657 4.22261H142.748Z" fill="#E7E8EC"/>
<path d="M145.265 18.8307C144.855 18.8307 144.526 18.5304 144.526 18.0935C144.526 17.6839 144.855 17.3563 145.265 17.3563C145.703 17.3563 146.004 17.6839 146.004 18.0935C145.976 18.5304 145.675 18.8307 145.265 18.8307ZM151.859 15.3358C150.463 15.3358 149.588 14.7624 148.931 13.4246C148.712 14.6532 147.7 15.3358 146.305 15.3358H145.074V14.8444H145.949C147.208 14.817 147.727 14.0798 147.727 12.8239V7.77269C147.727 7.28122 147.7 7.19931 147.043 7.00819L148.986 6.59863V11.5952C148.986 12.9058 149.861 14.8444 151.421 14.8444H152.023V15.3358H151.859ZM147.864 18.8307C147.426 18.8307 147.098 18.5304 147.098 18.0935C147.098 17.6839 147.399 17.3563 147.864 17.3563C148.275 17.3563 148.603 17.6839 148.603 18.0935C148.603 18.5304 148.275 18.8307 147.864 18.8307Z" fill="#E7E8EC"/>
<path d="M162.638 15.3349H151.667V14.8435H153.309C153.336 14.6797 153.363 14.5431 153.391 14.4066C153.418 14.1336 153.473 13.8878 153.527 13.6421C153.883 11.9493 154.977 10.4203 156.838 10.4203C158.452 10.4203 159.355 11.5397 159.355 12.7138C159.355 13.5602 158.835 14.4339 157.659 14.8435H161.161C161.161 10.1745 159.218 7.82642 157.467 7.82642C155.169 7.82642 154.485 9.1643 154.157 11.0756H153.938C153.965 8.31789 155.661 7.33496 157.467 7.33496H157.494C160.477 7.33496 162.693 11.1848 162.693 14.8708V15.3349H162.638ZM153.746 14.8435H154.813C156.263 14.8435 158.178 14.2155 158.178 12.3861C158.178 11.4578 157.385 10.9663 156.592 10.9663C155.443 10.9663 154.266 12.0585 153.965 13.5329L153.746 14.8435Z" fill="#E7E8EC"/>
<path d="M9.83885 28.5779H9.37375C9.04544 26.8577 8.11524 24.8646 6.03596 24.8646C4.42178 24.8646 2.58873 26.0386 2.58873 30.2434C2.58873 34.4481 4.17555 35.6222 6.11804 35.6222C8.25204 35.6222 9.45583 33.9294 9.53791 31.5267H10.0851C10.0851 34.3116 8.6077 36.0864 6.11804 36.0864C2.78024 36.0864 1.08398 33.083 1.08398 30.2434C1.08398 26.9123 3.38214 24.4004 6.11804 24.4004C7.70486 24.4004 8.49827 25.4652 8.85393 25.4652C9.15488 25.4652 9.29168 24.9738 9.37375 24.7826H9.83885V28.5779Z" fill="#E7E8EC"/>
<path d="M16.2679 30.3792V34.7478C16.2679 35.2393 16.4594 35.3485 16.7056 35.3485C17.0339 35.3485 17.2255 35.0482 17.2255 34.0652H17.6906C17.6906 35.1574 17.3896 35.8946 16.35 35.8946C15.5839 35.8946 15.2282 35.4031 15.2009 34.4748H15.1735C14.7084 35.3758 13.8603 36.0857 12.6565 36.0857C11.5895 36.0857 10.4404 35.4304 10.4404 34.1745C10.4404 32.0994 13.6688 31.526 15.1735 31.1164V29.9424C15.1735 29.0141 14.6811 28.4134 13.5046 28.4134C12.8207 28.4134 12.1093 28.6591 11.6716 29.0141L11.6989 29.0414C12.0272 29.0414 12.3829 29.2871 12.3829 29.7513C12.3829 30.1335 12.1093 30.5431 11.6169 30.5431C11.1518 30.5431 10.8782 30.1881 10.8782 29.6147C10.8782 28.7137 11.9999 27.9492 13.4773 27.9492C15.2556 28.0038 16.2679 28.5772 16.2679 30.3792ZM15.1462 31.5806C13.6414 31.9083 11.6716 32.3724 11.6716 34.311C11.6716 35.0755 12.3556 35.5669 13.0122 35.5669C14.1886 35.5669 15.1462 34.2837 15.1462 32.782V31.5806Z" fill="#E7E8EC"/>
<path d="M18.7039 29.3145C18.7039 28.823 18.4303 28.6592 17.3907 28.6592V28.195L19.7983 28.0858V29.5329H19.8256C20.3728 28.7684 20.7559 27.9766 22.2332 27.9766C24.2031 27.9766 25.5437 29.9697 25.5437 32.0448C25.5437 34.0926 24.2031 36.1131 21.9596 36.1131C21.0568 36.1131 20.3181 35.7581 19.8256 35.0755H19.7983V37.5875C19.7983 38.0789 20.0719 38.2428 21.1389 38.2428V38.7069H17.2539V38.2428C18.403 38.2428 18.6766 38.0789 18.6766 37.5875V29.3145H18.7039ZM19.8256 32.0448C19.8256 34.8571 20.4002 35.6489 22.0964 35.6489C23.3002 35.6489 24.3672 34.6387 24.3672 32.0448C24.3672 29.4783 23.3002 28.4407 22.0964 28.4407C20.8653 28.4407 19.8256 29.4783 19.8256 32.0448Z" fill="#E7E8EC"/>
<path d="M29.9201 35.8952H26.0352V35.4311C27.1842 35.4311 27.4578 35.2673 27.4578 34.7758V29.2877C27.4578 28.7963 27.1842 28.6325 26.1446 28.6325V28.1683L28.5795 28.0591V34.7485C28.5795 35.24 28.8531 35.4038 29.9201 35.4038V35.8952ZM28.6616 25.5198C28.6616 25.9567 28.3333 26.2843 27.8682 26.2843C27.4305 26.2843 27.0748 25.9567 27.0748 25.5198C27.0748 25.083 27.4305 24.728 27.8682 24.728C28.306 24.7007 28.6616 25.0557 28.6616 25.5198Z" fill="#E7E8EC"/>
<path d="M34.7351 28.0042V28.4683H32.2728V34.284C32.2728 35.2943 32.7652 35.6492 33.3398 35.6492C33.8322 35.6492 34.5436 35.2943 34.5436 33.9837V33.2738H35.0087V33.8745C35.0087 35.1851 34.4068 36.1134 33.0662 36.1134C31.8624 36.1134 31.1784 35.4581 31.1784 34.2021V28.441H29.9473V27.9769C31.3152 27.9769 31.7256 26.639 31.835 25.5195H32.3001V27.9769H34.7351V28.0042Z" fill="#E7E8EC"/>
<path d="M41.4115 30.3792V34.7478C41.4115 35.2393 41.603 35.3485 41.8492 35.3485C42.1502 35.3485 42.3417 35.0482 42.3417 34.0652H42.8068C42.8068 35.1574 42.5058 35.8946 41.4662 35.8946C40.7001 35.8946 40.3445 35.4031 40.3171 34.4748H40.2897C39.8246 35.3758 38.9765 36.0857 37.7727 36.0857C36.7057 36.0857 35.5566 35.4304 35.5566 34.1745C35.5566 32.0994 38.785 31.526 40.2897 31.1164V29.9424C40.2897 29.0141 39.7973 28.4134 38.6208 28.4134C37.9369 28.4134 37.2255 28.6591 36.7878 29.0141L36.8152 29.0414C37.1435 29.0414 37.4991 29.2871 37.4991 29.7513C37.4991 30.1335 37.2255 30.5431 36.7331 30.5431C36.268 30.5431 35.9944 30.1881 35.9944 29.6147C35.9944 28.7137 37.1161 27.9492 38.5935 27.9492C40.3718 28.0038 41.4115 28.5772 41.4115 30.3792ZM40.2897 31.5806C38.785 31.9083 36.8152 32.3724 36.8152 34.311C36.8152 35.0755 37.4991 35.5669 38.1557 35.5669C39.3322 35.5669 40.2897 34.2837 40.2897 32.782V31.5806Z" fill="#E7E8EC"/>
<path d="M45.4057 34.7751C45.4057 35.2666 45.6793 35.4304 46.7463 35.4304V35.8946H42.8613V35.4304C44.0104 35.4304 44.284 35.2666 44.284 34.7751V25.7922C44.284 25.3008 44.0104 25.1369 42.9981 25.1369V24.6728L45.4057 24.6182V34.7751Z" fill="#E7E8EC"/>
<path d="M51.2871 24.6182H54.4881L57.4429 33.7103H57.4976L60.6165 24.6182H63.6807V25.0823C62.3949 25.0823 62.176 25.1642 62.176 26.2018V34.311C62.176 35.3485 62.3949 35.4304 63.7081 35.4304V35.8946H59.3854V35.4304C60.7533 35.4304 60.9448 35.3485 60.9448 34.311V25.4646H60.9175L57.2787 35.8946H56.8957L53.4211 25.4646H53.3938V34.2564C53.3938 35.0755 53.7768 35.4031 54.9532 35.4304V35.8946H51.2871V35.4304C52.4362 35.4031 52.8192 35.0482 52.8192 34.2564V26.2018C52.8192 25.1642 52.6003 25.0823 51.2871 25.0823V24.6182Z" fill="#E7E8EC"/>
<path d="M69.974 30.3792V34.7478C69.974 35.2393 70.1655 35.3485 70.4117 35.3485C70.7126 35.3485 70.9315 35.0482 70.9315 34.0652H71.3966C71.3966 35.1574 71.0957 35.8946 70.056 35.8946C69.29 35.8946 68.9343 35.4031 68.9069 34.4748H68.8796C68.4145 35.3758 67.5664 36.0857 66.3626 36.0857C65.2956 36.0857 64.1465 35.4304 64.1465 34.1745C64.1465 32.0994 67.3748 31.526 68.8796 31.1164V29.9424C68.8796 29.0141 68.3871 28.4134 67.2107 28.4134C66.5267 28.4134 65.8154 28.6591 65.3776 29.0141L65.405 29.0414C65.7333 29.0414 66.089 29.2871 66.089 29.7513C66.089 30.1335 65.8154 30.5431 65.3229 30.5431C64.8578 30.5431 64.5842 30.1881 64.5842 29.6147C64.5842 28.7137 65.7059 27.9492 67.1833 27.9492C68.9617 28.0038 69.974 28.5772 69.974 30.3792ZM68.8522 31.5806C67.3475 31.9083 65.3503 32.3724 65.3503 34.311C65.3503 35.0755 66.0343 35.5669 66.6909 35.5669C67.8673 35.5669 68.8249 34.2837 68.8249 32.782V31.5806H68.8522Z" fill="#E7E8EC"/>
<path d="M72.7908 29.3145C72.7908 28.823 72.5172 28.6592 71.4776 28.6592V28.195L73.8852 28.0858V30.0517H73.9399C74.2955 29.096 74.8974 27.9766 76.0739 27.9766C76.7305 27.9766 77.3324 28.3861 77.3324 29.096C77.3324 29.5875 77.0314 29.8878 76.5663 29.8878C76.1286 29.8878 75.8003 29.6421 75.8003 29.1506C75.8003 28.8503 75.9371 28.6319 76.1833 28.4953C76.1286 28.4407 76.0465 28.4134 75.9371 28.4134C75.4993 28.4134 74.5144 28.9049 74.0767 30.7888C73.8578 31.8264 73.8578 33.3554 73.8578 34.4202C73.8578 35.2394 74.1314 35.4032 75.3352 35.4032V35.8673H71.4229V35.4032C72.4899 35.4032 72.7361 35.2393 72.7361 34.7479V29.3145H72.7908Z" fill="#E7E8EC"/>
<path d="M85.2671 28.195V28.6592C84.0359 28.7684 83.5708 29.1506 81.5189 31.1984L83.6529 34.4475C84.2821 35.4305 84.4737 35.4578 85.4039 35.4578V35.922H83.3793L80.7255 31.9083L79.9594 32.5909V34.8025C79.9594 35.294 80.233 35.4578 81.3 35.4578V35.922H77.415V35.4578C78.5641 35.4578 78.8377 35.294 78.8377 34.8025V25.8196C78.8377 25.3281 78.5641 25.1643 77.5245 25.1643V24.7001L79.9321 24.6455V32.0448L82.4491 29.7513C82.7227 29.4783 82.9689 29.2598 82.9689 28.9868C82.9689 28.7138 82.668 28.6592 81.7104 28.6592V28.195H85.2671Z" fill="#E7E8EC"/>
<path d="M86.6638 31.8536V32.3178C86.6638 34.1745 87.5666 35.6216 89.1808 35.6216C90.6035 35.6216 91.178 34.9663 91.8073 34.0379L92.2176 34.311C91.2327 35.7581 90.4667 36.0857 89.0714 36.0857C86.8279 36.0857 85.4326 34.0652 85.4326 32.0175C85.4326 29.6147 86.7732 27.9492 88.9893 27.9492C91.0412 27.9492 92.2176 29.8878 92.2176 31.8263H86.6638V31.8536ZM90.9591 31.3895C90.9591 30.0516 90.5487 28.4407 88.8798 28.4407C87.3751 28.4407 86.6911 29.9697 86.6911 31.3895H90.9591Z" fill="#E7E8EC"/>
<path d="M96.9773 28.0042V28.4683H94.515V34.284C94.515 35.2943 95.0074 35.6492 95.582 35.6492C96.0744 35.6492 96.7858 35.2943 96.7858 33.9837V33.2738H97.2509V33.8745C97.2509 35.1851 96.649 36.1134 95.281 36.1134C94.0772 36.1134 93.3933 35.4581 93.3933 34.2021V28.441H92.1621V27.9769C93.5574 27.9769 93.9404 26.639 94.0225 25.5195H94.4876V27.9769H96.9773V28.0042Z" fill="#E7E8EC"/>
<path d="M100.589 35.8946V35.4304C101.656 35.4304 102.012 35.2939 102.23 34.7205L106.006 24.6182H106.416L110.192 34.8298C110.383 35.3485 110.766 35.4577 111.615 35.4577V35.9219H107.429V35.4577C108.66 35.4577 108.879 35.3212 108.879 34.9936C108.879 34.5294 108.058 32.6181 107.894 32.0721H103.79C103.708 32.3451 102.86 34.5294 102.86 35.0209C102.86 35.4031 103.215 35.4577 104.337 35.4577V35.9219H100.589V35.8946ZM104.009 31.4987H107.73L105.897 26.4475L104.009 31.4987Z" fill="#E7E8EC"/>
<path d="M118.017 34.7752C118.017 35.2667 118.263 35.4305 119.248 35.4305V35.8947L116.895 35.9766V34.7479H116.868C116.293 35.567 115.691 36.0585 114.405 36.0585C112.983 36.0585 111.943 35.5397 111.943 33.9015V29.2599C111.943 28.7684 111.67 28.6046 110.657 28.6046V28.1404L113.065 28.0312V33.9834C113.065 35.0209 113.639 35.567 114.624 35.567C115.992 35.567 116.922 34.4476 116.922 32.6182V29.2326C116.922 28.7411 116.649 28.5773 115.609 28.5773V28.1131L118.044 28.0039V34.7752H118.017Z" fill="#E7E8EC"/>
<path d="M123.679 28.0042V28.4683H121.217V34.284C121.217 35.2943 121.71 35.6492 122.284 35.6492C122.749 35.6492 123.488 35.2943 123.488 33.9837V33.2738H123.953V33.8745C123.953 35.1851 123.351 36.1134 122.011 36.1134C120.807 36.1134 120.123 35.4581 120.123 34.2021V28.441H118.919V27.9769C120.287 27.9769 120.697 26.639 120.779 25.5195H121.244V27.9769H123.679V28.0042Z" fill="#E7E8EC"/>
<path d="M130.601 35.8946V30.5704C130.601 29.724 130.601 28.4407 129.096 28.4407C127.811 28.4407 126.771 29.6967 126.771 31.8536V34.7751C126.771 35.2666 127.045 35.4304 128.084 35.4304V35.8946H124.254V35.4304C125.403 35.4304 125.649 35.2666 125.649 34.7751V25.7922C125.649 25.3008 125.376 25.1369 124.336 25.1369V24.6728L126.744 24.6182V29.5328H126.771C127.345 28.4953 128.057 28.0038 129.343 28.0038C130.793 28.0038 131.723 28.7137 131.723 30.4338V34.8024C131.723 35.2939 131.914 35.4577 133.009 35.4577V35.9219H130.601V35.8946Z" fill="#E7E8EC"/>
<path d="M132.898 32.0448C132.898 29.997 134.239 27.9766 136.455 27.9766C138.699 27.9766 140.012 29.9697 140.012 32.0448C140.012 34.0926 138.699 36.1131 136.455 36.1131C134.239 36.1131 132.898 34.0926 132.898 32.0448ZM138.781 32.0448C138.781 29.724 138.042 28.4407 136.455 28.4407C134.868 28.4407 134.13 29.724 134.13 32.0448C134.13 34.3656 134.868 35.6489 136.455 35.6489C138.069 35.6489 138.781 34.3656 138.781 32.0448Z" fill="#E7E8EC"/>
<path d="M141.189 29.3145C141.189 28.823 140.916 28.6592 139.876 28.6592V28.195L142.311 28.0858V30.0517H142.338C142.721 29.096 143.296 27.9766 144.5 27.9766C145.156 27.9766 145.758 28.3861 145.758 29.096C145.758 29.5875 145.457 29.8878 144.992 29.8878C144.554 29.8878 144.226 29.6421 144.226 29.1506C144.226 28.8503 144.363 28.6319 144.609 28.4953C144.554 28.4407 144.472 28.4134 144.363 28.4134C143.925 28.4134 142.94 28.9049 142.502 30.7888C142.284 31.8264 142.284 33.3554 142.284 34.4202C142.284 35.2394 142.53 35.4032 143.761 35.4032V35.8673H139.849V35.4032C140.888 35.4032 141.162 35.2393 141.162 34.7479V29.3145H141.189Z" fill="#E7E8EC"/>
<path d="M150.026 35.8952H146.141V35.4311C147.29 35.4311 147.563 35.2673 147.563 34.7758V29.2877C147.563 28.7963 147.29 28.6325 146.277 28.6325V28.1683L148.685 28.0591V34.7485C148.685 35.24 148.931 35.4038 150.026 35.4038V35.8952ZM148.767 25.5198C148.767 25.9567 148.411 26.2843 147.974 26.2843C147.536 26.2843 147.18 25.9567 147.18 25.5198C147.18 25.083 147.536 24.728 147.974 24.728C148.411 24.7007 148.767 25.0557 148.767 25.5198Z" fill="#E7E8EC"/>
<path d="M154.513 28.0862V28.5504H152.051V34.3934C152.051 35.4036 152.544 35.7585 153.118 35.7585C153.611 35.7585 154.322 35.4036 154.322 34.093V33.3558H154.787V33.9565C154.787 35.2671 154.185 36.1954 152.817 36.1954C151.613 36.1954 150.929 35.5401 150.929 34.2842V28.5231H149.698V28.0589C151.066 28.0589 151.477 26.721 151.559 25.6016H152.024V28.0589H154.513V28.0862Z" fill="#E7E8EC"/>
<path d="M154.349 28.0859H158.042V28.5501C156.838 28.5501 156.702 28.6866 156.702 28.9323C156.702 29.3419 157.659 31.5262 158.753 34.202H158.781C159.875 31.417 160.723 29.6149 160.723 29.0689C160.723 28.6866 160.477 28.5501 159.492 28.5501V28.0859H162.611V28.5501C161.763 28.5501 161.517 28.7139 161.188 29.4784L158.726 35.6218C157.823 37.888 157.276 38.5705 156.045 38.5705C155.197 38.5705 154.485 37.9972 154.485 37.26C154.485 36.7412 154.868 36.3863 155.306 36.3863C155.717 36.3863 156.045 36.6593 156.045 37.0143C156.045 37.5057 155.771 37.7787 155.279 37.806C155.388 37.9972 155.717 38.1064 156.127 38.1064C157.057 38.1064 157.741 37.1235 158.152 35.5945L155.58 29.1508C155.388 28.632 154.978 28.5228 154.321 28.5228V28.0859H154.349Z" fill="#E7E8EC"/>
<mask id="mask0_8122_903" style="mask-type:luminance" maskUnits="userSpaceOnUse" x="181" y="0" width="14" height="39">
<path d="M181.489 38.6524L194.375 25.7924L181.517 0.754883L181.489 38.6524Z" fill="white"/>
</mask>
<g mask="url(#mask0_8122_903)">
<path d="M191.695 -4.45996L209.807 30.7618L184.199 43.8676L166.087 8.67312L191.695 -4.45996Z" fill="url(#paint0_linear_8122_903)"/>
</g>
<path d="M206.605 13.6149L219.491 0.754883H181.517L206.605 13.6149Z" fill="#5C667E"/>
<path d="M194.375 25.792L181.489 38.652H219.491L194.375 25.792Z" fill="#B3B8C3"/>
<mask id="mask1_8122_903" style="mask-type:luminance" maskUnits="userSpaceOnUse" x="206" y="0" width="14" height="39">
<path d="M206.604 13.6149L219.491 38.6524V0.754883L206.604 13.6149Z" fill="white"/>
</mask>
<g mask="url(#mask1_8122_903)">
<path d="M209.285 43.8949L191.174 8.67312L216.809 -4.45996L234.921 30.7618L209.285 43.8949Z" fill="url(#paint1_linear_8122_903)"/>
</g>
</g>
<defs>
<linearGradient id="paint0_linear_8122_903" x1="178.888" y1="2.10201" x2="191.722" y2="27.156" gradientUnits="userSpaceOnUse">
<stop stop-color="#AAACAF"/>
<stop offset="1" stop-color="#FAFAFA"/>
</linearGradient>
<linearGradient id="paint1_linear_8122_903" x1="222.101" y1="37.3186" x2="209.259" y2="12.2531" gradientUnits="userSpaceOnUse">
<stop stop-color="#AAACAF"/>
<stop offset="1" stop-color="#FAFAFA"/>
</linearGradient>
<clipPath id="clip0_8122_903">
<rect width="220" height="38" fill="white"/>
</clipPath>
</defs>
</svg>
