<svg width="170" height="56" viewBox="0 0 170 56" fill="none" xmlns="http://www.w3.org/2000/svg">
<g clip-path="url(#clip0_8122_813)">
<path d="M39.1371 21.0055C39.1371 21.3448 39.1053 21.6921 39.0258 22.0501C38.9014 22.7074 38.7901 23.036 38.7001 23.036C38.6498 23.036 38.6153 22.8997 38.5994 22.6272C38.565 22.0501 38.5438 21.7215 38.5438 21.652C38.4035 20.2361 38.0433 17.8503 37.466 14.5C37.3018 13.5703 37.0846 12.181 36.8145 10.3269C36.6794 10.2066 36.6238 10.1158 36.645 10.0543C36.7006 9.8887 36.796 9.64558 36.9257 9.31697C37.0264 9.04446 37.0926 8.9082 37.1164 8.9082C37.1614 8.9082 37.3865 9.34368 37.7917 10.2227C38.2419 11.1978 38.4379 11.7081 38.377 11.7535C38.3214 11.7883 38.2022 11.7188 38.0274 11.5264C37.9771 11.4703 37.8473 11.3341 37.6355 11.1177C37.895 12.5123 38.2764 14.7378 38.7822 17.7942C39.0152 19.3891 39.1371 20.4632 39.1371 21.0055Z" fill="#E7E8EC"/>
<path d="M18.3154 21.6333C18.3154 22.3252 18.1459 22.8622 17.8096 23.2416C17.558 23.5141 16.6126 24.1393 14.9786 25.1118C13.1247 26.2125 11.9277 26.7682 11.3928 26.7682C10.6963 26.7682 10.3467 26.3327 10.3467 25.4537C10.3467 24.6709 10.5268 23.8454 10.8975 22.9825C11.0776 22.563 11.1994 22.3466 11.2683 22.36C11.3636 22.36 11.3133 22.6271 11.0988 23.1588C10.8896 23.6904 10.7836 24.166 10.7836 24.5935C10.7836 25.216 11.0538 25.5339 11.594 25.5339C12.1104 25.5339 13.2121 25.0423 14.8965 24.0484C16.9409 22.8649 17.9632 22.213 17.9632 22.0874C17.9632 21.8096 17.6269 21.4863 16.9409 21.1123C16.4192 20.8505 15.8896 20.586 15.3573 20.3188C14.4542 19.8326 13.7233 19.2181 13.1671 18.4807C13.1353 18.4753 13.0824 18.4299 13.0215 18.3444C13.0162 18.3097 13.0109 18.1067 13.0109 17.7326C13.0056 17.3479 13.0109 17.1555 13.0347 17.1422C13.1247 17.1315 13.4055 17.2678 13.8901 17.5616C14.3668 17.8555 14.5972 18.0265 14.576 18.0826C14.5654 18.1334 14.4065 18.1628 14.1152 18.1735C14.7058 18.7078 15.4235 19.17 16.2709 19.5681C17.1131 19.9581 17.6427 20.2467 17.844 20.431C18.1565 20.7249 18.3154 21.123 18.3154 21.6333Z" fill="#E7E8EC"/>
<path d="M2.48108 18.9059C2.33807 19.4162 2.11296 19.6781 1.80046 19.6781C1.62568 19.6781 1.49591 19.6139 1.40852 19.483C1.22578 19.1865 1.13574 18.8712 1.13574 18.5319C1.13574 18.2915 1.17547 17.9602 1.26286 17.5327C1.3582 17.0091 1.53299 16.4213 1.78193 15.7667C1.87727 15.5263 1.95671 15.4087 2.01233 15.4087C2.03087 15.4167 2.04411 15.4435 2.04411 15.4889C2.04411 15.5664 2.01498 15.6812 1.95936 15.8335C1.85608 16.1488 1.70513 16.7446 1.50915 17.6209C1.42176 18.1071 1.44294 18.4812 1.57271 18.7323C1.6601 18.9086 1.78193 18.9941 1.94612 18.9941C2.04146 18.9941 2.12356 18.9594 2.19241 18.8792C2.23214 18.8231 2.29305 18.735 2.3725 18.6147C2.41222 18.5186 2.444 18.4705 2.46784 18.4705C2.55523 18.4651 2.56847 18.6094 2.48108 18.9059ZM12.2798 16.0954C12.2798 16.2824 12.2401 16.4801 12.1553 16.6911C12.0759 16.8969 12.0097 17.0037 11.954 17.0037C11.9249 17.0037 11.8296 16.8969 11.668 16.6804C11.5118 16.464 11.3714 16.3572 11.2469 16.3572C10.9106 16.3572 10.381 16.7045 9.66326 17.4071C8.94558 18.1044 8.58541 18.6388 8.58541 18.9995C8.58541 19.1678 8.7602 19.3441 9.11507 19.5204C9.41698 19.6807 9.71094 19.7689 9.99165 19.7929C10.7782 19.8651 11.3105 19.9853 11.5992 20.1456C11.8587 20.3032 11.9938 20.5303 11.9938 20.8376C11.9938 21.4333 11.8481 21.9196 11.5436 22.299C11.0616 22.9241 10.1055 23.568 8.68869 24.2386C7.15003 24.9519 5.80734 25.3153 4.66593 25.3153C3.19612 25.3153 2.18182 24.658 1.64422 23.3436C1.35025 22.6116 1.31848 21.7326 1.55417 20.7013C1.68924 20.1109 1.88521 19.5498 2.15004 19.0128C2.33013 18.6495 2.444 18.4812 2.49961 18.5025C2.55523 18.5239 2.52875 18.7163 2.39898 19.093C2.09708 19.9613 1.93818 20.6452 1.93818 21.1555C1.93818 21.9623 2.17388 22.6303 2.65587 23.1619C3.20671 23.7737 4.00385 24.081 5.04993 24.081C5.92651 24.081 6.91433 23.8646 8.01602 23.4344C8.83699 23.1165 9.64473 22.7131 10.4445 22.2215C11.1172 21.8127 11.4562 21.5749 11.4562 21.4948C11.4562 21.2837 11.1543 21.1421 10.5451 21.0753C8.88202 20.8883 8.05045 20.4181 8.05045 19.67C8.05045 18.7857 8.48212 17.8106 9.35341 16.7339C10.1903 15.7026 10.9053 15.1816 11.4985 15.1816C11.7078 15.1816 11.8931 15.2725 12.0494 15.4595C12.2003 15.6358 12.2798 15.8522 12.2798 16.0954ZM8.76549 26.1061L8.20405 27.1267L7.05734 26.4481L6.58594 27.2977L5.41804 26.6057L5.97948 25.5851L7.12619 26.2664L7.59759 25.4168L8.76549 26.1061Z" fill="#E7E8EC"/>
<path d="M20.6225 21.0161C20.2623 20.9947 20.0822 20.9039 20.0822 20.757C20.0822 20.6902 20.1326 20.6207 20.2226 20.5646C20.3179 20.5032 20.3974 20.4738 20.453 20.4738C20.7337 20.4978 21.0038 20.6795 21.274 21.0081C21.0939 21.0295 20.8741 21.0295 20.6225 21.0161ZM35.6781 16.135C35.3523 14.3503 35.0372 12.571 34.7326 10.797C34.9365 11.0027 35.069 11.1363 35.1246 11.1924C35.3153 11.3741 35.4291 11.4489 35.4741 11.4195C35.49 11.4008 35.498 11.3848 35.498 11.3741C35.498 11.2832 35.2941 10.7836 34.9021 9.8913C34.5208 9.00697 34.2957 8.56348 34.2295 8.56348C34.195 8.56348 34.1288 8.70508 34.0255 8.98293C33.9011 9.31155 33.8137 9.56001 33.7448 9.73099C33.713 9.79244 33.7792 9.87793 33.9355 9.97946C34.2003 11.8389 34.4069 13.2335 34.5525 14.1633C35.2437 18.1093 35.588 20.4951 35.588 21.3153C35.588 21.4062 35.4583 21.5264 35.2014 21.66C34.9445 21.8016 34.722 21.8684 34.5393 21.871C34.4837 21.871 34.4307 21.8684 34.3751 21.8604C34.1341 21.8336 33.9143 21.7481 33.713 21.6092C33.5806 21.5291 33.4853 21.4382 33.4191 21.3314C33.3449 21.2111 33.3131 21.0749 33.3184 20.9173C33.3237 20.8505 33.3264 20.7917 33.329 20.7409C33.3343 20.618 33.329 20.5512 33.3184 20.5432C33.239 20.5085 33.1172 20.6554 32.9477 20.9627C32.8576 21.1684 32.757 21.3714 32.6564 21.5638C32.4975 21.8016 32.2512 21.9031 31.9148 21.8924C31.5123 21.8791 31.2819 21.7348 31.221 21.4623C31.2528 21.2592 31.3031 21.0589 31.3137 20.8558C31.3402 20.7463 31.3349 20.6902 31.2951 20.6795C31.2157 20.6608 31.1045 20.7757 30.9456 21.0081C30.7973 21.2298 30.6701 21.4088 30.5616 21.5451C30.5245 21.5825 30.4821 21.6172 30.4397 21.652C30.1246 21.9218 29.7379 22.1676 29.3248 22.2157C29.2718 22.221 29.2162 22.221 29.1606 22.2237C29.1527 22.2237 29.1474 22.2237 29.1394 22.2237C29.0547 22.221 28.9673 22.2077 28.8799 22.1863C28.8534 22.181 28.8269 22.1756 28.8004 22.1703C28.525 22.0688 28.3661 21.8283 28.3237 21.4543C28.3237 21.3314 28.3396 21.1818 28.3688 21.0134C28.3847 20.9066 28.3688 20.8425 28.3237 20.8318C28.2681 20.8157 28.1834 20.8665 28.0642 20.968C27.9 21.1417 27.7597 21.2886 27.6431 21.4062C27.5716 21.481 27.5081 21.5451 27.4551 21.6012C27.3756 21.6733 27.2962 21.7455 27.2141 21.8149C27.1532 21.8657 27.0923 21.9165 27.0287 21.9619C26.9228 22.042 26.8116 22.1195 26.695 22.1863C26.6209 22.229 26.5441 22.2611 26.4593 22.2825C26.2448 22.3386 26.0197 22.3733 25.7946 22.376C25.6622 22.3787 25.5298 22.368 25.4 22.3466C25.159 22.3039 24.9736 22.1008 24.9525 21.855C24.9392 21.6974 24.9631 21.5317 24.9948 21.3848C25.0478 21.1577 25.0849 20.9226 25.1484 20.6982C25.1776 20.5913 25.2146 20.4871 25.2623 20.3883C25.4848 20.2627 25.7231 20.1665 25.9615 20.0757C26.2528 19.9635 26.5467 19.8593 26.8248 19.7177C27.0102 19.6162 27.23 19.5387 27.3836 19.3891C27.4313 19.341 27.4736 19.2875 27.5054 19.2234C27.6378 18.983 27.7702 18.7345 27.8126 18.4593C27.2353 18.6544 26.703 18.9563 26.1257 19.1459C25.8661 19.2475 25.5934 19.3517 25.3179 19.4131C25.3126 19.4131 25.3073 19.4158 25.302 19.4158C24.971 19.4879 24.6294 19.5013 24.2983 19.3757C23.6124 19.1807 23.1066 18.6517 22.7438 18.0532C22.7014 17.9864 22.6643 17.917 22.6246 17.8475C22.5372 17.6418 22.3916 17.3399 22.6299 17.1823C23.329 16.7468 24.1792 16.7067 24.9736 16.6346C25.5271 16.5624 26.0462 16.8163 26.5918 16.8163C26.0436 16.338 25.3815 15.9319 24.64 15.8838C23.9593 15.7983 23.2046 15.8972 22.6829 16.3834C22.2565 16.7308 22.034 17.2758 21.9784 17.8155C21.9678 17.901 21.9731 17.9864 21.9864 18.0719C22.0261 18.307 22.0896 18.5422 22.177 18.7666C22.23 18.9002 22.2909 19.0337 22.3624 19.1593C22.4869 19.3837 22.6405 19.5894 22.8259 19.7711C23.0166 19.9341 23.2231 20.0784 23.4191 20.2387C23.0139 20.4123 22.622 20.6367 22.1956 20.7543C22.1188 20.5913 22.0234 20.4257 21.9096 20.2574C21.5335 19.7017 21.1442 19.4131 20.7417 19.3837C20.3603 19.3624 20.024 19.5654 19.73 19.9849C19.4652 20.3642 19.3381 20.7436 19.3381 21.131C19.3381 21.7882 19.7433 22.1168 20.551 22.1168C21.131 22.1168 21.5865 22.0554 21.9122 21.9352C22.0128 22.0821 22.0579 22.2478 22.0579 22.4348C22.0579 22.7393 21.5176 23.2977 20.4398 24.1126C19.2533 25.0076 18.2496 25.4484 17.4286 25.4484C16.8434 25.4484 16.3826 25.2507 16.0515 24.858C15.7152 24.4626 15.551 23.9736 15.551 23.3966C15.551 23.0573 15.596 22.7046 15.6755 22.3546C15.7576 22.0046 15.7973 21.8336 15.7973 21.8336C15.7973 21.7989 15.7867 21.7802 15.7735 21.7775C15.6834 21.7562 15.5616 21.9993 15.4133 22.5016C15.2438 23.0573 15.167 23.5889 15.167 24.1126C15.167 24.85 15.3418 25.4377 15.6834 25.8812C16.0595 26.3755 16.605 26.6186 17.3121 26.6186C18.0695 26.6186 18.9647 26.2446 19.9869 25.4965C20.882 24.85 21.5547 24.1927 22.0102 23.5115C22.275 23.1241 22.4127 22.5577 22.426 21.8069C23.1649 21.5985 23.9991 21.1871 24.926 20.5753C24.7009 21.2485 24.5287 21.9672 24.6585 22.6779C24.7485 22.9825 24.9445 23.2844 25.2597 23.3805C25.7072 23.4634 26.1945 23.4447 26.6023 23.2229C26.7109 23.1775 26.8089 23.1187 26.899 23.0466C27.2379 22.8489 27.5398 22.547 27.8073 22.1436C27.8073 22.9531 28.1781 23.3565 28.909 23.3565C29.6267 23.3565 30.2358 22.9264 30.731 22.0768C30.6966 22.3252 30.7655 22.547 30.9164 22.7393C31.0197 22.8649 31.1389 22.9504 31.2739 22.9932C31.3455 23.0172 31.4249 23.0279 31.507 23.0279C32.1267 23.0279 32.5743 22.6271 32.8682 21.8256C32.8841 21.8256 32.9238 21.9031 32.9768 22.0474C32.9768 22.0474 32.9795 22.05 32.9795 22.0527C33.0642 22.2451 33.1436 22.3813 33.2151 22.4722C33.4747 22.8061 33.811 22.9744 34.2295 22.9825C34.2321 22.9825 34.2347 22.9825 34.2374 22.9825C34.24 22.9825 34.2427 22.9825 34.2453 22.9825C34.248 22.9825 34.2506 22.9825 34.2506 22.9825C34.2533 22.9825 34.2559 22.9825 34.2559 22.9825C35.1219 22.9771 35.6781 22.5016 35.9217 21.5665C36.0727 20.96 36.1468 20.4444 36.1468 20.0142C36.1601 19.3597 35.9959 18.0666 35.6781 16.135Z" fill="#E7E8EC"/>
<path d="M16.8457 14.8983C16.7531 15.2322 16.6048 15.4032 16.4008 15.4032C16.287 15.4032 16.2022 15.3605 16.1439 15.275C16.0248 15.0826 15.9639 14.8769 15.9639 14.6552C15.9639 14.4975 15.9903 14.2811 16.046 14.0006C16.1069 13.6586 16.2208 13.2766 16.3849 12.8464C16.4459 12.6888 16.4988 12.6113 16.5359 12.6113C16.5491 12.6167 16.5571 12.6354 16.5571 12.6648C16.5571 12.7129 16.5385 12.7903 16.5041 12.8892C16.4379 13.0949 16.3399 13.485 16.2075 14.0567C16.1519 14.3746 16.1651 14.6178 16.2499 14.7834C16.3081 14.8983 16.3876 14.9544 16.4935 14.9544C16.5544 14.9544 16.61 14.9303 16.6551 14.8769C16.6816 14.8395 16.7186 14.7834 16.7716 14.7059C16.7954 14.6445 16.8193 14.6124 16.8325 14.6124C16.8934 14.6124 16.9014 14.7059 16.8457 14.8983Z" fill="#E7E8EC"/>
<path d="M15.1718 26.6162C15.193 26.6483 15.1797 26.7257 15.1294 26.8326C15.0817 26.9368 15.0447 26.9956 15.0182 27.0063C14.3217 27.2681 13.6225 27.5299 12.9234 27.7944C12.0362 28.1364 11.3927 28.4196 10.9954 28.6493C10.9742 28.6039 10.9716 28.5158 10.9954 28.3902C11.0192 28.278 11.0484 28.2112 11.0828 28.1872C12.3355 27.6208 13.6967 27.0971 15.1718 26.6162Z" fill="#E7E8EC"/>
<path d="M24.1474 11.6999C24.1474 11.732 24.1235 11.7934 24.0759 11.8896C24.0282 11.9831 23.9991 12.0312 23.9885 12.0312C23.8561 12.0125 23.7078 11.9671 23.5409 11.895C23.2284 12.3865 22.5849 12.9075 21.613 13.4525C21.5335 13.4926 21.3296 13.5781 21.0012 13.7064C20.6728 13.8319 20.5007 13.8934 20.4768 13.88C20.4689 13.8613 20.6357 13.7518 20.988 13.5487C22.1956 12.8995 23.0113 12.3304 23.427 11.8442C23.0669 11.6786 22.8841 11.4808 22.8841 11.2484C22.8841 11.1202 22.9609 10.9572 23.1172 10.7648C23.2681 10.5725 23.4164 10.4736 23.5568 10.4736C23.7316 10.4736 23.8216 10.6713 23.8216 11.0694C23.8216 11.2217 23.7978 11.3767 23.7422 11.5289C24.0123 11.6198 24.1474 11.6759 24.1474 11.6999ZM23.6045 11.4835C23.6919 11.1068 23.6363 10.9171 23.4297 10.9171C23.2443 10.9171 23.149 10.9946 23.149 11.1522C23.1463 11.2644 23.2999 11.374 23.6045 11.4835Z" fill="#E7E8EC"/>
<path d="M32.3808 13.53C32.3808 13.5621 32.3569 13.6235 32.3093 13.7197C32.2616 13.8132 32.2325 13.8613 32.2219 13.8613C32.0895 13.8399 31.9411 13.7972 31.7743 13.7224C31.4618 14.214 30.8183 14.7349 29.8463 15.28C29.7669 15.32 29.563 15.4028 29.2346 15.5338C28.9062 15.6593 28.7341 15.7208 28.7102 15.7074C28.7023 15.6887 28.8718 15.5792 29.2213 15.3788C30.429 14.7296 31.2446 14.1605 31.6604 13.6743C31.3003 13.5086 31.1175 13.3109 31.1175 13.0785C31.1175 12.9503 31.1943 12.7873 31.3506 12.5949C31.5015 12.3999 31.6498 12.3037 31.7902 12.3037C31.965 12.3037 32.055 12.5014 32.055 12.9022C32.055 13.0544 32.0312 13.2067 31.9756 13.3617C32.2457 13.4499 32.3808 13.506 32.3808 13.53ZM31.8379 13.3136C31.9253 12.9369 31.8696 12.7472 31.6604 12.7472C31.4777 12.7472 31.3824 12.8247 31.3824 12.9823C31.3824 13.0945 31.5333 13.2041 31.8379 13.3136Z" fill="#E7E8EC"/>
<path d="M31.8064 25.0029C31.8064 25.2941 31.7004 25.4411 31.4886 25.4411C31.4038 25.4411 31.3323 25.4117 31.2688 25.3529C31.237 25.3289 31.2052 25.3342 31.1787 25.377C31.0781 25.5319 30.9324 25.6121 30.7444 25.6121C30.6702 25.6121 30.604 25.596 30.5537 25.5586C30.3842 25.4571 30.175 25.4571 29.9234 25.572C29.8148 25.6308 29.6268 25.783 29.3593 26.0262C29.2057 26.1517 29.0574 26.2826 28.9091 26.4109C28.6655 26.6006 28.3742 26.7636 28.0378 26.9051C27.7651 27.0147 27.5797 27.0708 27.487 27.0708C27.4632 27.0708 27.4473 27.0654 27.4473 27.0467C27.4711 27.0227 27.5241 26.996 27.5903 26.9693C27.7174 26.9265 27.8922 26.849 28.1146 26.7342C28.5251 26.4991 28.8853 26.2266 29.1925 25.9086C29.4467 25.6228 29.7195 25.409 30.0135 25.2594C30.2174 25.1499 30.3922 25.1392 30.5405 25.2354C30.6067 25.2861 30.6782 25.3128 30.7576 25.3128C30.9695 25.3128 31.1178 25.2113 31.1946 25.0029C31.2343 24.8774 31.2847 24.8106 31.3482 24.8106C31.3641 24.8106 31.372 24.8293 31.3615 24.8747C31.335 24.9709 31.3297 25.0216 31.3482 25.043C31.4038 25.1178 31.4939 25.1445 31.6051 25.1098C31.6793 25.0938 31.6898 25.059 31.6289 25.0056C31.5839 24.9816 31.576 24.9415 31.6051 24.888C31.6554 24.7678 31.6845 24.709 31.7057 24.709C31.7719 24.7064 31.8064 24.8025 31.8064 25.0029Z" fill="#E7E8EC"/>
<path d="M8.59085 13.2257C8.59085 13.6264 8.50081 13.9604 8.31013 14.2409C8.13005 14.5081 7.93937 14.647 7.7381 14.647C7.61627 14.647 7.51829 14.5989 7.44149 14.5081C7.13958 14.8153 6.86946 14.9756 6.63905 14.9756C6.30272 14.9756 6.12793 14.7752 6.12793 14.3745C6.12793 14.2275 6.18354 14.0058 6.30272 13.7066C6.4166 13.4073 6.51193 13.2524 6.58874 13.2524C6.64965 13.2524 6.67878 13.3138 6.66024 13.4394C6.62846 13.7146 6.60992 13.8535 6.60992 13.8535C6.60992 13.939 6.67878 13.9871 6.81914 13.9871C7.02306 13.9871 7.20579 13.8802 7.37528 13.6585C7.54477 13.4447 7.62157 13.3325 7.60568 13.3325C7.67719 13.3325 7.7275 13.386 7.75134 13.4982C7.77517 13.605 7.80696 13.6585 7.85727 13.6585C8.03736 13.6585 8.18301 13.5516 8.28894 13.3325C8.39487 13.1188 8.45579 13.0039 8.47432 13.0039C8.55112 13.0066 8.59085 13.0814 8.59085 13.2257Z" fill="#E7E8EC"/>
<path d="M32.3252 16.3787C32.3252 16.7795 32.2352 17.1134 32.0445 17.3939C31.8644 17.6611 31.6737 17.8 31.4725 17.8C31.348 17.8 31.2527 17.7519 31.1759 17.6611C30.874 17.9684 30.6038 18.1287 30.3734 18.1287C30.0371 18.1287 29.8623 17.9283 29.8623 17.5275C29.8623 17.3806 29.9179 17.1588 30.0371 16.8596C30.1483 16.5604 30.2463 16.4054 30.3231 16.4054C30.384 16.4054 30.4132 16.4669 30.3946 16.5924C30.3628 16.865 30.3443 17.0066 30.3443 17.0066C30.3443 17.0921 30.4105 17.1401 30.5535 17.1401C30.7548 17.1401 30.9402 17.0333 31.1097 16.8115C31.2792 16.5978 31.3559 16.4829 31.3401 16.4829C31.4142 16.4829 31.4645 16.5363 31.4857 16.6486C31.5069 16.7554 31.5413 16.8089 31.5916 16.8089C31.7717 16.8089 31.9174 16.702 32.0233 16.4802C32.1292 16.2665 32.1902 16.1543 32.2087 16.1543C32.2855 16.1596 32.3252 16.2318 32.3252 16.3787Z" fill="#E7E8EC"/>
<path d="M24.9128 26.3381C24.558 26.8056 24.0945 27.038 23.5225 27.038C23.1199 27.0273 22.916 26.8671 22.916 26.5571C22.916 26.4102 22.9769 26.2018 23.0987 25.9213C23.2338 25.6194 23.3636 25.419 23.488 25.3228C23.2682 25.1518 23.1517 24.9862 23.1517 24.8259C23.1517 24.695 23.2365 24.5213 23.4086 24.3023C23.5807 24.0832 23.7396 23.9736 23.8853 23.9736C24.0071 23.9736 24.0707 24.0645 24.0707 24.2515C24.0707 24.3049 24.0548 24.3771 24.0177 24.4759C23.9859 24.5614 23.9515 24.6122 23.9197 24.6122C23.9012 24.6015 23.8826 24.5721 23.872 24.5347C23.8535 24.4572 23.8058 24.4145 23.737 24.4145C23.7052 24.4145 23.6522 24.4385 23.5701 24.4973C23.4933 24.5454 23.451 24.5988 23.451 24.6522C23.451 24.8232 23.6072 24.9087 23.9197 24.9087C23.9859 24.9087 24.0892 24.8499 24.2216 24.7351C24.3117 24.6416 24.3805 24.5988 24.4388 24.6122C24.4706 24.6122 24.4679 24.719 24.4229 24.9328C24.4017 24.9809 24.3434 25.0343 24.2561 25.0904C24.068 25.1679 23.8429 25.3469 23.586 25.6301C23.308 25.9079 23.1703 26.111 23.1703 26.2472C23.1703 26.4423 23.3583 26.5438 23.737 26.5438C24.0468 26.5438 24.4123 26.4423 24.8254 26.2285C24.8916 26.2045 24.934 26.1965 24.9605 26.2098C24.9817 26.2258 24.9684 26.2713 24.9128 26.3381Z" fill="#E7E8EC"/>
<path d="M79.3324 20.0495C79.3324 20.3888 79.3006 20.7361 79.2211 21.0914C79.0967 21.7486 78.9854 22.0772 78.8954 22.0772C78.8451 22.0772 78.8107 21.941 78.7948 21.6685C78.7603 21.0914 78.7391 20.7628 78.7391 20.6933C78.5988 19.2773 78.2386 16.8915 77.6613 13.5413C77.4971 12.6115 77.2799 11.2223 77.0098 9.3708C76.8747 9.25058 76.8191 9.15974 76.8403 9.0983C76.8959 8.93265 76.9913 8.68953 77.121 8.36091C77.2217 8.0884 77.2879 7.95215 77.3117 7.95215C77.3567 7.95215 77.5818 8.38763 77.987 9.26661C78.4372 10.2418 78.6332 10.7521 78.5723 10.7975C78.5167 10.8295 78.3975 10.7627 78.2227 10.5704C78.1724 10.5143 78.0426 10.378 77.8308 10.1616C78.0903 11.5562 78.4717 13.7844 78.9775 16.8381C79.2079 18.4358 79.3324 19.5044 79.3324 20.0495Z" fill="#E7E8EC"/>
<path d="M75.8025 21.7642C75.4927 21.7642 75.1961 21.5772 74.9154 21.2085C75.061 21.1471 75.2861 21.1417 75.5907 21.1845C75.6966 21.2005 75.8025 21.2646 75.9164 21.3662C76.0303 21.473 76.0859 21.5639 76.0859 21.6387C76.0832 21.7242 75.9879 21.7642 75.8025 21.7642ZM75.4318 19.9742C75.1669 19.9742 74.8227 20.0597 74.4148 20.2307C74.24 19.7365 74.0599 18.9857 73.8772 17.9678C73.4773 14.8179 73.1913 12.2959 73.0218 10.407C73.2257 10.6234 73.3476 10.749 73.3926 10.7944C73.5621 10.9974 73.6733 11.0829 73.7421 11.0535V10.9867C73.7421 10.8959 73.5727 10.4097 73.2496 9.52534C72.9185 8.64102 72.7093 8.2002 72.6299 8.2002C72.5954 8.2002 72.5292 8.34179 72.4286 8.61964C72.3386 8.79063 72.2194 9.02841 72.079 9.33565C72.0605 9.40245 72.124 9.49862 72.2485 9.61885C72.4604 13.2256 72.7543 16.0736 73.1357 18.1655C73.3449 19.3838 73.5197 20.1746 73.6574 20.5353C73.6627 20.546 73.6627 20.5566 73.668 20.5673C72.7067 21.0162 72.0737 21.2353 71.7586 21.2353C71.7294 21.2353 71.703 21.2406 71.6791 21.2459C71.4011 21.2139 71.1786 21.115 70.9985 20.9494C70.9376 20.904 70.8529 20.7784 70.7522 20.5753C70.6622 20.3937 70.596 20.3028 70.5615 20.3028C70.5298 20.3028 70.4821 20.4738 70.4265 20.8131C70.3656 21.1524 70.3364 21.3582 70.3364 21.4143C70.3364 21.3688 70.4715 21.6253 70.7416 22.1677C71.0118 22.718 71.1468 23.1562 71.1468 23.4768C71.1468 23.6985 70.5509 24.2142 69.3725 25.0183C68.2999 25.7424 67.3545 26.1057 66.5414 26.1057C65.2649 26.1057 64.632 25.4805 64.632 24.2462C64.632 23.8722 64.7115 23.4314 64.8677 22.9211C64.9922 22.4909 65.0372 22.2745 65.024 22.2745C64.9445 22.2291 64.8545 22.2959 64.7432 22.4776C64.3725 23.1802 64.1924 24.0191 64.1924 24.9943C64.1924 26.5091 64.8995 27.2625 66.3163 27.2625C67.0526 27.2625 67.9583 26.9339 69.0255 26.2874C70.0716 25.6622 70.784 25.029 71.1733 24.3825C71.2951 24.1848 71.3931 23.8615 71.4593 23.4127C71.5308 22.9611 71.5441 22.6165 71.5096 22.368C71.9281 22.3654 72.3889 22.2532 72.9 22.0394C73.2761 21.8578 73.6521 21.6761 74.0229 21.4944C74.534 22.4241 75.0795 22.889 75.6516 22.889C76.2925 22.889 76.6076 22.3066 76.6076 21.1444C76.5997 20.3589 76.2051 19.9742 75.4318 19.9742Z" fill="#E7E8EC"/>
<path d="M49.8407 17.105L48.6728 16.4131L48.1113 17.4337L49.2792 18.1256L49.8407 17.105Z" fill="#E7E8EC"/>
<path d="M69.0303 18.5449C68.7364 18.2617 68.4 18.048 68.0187 17.8984C67.3434 17.6499 66.2761 17.6152 64.8169 17.7861C62.6612 18.0132 61.0431 18.2003 59.9626 18.3419C58.2782 18.4941 57.0256 18.5075 56.2099 18.3873C55.2936 18.2644 54.8381 18.0587 54.8381 17.7648C54.8381 17.4816 55.2989 17.0167 56.2099 16.3702C57.8466 15.2374 59.1204 14.671 60.0314 14.671C60.1612 14.671 60.2433 14.703 60.2909 14.7618C60.4154 14.9194 60.4816 14.9996 60.4949 14.9996C60.5611 14.9996 60.6405 14.8687 60.72 14.6122C60.8047 14.3531 60.8418 14.158 60.8418 14.0244C60.8418 13.7119 60.72 13.5596 60.471 13.5596C59.5044 13.5596 58.2226 14.1153 56.6283 15.2267C54.9996 16.3595 54.1893 17.4362 54.1893 18.4567C54.1893 19.0018 54.7163 19.3357 55.7624 19.4533C56.774 19.5815 58.2412 19.5307 60.1559 19.317C62.4705 19.0498 64.0674 18.8735 64.9414 18.7853C65.9689 18.6945 66.729 18.7292 67.2109 18.8762C68.1061 19.1434 68.6649 19.5681 68.8953 20.1586C66.7607 20.578 64.3826 20.9414 61.7713 21.246C59.1522 21.5585 57.0627 21.7108 55.5002 21.7108C55.4949 21.7108 55.4896 21.7108 55.4843 21.7135C55.479 21.7135 55.4737 21.7108 55.471 21.7108C52.3964 21.7108 50.4869 21.075 49.7401 19.8059C49.6342 19.6296 49.5653 19.5441 49.5388 19.5441C49.5044 19.5441 49.4488 19.7445 49.3641 20.1399C49.274 20.538 49.2449 20.7517 49.2581 20.7811C49.9043 21.6547 50.2248 22.3467 50.2248 22.8677C50.2248 22.9986 50.1797 23.1054 50.0897 23.1963C49.7534 23.5703 49.1231 24.0352 48.2015 24.5909C46.9991 25.2882 46.0219 25.6328 45.2565 25.6328C43.9986 25.6328 43.371 25.0103 43.371 23.7733C43.371 23.3993 43.4372 22.9585 43.5722 22.4482C43.702 22.0181 43.7523 21.791 43.7417 21.7803C43.657 21.7456 43.5722 21.8257 43.4822 22.0074C43.1008 22.71 42.9102 23.5489 42.9102 24.5241C42.9102 26.0362 43.6252 26.7897 45.0447 26.7897C45.9663 26.7897 47.0733 26.3595 48.3604 25.4966C49.5177 24.7138 50.193 24.0806 50.3837 23.5917C50.5743 23.1669 50.6644 22.6967 50.6644 22.1757C51.5569 22.6058 53.0743 22.8222 55.2142 22.8222C55.2142 22.8222 55.2168 22.8222 55.2194 22.8222H55.2221C56.9011 22.8222 59.5256 22.5845 63.1008 22.1089C66.0907 21.6841 67.8492 21.4063 68.3709 21.27C68.5881 21.2246 68.7973 21.1792 68.988 21.1337C69.033 21.1337 69.1574 20.92 69.3587 20.4925C69.5626 20.0624 69.6633 19.8193 69.6633 19.7632C69.658 19.317 69.4435 18.9136 69.0303 18.5449Z" fill="#E7E8EC"/>
<path d="M42.99 26.0093L42.4286 27.0299L41.2845 26.3487L40.8105 27.1982L39.6426 26.5063L40.204 25.4857L41.3507 26.167L41.8221 25.3174" fill="#E7E8EC"/>
<path d="M47.6324 15.8385C47.6324 16.0255 47.5926 16.2232 47.5105 16.4343C47.4311 16.6373 47.3649 16.7442 47.3066 16.7442C47.2775 16.7442 47.1848 16.6373 47.0206 16.4209C46.8644 16.2072 46.724 16.0977 46.5995 16.0977C46.2632 16.0977 45.7335 16.4423 45.0158 17.1476C44.2982 17.8449 43.938 18.3766 43.938 18.7399C43.938 18.9109 44.1128 19.0846 44.465 19.2609C44.7669 19.4186 45.0609 19.5094 45.3416 19.5334C46.1281 19.6082 46.6631 19.7258 46.9491 19.8861C47.2086 20.0437 47.341 20.2708 47.341 20.5781C47.341 21.1738 47.1954 21.6601 46.8908 22.0421C46.4088 22.6646 45.4528 23.3112 44.036 23.9791C42.4973 24.6924 41.1546 25.0558 40.0132 25.0558C38.5408 25.0558 37.5291 24.3985 36.9915 23.0841C36.7002 22.352 36.6658 21.4731 36.9015 20.4418C37.0365 19.8514 37.2325 19.2903 37.4973 18.7533C37.6774 18.39 37.7886 18.2216 37.8442 18.243C37.8999 18.2671 37.8734 18.4567 37.7436 18.8335C37.4417 19.6991 37.2828 20.3857 37.2828 20.896C37.2828 21.7028 37.5185 22.3707 38.0005 22.9024C38.5513 23.5142 39.3485 23.8215 40.3946 23.8215C41.2711 23.8215 42.259 23.6051 43.3607 23.1749C44.1816 22.857 44.9894 22.4536 45.7865 21.962C46.4618 21.5532 46.7981 21.3154 46.7981 21.238C46.7981 21.0269 46.4962 20.888 45.8898 20.8185C44.2267 20.6315 43.3951 20.1613 43.3951 19.4132C43.3951 18.5289 43.8294 17.5537 44.698 16.477C45.5349 15.4458 46.2499 14.9248 46.8458 14.9248C47.055 14.9248 47.2378 15.0156 47.3967 15.2027C47.5529 15.379 47.6324 15.5954 47.6324 15.8385Z" fill="#E7E8EC"/>
<path d="M70.2809 11.9863C70.2809 12.0184 70.2491 12.1199 70.175 12.2909C70.1035 12.4565 70.0478 12.5474 70.0002 12.5607C67.9822 13.242 66.3826 13.7924 65.1988 14.2172C62.9531 15.008 61.3482 15.6251 60.3789 16.0579C60.3789 15.9484 60.4186 15.8255 60.506 15.6866C60.5881 15.553 60.6676 15.4675 60.7338 15.4248C63.5065 14.2546 66.6872 13.1111 70.2809 11.9863Z" fill="#E7E8EC"/>
<path d="M53.5891 24.5967C53.6076 24.6287 53.597 24.7062 53.5467 24.8131C53.4964 24.9173 53.4593 24.9761 53.4355 24.9867C52.7389 25.2486 52.0398 25.5104 51.3406 25.7749C50.4535 26.1169 49.8099 26.4 49.4153 26.6271C49.3941 26.5817 49.3915 26.4936 49.4153 26.3707C49.4392 26.2585 49.4683 26.1917 49.5001 26.1676C50.7501 25.5986 52.1113 25.0749 53.5891 24.5967Z" fill="#E7E8EC"/>
<path d="M76.4481 24.5372C76.4481 24.8418 76.3952 24.9968 76.284 24.9968C75.9847 24.9968 75.7199 24.8952 75.4842 24.6868C75.455 24.8605 75.3809 25.0261 75.2591 25.1838C75.1161 25.3494 74.6605 25.5952 73.8925 25.9211C73.2596 26.2097 72.8835 26.3673 72.7644 26.4047C72.2532 26.5143 71.8083 26.5944 71.4349 26.6452H71.3528C71.3343 26.6372 71.3263 26.6265 71.3396 26.6158C71.3396 26.5971 71.3634 26.581 71.4137 26.5704C71.5488 26.533 71.901 26.3967 72.4757 26.1696C73.1272 25.9131 73.6012 25.7181 73.8952 25.5818C74.6129 25.2773 75.0604 25.0342 75.2405 24.8578C75.3438 24.751 75.4127 24.6628 75.4418 24.58C75.4789 24.4437 75.561 24.2968 75.6854 24.1391C75.8046 23.9815 75.9105 23.9014 75.9953 23.9014C76.1039 23.9014 76.2072 23.9682 76.3051 24.1098C76.3978 24.2487 76.4481 24.3903 76.4481 24.5372ZM76.186 24.6281C76.186 24.401 76.1065 24.2888 75.9476 24.2888C75.8126 24.2888 75.7463 24.3342 75.7463 24.425C75.7463 24.4437 75.7993 24.4811 75.9079 24.5346C76.0085 24.588 76.1039 24.6174 76.186 24.6281Z" fill="#E7E8EC"/>
<path d="M44.7431 11.4255C44.7431 11.4576 44.7192 11.519 44.6716 11.6152C44.6239 11.7087 44.5948 11.7568 44.5842 11.7568C44.4518 11.7381 44.3061 11.6927 44.1366 11.6205C43.8241 12.1121 43.1806 12.6331 42.2087 13.1781C42.1292 13.2182 41.9253 13.301 41.5969 13.4319C41.2685 13.5575 41.0964 13.619 41.0725 13.6056C41.0646 13.5869 41.2341 13.4774 41.5837 13.2743C42.7913 12.6251 43.607 12.056 44.0227 11.5725C43.6626 11.4068 43.4798 11.2091 43.4798 10.974C43.4798 10.8458 43.5566 10.6828 43.7129 10.4904C43.8638 10.2954 44.0121 10.1992 44.1525 10.1992C44.3273 10.1992 44.4173 10.3969 44.4173 10.795C44.4173 10.9473 44.3935 11.1022 44.3379 11.2545C44.608 11.3454 44.7431 11.4015 44.7431 11.4255ZM44.2002 11.2091C44.2876 10.8324 44.232 10.6427 44.0254 10.6427C43.84 10.6427 43.7447 10.7202 43.7447 10.8778C43.7447 10.99 43.8956 11.0996 44.2002 11.2091Z" fill="#E7E8EC"/>
<path d="M44.6055 13.533C44.6055 13.9338 44.5155 14.2677 44.3248 14.5482C44.1447 14.8154 43.954 14.9543 43.7527 14.9543C43.6309 14.9543 43.5329 14.9063 43.4561 14.8127C43.1542 15.12 42.8841 15.2803 42.6537 15.2803C42.3174 15.2803 42.1426 15.0799 42.1426 14.6792C42.1426 14.5322 42.1982 14.3131 42.3174 14.0112C42.4312 13.712 42.5266 13.5571 42.6034 13.5571C42.6643 13.5571 42.6934 13.6158 42.6749 13.7441C42.6431 14.0166 42.6246 14.1582 42.6246 14.1582C42.6246 14.2463 42.6908 14.2918 42.8311 14.2918C43.035 14.2918 43.2178 14.1849 43.3873 13.9658C43.5568 13.7521 43.6336 13.6372 43.6177 13.6372C43.6892 13.6372 43.7395 13.6906 43.7633 13.8028C43.7872 13.9097 43.8189 13.9631 43.8693 13.9631C44.0494 13.9631 44.195 13.8563 44.3009 13.6345C44.4069 13.4208 44.4678 13.3086 44.4863 13.3086C44.5658 13.3139 44.6055 13.3861 44.6055 13.533Z" fill="#E7E8EC"/>
<path d="M55.6722 10.4149C55.7119 10.4603 55.7119 10.5752 55.6722 10.7649C55.643 10.9492 55.606 11.0454 55.5503 11.0454C55.5503 11.0454 55.5133 10.9893 55.4312 10.8611C55.3544 10.7355 55.2723 10.6714 55.1743 10.6714C54.9916 10.6714 54.8618 11.0802 54.777 11.9057C54.7002 12.7286 54.6287 13.1347 54.5599 13.1186C54.4831 13.1186 54.401 12.9396 54.3057 12.5736C54.1997 12.1248 54.0196 11.7694 53.768 11.5156C53.7575 11.545 53.7389 11.5717 53.7098 11.6065C53.6727 11.6225 53.5641 11.5771 53.3814 11.4569C53.2066 11.342 53.1113 11.2324 53.0954 11.1416C53.0583 10.7168 53.1192 10.5031 53.294 10.5031C53.6065 10.4924 53.9455 10.8878 54.303 11.7027C54.3507 11.8736 54.4222 12.0713 54.5202 12.2904C54.5572 11.9004 54.6102 11.5076 54.6791 11.1122C54.785 10.3935 54.9492 10.0382 55.1716 10.0542C55.3438 10.0569 55.5053 10.1718 55.6722 10.4149Z" fill="#E7E8EC"/>
<path d="M62.8362 24.1424C62.8733 24.1879 62.8733 24.3027 62.8362 24.4924C62.8071 24.6768 62.77 24.773 62.7144 24.773C62.7144 24.773 62.6773 24.7169 62.5926 24.5886C62.5158 24.463 62.4337 24.3989 62.3384 24.3989C62.1556 24.3989 62.0259 24.8077 61.9411 25.6332C61.8643 26.4561 61.7902 26.8649 61.7239 26.8462C61.6471 26.8462 61.5651 26.6698 61.4671 26.3012C61.3611 25.8523 61.1837 25.497 60.9321 25.2432C60.9215 25.2726 60.903 25.2993 60.8738 25.334C60.8368 25.3527 60.7282 25.3046 60.5455 25.1844C60.3707 25.0695 60.2753 24.96 60.2594 24.8691C60.2224 24.4443 60.2833 24.2306 60.4581 24.2306C60.7706 24.2199 61.1096 24.6153 61.4671 25.4329C61.5147 25.6039 61.5889 25.8015 61.6842 26.018C61.7213 25.6279 61.7743 25.2378 61.8431 24.8398C61.9491 24.1211 62.1133 23.7657 62.3357 23.7818C62.5079 23.7871 62.672 23.902 62.8362 24.1424Z" fill="#E7E8EC"/>
<path d="M72.0763 15.967C72.0763 16.5975 71.7982 16.9154 71.2368 16.9154C70.9587 16.9154 70.8184 16.7444 70.8184 16.3891C70.8184 16.0017 70.9455 15.617 71.1997 15.2429C71.2633 15.0265 71.3162 14.917 71.356 14.917C71.3957 14.917 71.4036 14.941 71.3745 15.0025C71.3374 15.0907 71.3162 15.1735 71.3162 15.2429C71.8221 15.5475 72.0763 15.7906 72.0763 15.967ZM71.8379 16.1673C71.8379 16.1433 71.74 16.0605 71.5466 15.9162C71.356 15.7773 71.2527 15.7051 71.2394 15.7051C71.2156 15.7051 71.1759 15.7693 71.1282 15.9055C71.0832 16.0391 71.0593 16.1326 71.0593 16.186C71.0593 16.333 71.1335 16.4078 71.2792 16.4078C71.3427 16.4078 71.4487 16.3784 71.6049 16.3196C71.7612 16.2608 71.8379 16.2074 71.8379 16.1673Z" fill="#E7E8EC"/>
<path d="M106.676 22.5663C106.676 22.9056 106.641 23.2529 106.562 23.6109C106.44 24.2682 106.326 24.5968 106.236 24.5968C106.186 24.5968 106.151 24.4605 106.136 24.188C106.104 23.6109 106.08 23.2823 106.08 23.2129C105.94 21.7969 105.579 19.4111 105.002 16.0608C104.841 15.1311 104.621 13.7418 104.351 11.8903C104.216 11.7701 104.16 11.6793 104.181 11.6178C104.237 11.4522 104.332 11.2091 104.462 10.8804C104.562 10.6079 104.631 10.4717 104.653 10.4717C104.698 10.4717 104.923 10.9072 105.325 11.7861C105.775 12.7613 105.971 13.2716 105.91 13.317C105.855 13.3491 105.736 13.2823 105.564 13.0899C105.513 13.0338 105.383 12.8976 105.169 12.6811C105.428 14.0758 105.81 16.3039 106.316 19.3576C106.551 20.9526 106.676 22.024 106.676 22.5663Z" fill="#E7E8EC"/>
<path d="M90.8475 18.2242L89.6796 17.5322L89.1182 18.5528L90.2861 19.2448L90.8475 18.2242Z" fill="#E7E8EC"/>
<path d="M98.2891 24.5059L99.457 25.1979L100.018 24.1773L98.8505 23.4854L98.2891 24.5059Z" fill="#E7E8EC"/>
<path d="M103.26 17.2997C103.035 15.9238 102.799 14.5452 102.553 13.1639C102.77 13.3857 102.9 13.5273 102.945 13.5834C103.112 13.7784 103.226 13.8505 103.292 13.8212V13.7757C103.292 13.6742 103.096 13.18 102.709 12.2903C102.325 11.406 102.103 10.9651 102.047 10.9651C102.013 10.9651 101.923 11.1522 101.766 11.5208C101.66 11.804 101.592 11.9964 101.565 12.0979C101.547 12.1594 101.605 12.2556 101.721 12.3811C101.968 14.115 102.172 15.3734 102.317 16.1669C102.712 18.4458 102.942 20.0595 103.014 21.0186C103.03 21.3152 102.873 21.569 102.553 21.7774C102.275 21.9617 101.976 22.0499 101.655 22.0579C101.639 22.0526 101.623 22.0472 101.605 22.0472C101.245 22.0472 100.964 21.927 100.763 21.6946C100.593 21.4968 100.543 21.1843 100.593 20.7648C100.609 20.6286 100.577 20.5591 100.503 20.5591C100.458 20.5591 100.323 20.6286 100.111 20.7648C99.5047 21.1389 98.6732 21.4434 97.6165 21.6946C96.6287 21.9323 95.723 22.0472 94.9073 22.0472C93.1885 22.0472 92.116 21.7694 91.6817 21.2217C91.4354 20.9091 91.3665 20.6099 91.4804 20.324C91.5201 20.2225 91.491 20.177 91.4142 20.177C91.2844 20.177 91.0779 20.4148 90.7839 20.8931C90.3575 21.6064 89.8861 21.9591 89.3803 21.9591C89.3618 21.9591 89.3432 21.9644 89.3273 21.9644C88.9698 21.919 88.6997 21.7533 88.5222 21.4701C88.2813 21.0827 88.0667 20.308 87.8814 19.1458C87.6351 17.5481 87.4417 16.3566 87.3093 15.5764C86.883 12.7097 86.5122 10.6953 86.2076 9.5358C86.062 8.95872 85.9719 8.67285 85.9269 8.67285C85.9084 8.67285 85.8528 8.88391 85.7627 9.29001C85.6674 9.70411 85.6224 9.94724 85.6224 10.0194C85.6224 9.97396 85.9031 11.5796 86.4539 14.8257C87.0101 18.0798 87.2855 19.9713 87.2855 20.5163C87.2855 20.9011 87.116 21.2083 86.7797 21.422C86.062 21.8869 85.151 22.3171 84.0599 22.7151C82.7384 23.204 81.5996 23.4418 80.633 23.4418C79.7378 23.4418 79.036 23.2147 78.5249 22.7686C78.0085 22.3144 77.7543 21.7293 77.7543 21.0053C77.7543 20.7835 77.8099 20.4496 77.9105 20.0087C78.0112 19.6507 78.0244 19.4637 77.9555 19.453C77.8761 19.3969 77.7808 19.5145 77.6616 19.7923C77.3703 20.4602 77.2246 21.1014 77.2246 21.7186C77.2246 22.5922 77.4947 23.2895 78.0323 23.8159C78.5938 24.3822 79.4095 24.6654 80.4714 24.6654C81.3427 24.6654 82.455 24.417 83.8083 23.9281C85.0848 23.4418 86.0726 22.9422 86.7744 22.4212C87.1902 22.1113 87.4365 21.6171 87.5265 20.9358C87.7675 22.2556 88.276 22.9636 89.0413 23.0731C89.0599 23.0838 89.081 23.0918 89.1049 23.0918C89.1314 23.0918 89.1552 23.0865 89.1817 23.0865C89.2082 23.0865 89.232 23.0918 89.2585 23.0918C89.3035 23.0918 89.3432 23.0838 89.3829 23.0705C89.8808 22.993 90.2834 22.7098 90.58 22.2075C90.8448 21.7667 90.9852 21.5503 90.9958 21.5503C91.3321 22.6376 92.545 23.1827 94.6345 23.1827C95.5561 23.1827 96.6102 23.0117 97.7913 22.6724C98.8877 22.3598 99.6848 22.0312 100.185 21.6865C100.27 22.6831 100.651 23.1827 101.332 23.1827C101.369 23.1827 101.406 23.1773 101.438 23.1693C102.124 23.1373 102.664 22.822 103.053 22.2209C103.424 21.6304 103.594 20.9358 103.583 20.137C103.586 19.4664 103.475 18.526 103.26 17.2997Z" fill="#E7E8EC"/>
<path d="M80.7836 20.6053C81.6813 20.5706 82.2322 20.4904 82.4229 20.3622C82.6215 20.2259 82.8439 19.9828 83.0982 19.6328C83.408 19.2027 83.559 18.8393 83.559 18.5455C83.559 18.2516 83.3286 18.102 82.8678 18.102C82.407 18.102 82.1766 18.0565 82.1766 17.9657C82.1766 17.6531 82.4123 17.4608 82.8731 17.3886C82.9181 17.3726 82.9949 17.231 83.1035 16.9585C83.2147 16.686 83.265 16.5043 83.265 16.4135C83.265 16.3681 83.2332 16.3467 83.1644 16.3467C82.9234 16.3467 82.5844 16.6459 82.158 17.2363C81.7264 17.8321 81.5118 18.3184 81.5118 18.7058C81.5118 19.1012 81.9488 19.3069 82.8254 19.3176C82.7248 19.4992 82.4255 19.7076 81.9276 19.9401C81.5436 20.0924 81.1517 20.258 80.7465 20.4263C80.622 20.4717 80.5664 20.5118 80.5664 20.5412C80.5691 20.6 80.6406 20.6187 80.7836 20.6053Z" fill="#E7E8EC"/>
<path d="M84.6615 15.067C84.5688 15.4009 84.4205 15.5719 84.2166 15.5719C84.1027 15.5719 84.0179 15.5292 83.9597 15.4437C83.8405 15.2513 83.7822 15.0429 83.7822 14.8212C83.7822 14.6635 83.8087 14.4471 83.8643 14.1666C83.9252 13.8246 84.0391 13.4426 84.2033 13.0125C84.2642 12.8548 84.3172 12.7773 84.3543 12.7773C84.3675 12.7827 84.3755 12.8014 84.3755 12.8308C84.3755 12.8789 84.3569 12.9563 84.3198 13.0552C84.2536 13.2609 84.1556 13.651 84.0259 14.2227C83.9703 14.5406 83.9835 14.7838 84.0682 14.9494C84.1239 15.0643 84.206 15.1204 84.3119 15.1204C84.3728 15.1204 84.4284 15.0964 84.4734 15.0429C84.4999 15.0055 84.5396 14.9494 84.59 14.8719C84.6164 14.8105 84.6376 14.7784 84.6509 14.7784C84.7118 14.7784 84.7197 14.8719 84.6615 15.067Z" fill="#E7E8EC"/>
<path d="M97.556 20.6776C97.4633 21.0115 97.315 21.1825 97.1111 21.1825C96.9972 21.1825 96.9125 21.1398 96.8568 21.0543C96.7377 20.8619 96.6768 20.6535 96.6768 20.4318C96.6768 20.2742 96.7032 20.0577 96.7589 19.7799C96.8198 19.4352 96.9336 19.0532 97.0978 18.6257C97.1587 18.4681 97.2117 18.3906 97.2488 18.3906C97.262 18.396 97.27 18.4147 97.27 18.4441C97.27 18.4922 97.2514 18.5696 97.217 18.6685C97.1508 18.8742 97.0502 19.2643 96.9204 19.836C96.8648 20.1539 96.878 20.397 96.9628 20.5627C97.0184 20.6776 97.1005 20.7337 97.2064 20.7337C97.2673 20.7337 97.3229 20.7096 97.368 20.6562C97.3944 20.6188 97.4315 20.5627 97.4845 20.4852C97.511 20.4238 97.5322 20.3917 97.548 20.3917C97.6063 20.3917 97.6142 20.4852 97.556 20.6776Z" fill="#E7E8EC"/>
<path d="M101.912 15.916C101.912 15.9481 101.88 16.0496 101.806 16.2206C101.734 16.3862 101.679 16.4797 101.631 16.4904C99.613 17.1717 98.0135 17.7221 96.8297 18.1469C94.5839 18.9377 92.979 19.5548 92.0098 19.985C92.0098 19.8781 92.0521 19.7525 92.1369 19.6163C92.219 19.4827 92.2984 19.3945 92.3646 19.3545C95.1374 18.1869 98.318 17.0408 101.912 15.916Z" fill="#E7E8EC"/>
<path d="M84.2399 12.1521C84.2399 12.1841 84.216 12.2456 84.1684 12.3418C84.1207 12.4353 84.0916 12.4834 84.0783 12.4834C83.9459 12.4647 83.8002 12.4192 83.6308 12.3471C83.3183 12.8387 82.6747 13.3597 81.7028 13.9047C81.6233 13.9448 81.4194 14.0303 81.091 14.1585C80.7626 14.2841 80.5905 14.3455 80.5667 14.3322C80.5587 14.3135 80.7256 14.2039 81.0778 14.0009C82.2854 13.3517 83.1011 12.7826 83.5169 12.299C83.1567 12.1334 82.974 11.9357 82.974 11.7006C82.974 11.5723 83.0508 11.4094 83.207 11.217C83.358 11.0246 83.5063 10.9258 83.6467 10.9258C83.8214 10.9258 83.9115 11.1235 83.9115 11.5216C83.9115 11.6739 83.8876 11.8288 83.832 11.9811C84.1048 12.0719 84.2399 12.128 84.2399 12.1521ZM83.697 11.9357C83.7844 11.559 83.7287 11.3693 83.5222 11.3693C83.3368 11.3693 83.2441 11.4468 83.2441 11.6044C83.2415 11.7166 83.3924 11.8261 83.697 11.9357Z" fill="#E7E8EC"/>
<path d="M96.1785 11.1871C96.205 11.2164 96.205 11.3206 96.1785 11.5023C96.1626 11.5718 96.1334 11.5744 96.0884 11.5023C96.0302 11.3928 95.9507 11.3393 95.8607 11.3393C95.7283 11.3393 95.6594 11.4302 95.6594 11.6252C95.6435 11.9725 95.6276 12.384 95.6064 12.8595C95.6488 12.8595 95.7362 12.9263 95.866 13.0572C95.9957 13.1881 96.0646 13.2736 96.0725 13.3137C96.0805 13.3671 96.0725 13.4366 96.0408 13.5221C96.0116 13.6022 95.9878 13.645 95.9692 13.645C95.7839 13.6637 95.5905 13.7225 95.3893 13.8186C95.188 13.9122 95.09 14.0057 95.1006 14.0938C95.429 15.9827 95.5932 17.0166 95.5932 17.1876C95.5932 17.3159 95.5799 17.38 95.5561 17.38C95.5402 17.372 95.527 17.3372 95.5164 17.2785C95.4581 16.859 95.3548 16.2525 95.2118 15.4644C95.0688 14.7698 94.9973 14.3343 94.9973 14.1526C94.9973 13.9335 95.0609 13.7358 95.1986 13.5648C95.3098 13.4179 95.4449 13.3271 95.6064 13.295C95.5641 13.2576 95.4979 13.2336 95.4131 13.2336C95.3575 13.2336 95.3125 13.2763 95.2754 13.3618C95.2436 13.4473 95.2171 13.49 95.1986 13.49C95.1907 13.49 95.1854 13.466 95.1854 13.4125C95.1854 13.3057 95.2118 13.1961 95.2648 13.0813C95.3231 12.9343 95.3946 12.8568 95.4767 12.8568C95.4714 12.7874 95.4158 12.6485 95.3151 12.4481C95.2039 12.2103 95.1059 12.058 95.0238 12.0019C95.0079 12.0874 94.992 12.1328 94.9708 12.1328C94.9391 12.1328 94.849 12.0821 94.706 11.9752C94.563 11.871 94.4941 11.7989 94.4941 11.7561C94.4941 11.4703 94.5312 11.3233 94.616 11.3233C94.7457 11.3233 94.894 11.4115 95.0635 11.5931C95.2489 11.8015 95.4052 12.0794 95.5323 12.4187V12.4027C95.5323 12.2317 95.5349 11.9538 95.5455 11.5611C95.5773 11.1603 95.6753 10.96 95.8368 10.96C95.9401 10.9653 96.054 11.0374 96.1785 11.1871Z" fill="#E7E8EC"/>
<path d="M90.6115 14.2221C90.6115 14.8526 90.3334 15.1705 89.7746 15.1705C89.4965 15.1705 89.3535 14.9996 89.3535 14.6442C89.3535 14.2568 89.4806 13.8721 89.7349 13.4981C89.7984 13.2817 89.8514 13.1748 89.8911 13.1748C89.9308 13.1748 89.9388 13.1988 89.9097 13.2576C89.8699 13.3458 89.8514 13.4286 89.8514 13.4981C90.3572 13.8053 90.6115 14.0458 90.6115 14.2221ZM90.3731 14.4251C90.3731 14.4011 90.2751 14.3156 90.0791 14.174C89.8885 14.0378 89.7852 13.9629 89.772 13.9629C89.7481 13.9629 89.7084 14.0271 89.6581 14.1633C89.6157 14.2969 89.5892 14.3904 89.5892 14.4438C89.5892 14.5908 89.6634 14.6656 89.809 14.6656C89.8726 14.6656 89.9785 14.6362 90.1348 14.5774C90.291 14.5187 90.3731 14.4652 90.3731 14.4251Z" fill="#E7E8EC"/>
<path d="M63.2334 32.4886H107.963V32.0879H63.2334V32.4886Z" fill="#E7E8EC"/>
<path d="M-0.15332 32.4886H44.5765V32.0879H-0.15332V32.4886Z" fill="#E7E8EC"/>
<path d="M48.0406 31.3152C47.94 30.9465 47.7625 30.5324 47.27 30.5324C46.8356 30.5324 46.6291 30.8423 46.6291 31.1549C46.6291 31.561 46.8992 31.756 47.3706 31.9858C47.8632 32.2289 48.3769 32.5014 48.3769 33.1319C48.3769 33.7464 47.8579 34.238 47.0634 34.238C46.8224 34.238 46.6291 34.1953 46.4808 34.1445C46.3351 34.0964 46.253 34.051 46.1921 34.0243C46.1524 33.9094 46.0676 33.3884 46.0332 33.1106L46.208 33.0598C46.306 33.4258 46.5893 34.0243 47.1852 34.0243C47.6089 34.0243 47.8579 33.7625 47.8579 33.3483C47.8579 32.9342 47.5454 32.7365 47.1031 32.5014C46.7006 32.2957 46.1444 32.0098 46.1444 31.3793C46.1444 30.8076 46.6026 30.332 47.3627 30.332C47.6381 30.332 47.8976 30.3988 48.1174 30.471C48.1413 30.674 48.1677 30.9091 48.2181 31.2858" fill="#E7E8EC"/>
<path d="M50.532 31.1206H50.5187C50.3334 31.5935 50.1506 32.0851 49.9758 32.5473H51.0405L50.532 31.1206ZM51.104 34.1476V33.982C51.4642 33.9312 51.5145 33.8805 51.4377 33.648C51.3556 33.4209 51.2523 33.1324 51.1252 32.8038H49.8779C49.7799 33.0683 49.7031 33.29 49.6289 33.5171C49.5045 33.8671 49.5521 33.9339 49.9917 33.9793V34.145H48.71V33.9793C49.086 33.9205 49.1681 33.8805 49.3747 33.3702L50.5955 30.3779L50.7968 30.3271C51.1702 31.3424 51.5436 32.363 51.9276 33.3702C52.113 33.8751 52.1951 33.9392 52.5738 33.9793V34.145" fill="#E7E8EC"/>
<path d="M56.1809 34.1474V33.9817C56.6523 33.9336 56.6761 33.8962 56.6682 33.2924L56.6496 30.9894H56.6258L55.201 34.11H55.0845L53.7736 31.0669H53.7577L53.6729 32.6779C53.6491 33.1535 53.6491 33.3966 53.6623 33.6237C53.6729 33.8962 53.8106 33.9336 54.1946 33.9737V34.1447H52.8281V33.9737C53.1645 33.9416 53.2757 33.8588 53.3234 33.6317C53.3551 33.4314 53.3896 33.1829 53.4372 32.5684L53.522 31.4142C53.5723 30.6689 53.5379 30.6368 53.0162 30.586V30.415H54.0066L55.3255 33.2337L56.6629 30.415H57.6825V30.586C57.174 30.6288 57.1396 30.6475 57.1581 31.2165L57.2111 33.2871C57.2296 33.8909 57.2455 33.9309 57.7513 33.9764V34.142" fill="#E7E8EC"/>
<path d="M59.8621 31.1206H59.8515C59.6661 31.5935 59.4834 32.0851 59.3086 32.5473H60.3732L59.8621 31.1206ZM60.4341 34.1476V33.982C60.7943 33.9312 60.8446 33.8805 60.7678 33.648C60.6857 33.4209 60.5824 33.1324 60.4553 32.8038H59.2079C59.1099 33.0683 59.0332 33.29 58.959 33.5171C58.8345 33.8671 58.8822 33.9339 59.3218 33.9793V34.145H58.04V33.9793C58.4161 33.9205 58.4982 33.8805 58.7048 33.3702L59.9256 30.3779L60.1295 30.3271C60.503 31.3424 60.8764 32.363 61.2604 33.3702C61.4457 33.8751 61.5278 33.9392 61.9065 33.9793V34.145" fill="#E7E8EC"/>
<path d="M4.61079 38.9538C4.36979 38.0695 3.93812 37.0703 2.76492 37.0703C1.71884 37.0703 1.22626 37.813 1.22626 38.5664C1.22626 39.5362 1.8698 40.0065 3.00857 40.5595C4.19236 41.1419 5.42382 41.7911 5.42382 43.3086C5.42382 44.7861 4.17382 45.9616 2.27234 45.9616C1.69501 45.9616 1.22626 45.8574 0.874037 45.7372C0.519165 45.625 0.323191 45.5101 0.182831 45.446C0.0901403 45.1734 -0.116426 43.9231 -0.201172 43.2552L0.219907 43.1323C0.452957 44.0059 1.13357 45.446 2.56101 45.446C3.57795 45.446 4.17382 44.8154 4.17382 43.8296C4.17382 42.8331 3.427 42.3602 2.36503 41.7965C1.39575 41.3076 0.0610112 40.6209 0.0610112 39.1061C0.0610112 37.7329 1.1627 36.5947 2.97943 36.5947C3.64151 36.5947 4.26651 36.755 4.78822 36.9234C4.84384 37.4123 4.91004 37.9786 5.03187 38.879" fill="#E7E8EC"/>
<path d="M9.74079 42.4536C9.46007 42.5952 8.90128 42.8597 8.61261 42.9906C8.07236 43.2257 7.7731 43.4982 7.7731 44.0058C7.7731 44.7299 8.31336 45.0505 8.72384 45.0505C9.04958 45.0505 9.4998 44.8421 9.74079 44.599V42.4536ZM10.8319 45.9081C10.5697 45.9081 10.2731 45.7852 10.1221 45.6356C9.93412 45.4566 9.85202 45.2669 9.78581 45.0532C9.22702 45.4112 8.57289 45.9081 8.18094 45.9081C7.14546 45.9081 6.46484 45.0799 6.46484 44.2142C6.46484 43.5276 6.83826 43.1135 7.59302 42.8677C8.47755 42.5872 9.43888 42.2292 9.73814 41.9754V41.7296C9.73814 40.7411 9.29058 40.2147 8.6285 40.2147C8.38751 40.2147 8.18094 40.3083 8.04058 40.4579C7.86314 40.6369 7.74397 40.9468 7.6195 41.3903C7.53476 41.6334 7.38645 41.7296 7.17194 41.7296C6.90181 41.7296 6.539 41.4491 6.539 41.1178C6.539 40.9121 6.71643 40.7411 6.98656 40.5541C7.38645 40.2628 8.32925 39.7365 9.10255 39.5869C9.54217 39.5869 9.94206 39.6911 10.2599 39.9342C10.7736 40.367 10.9219 40.9415 10.9219 41.6762V44.1501C10.9219 44.7619 11.1629 44.9703 11.4172 44.9703C11.5761 44.9703 11.7614 44.9035 11.9124 44.818L12.0528 45.1867" fill="#E7E8EC"/>
<path d="M19.1788 45.4198C18.861 45.4572 18.4691 45.5427 18.0877 45.6362C17.7064 45.7404 17.3329 45.8339 17.0443 45.9087L16.9516 45.8339V44.856C16.6338 45.0911 16.3637 45.3262 15.9717 45.5613C15.5612 45.7884 15.262 45.9087 14.87 45.9087C13.9008 45.9087 13.1169 45.3262 13.1169 43.8488V41.2226C13.1169 40.4692 13.0056 40.405 12.6508 40.3195L12.2773 40.226V39.8974C12.5554 39.8867 12.9288 39.8413 13.3208 39.8039C13.7127 39.7558 14.1232 39.6917 14.3669 39.6543C14.3298 40.0764 14.3298 40.7363 14.3298 41.6474V43.5015C14.3298 44.6503 14.9071 45.0083 15.5242 45.0083C16.0088 45.0083 16.504 44.8186 16.9516 44.3965V41.2252C16.9516 40.4718 16.8298 40.389 16.3822 40.3142L15.887 40.2287V39.9001C16.2789 39.8894 16.7715 39.844 17.1926 39.7879C17.6031 39.7585 17.9394 39.6944 18.1513 39.657V44.1908C18.1513 44.9068 18.2652 45.0003 18.8054 45.0377L19.1788 45.0564" fill="#E7E8EC"/>
<path d="M24.6668 40.8266C24.3305 40.3457 23.7903 40.1106 23.2579 40.1106C22.67 40.1106 21.5127 40.6075 21.5127 42.6032C21.5127 44.249 22.5482 45.0024 23.4063 45.0024C23.8644 45.0024 24.3305 44.794 24.6642 44.5696V40.8266H24.6668ZM26.9232 45.3898C26.6266 45.4459 25.5434 45.6249 24.6668 45.9081V45.0237L23.8459 45.5127C23.295 45.8333 22.9322 45.9081 22.7813 45.9081C21.624 45.9081 20.1436 44.9115 20.1436 42.9826C20.1436 41.0724 21.8411 39.5869 23.7717 39.5869C23.9677 39.5869 24.3305 39.6243 24.6668 39.7365V37.7996C24.6668 36.9045 24.5742 36.8671 23.5943 36.803V36.445C24.3702 36.3515 25.321 36.1458 25.8692 35.9668V44.1234C25.8692 44.8768 25.9725 44.9436 26.5313 44.9997L26.9232 45.0371" fill="#E7E8EC"/>
<path d="M28.1804 37.6745C28.1804 37.2336 28.5353 36.9023 28.9458 36.9023C29.3563 36.9023 29.6741 37.231 29.6741 37.6745C29.6741 38.0699 29.3563 38.4198 28.9272 38.4198C28.5326 38.4198 28.1804 38.0699 28.1804 37.6745ZM27.4521 45.7482V45.3795C28.3181 45.294 28.4214 45.2112 28.4214 44.2494V41.4842C28.4214 40.6186 28.3738 40.5518 27.5554 40.4102V40.0816C28.3022 39.9614 29.0014 39.8011 29.6264 39.5553V44.2494C29.6264 45.2005 29.7191 45.2753 30.6063 45.3795V45.7482" fill="#E7E8EC"/>
<path d="M41.7611 43.3861C41.5757 44.0433 41.1917 45.128 40.9507 45.5689C40.5402 45.6624 39.3087 45.9643 38.2732 45.9643C34.6742 45.9643 33.0693 43.5651 33.0693 41.393C33.0693 38.4943 35.3919 36.5947 38.6281 36.5947C39.8225 36.5947 40.8289 36.9234 41.2208 36.9901C41.3347 37.7729 41.4353 38.3634 41.5201 39.1462L41.099 39.2397C40.7176 37.7168 39.7854 37.113 38.2626 37.113C35.8845 37.113 34.6159 39.05 34.6159 41.1018C34.6159 43.6987 36.1917 45.4299 38.3845 45.4299C39.8304 45.4299 40.6223 44.6498 41.3585 43.2285" fill="#E7E8EC"/>
<path d="M45.4664 40.1033C44.8705 40.1033 44.272 40.6403 44.076 41.7864C44.8122 41.7864 45.5485 41.7864 46.3218 41.757C46.5654 41.7463 46.6475 41.6715 46.6475 41.4952C46.6475 40.7712 46.2 40.1033 45.4717 40.1033H45.4664ZM47.871 44.5249C46.9759 45.663 45.9775 45.9088 45.5299 45.9088C43.8218 45.9088 42.8154 44.5249 42.8154 42.9913C42.8154 42.0803 43.1412 41.2494 43.7 40.6403C44.2958 39.983 45.0532 39.585 45.7895 39.585H45.8001C46.9839 39.585 47.9267 40.6109 47.9267 41.7036C47.9267 41.9681 47.8525 42.091 47.6009 42.1471C47.3493 42.1845 45.6147 42.3261 44.0098 42.3822C44.0389 44.1615 45.0744 44.9123 46.0331 44.9123C46.6025 44.9123 47.1348 44.6959 47.638 44.2256" fill="#E7E8EC"/>
<path d="M53.0028 45.748V45.3793C53.7947 45.2938 53.89 45.1816 53.89 44.2118V41.9729C53.89 41.0138 53.506 40.4394 52.6586 40.4394C52.1368 40.4394 51.6231 40.768 51.2047 41.118V44.2973C51.2047 45.2377 51.2788 45.2938 52.0812 45.3793V45.748H49.0039V45.3793C49.9282 45.2671 50.0023 45.2003 50.0023 44.2786V41.5134C50.0023 40.6184 49.9096 40.565 49.1813 40.4314V40.0841C49.8434 39.9799 50.5611 39.8036 51.2047 39.5391V40.6478C51.4827 40.4421 51.782 40.2257 52.1368 39.9906C52.5288 39.7368 52.8757 39.5872 53.2862 39.5872C54.3853 39.5872 55.0844 40.3673 55.0844 41.7325V44.2973C55.0844 45.2377 55.1692 45.2751 55.9716 45.3793V45.748" fill="#E7E8EC"/>
<path d="M59.5655 45.7183C59.3139 45.8599 59.0994 45.9053 58.9776 45.9053C58.056 45.9053 57.5422 45.379 57.5422 44.2676V40.3162H56.5994L56.5332 40.1559L56.9172 39.7418H57.5422V38.7453L58.5592 37.7861L58.7445 37.8235V39.7418H60.2938C60.4341 39.8914 60.3865 40.1933 60.2011 40.3162H58.7445V43.7867C58.7445 44.8981 59.2212 45.0851 59.5655 45.0851C59.8912 45.0851 60.2011 44.9515 60.405 44.85L60.5268 45.2267" fill="#E7E8EC"/>
<path d="M64.0336 41.0729C64.4918 40.3194 65.0612 39.5874 65.702 39.5874C66.2052 39.5874 66.5416 39.9534 66.5416 40.2927C66.5416 40.6133 66.3562 40.8938 66.0569 41.0354C65.8901 41.1022 65.7683 41.0729 65.6835 40.9981C65.469 40.8004 65.3101 40.7175 65.077 40.7175C64.7222 40.7175 64.3037 41.1209 64.0045 41.8556V44.3109C64.0045 45.2139 64.0707 45.2994 65.1512 45.3849V45.7536H61.8408V45.3849C62.6803 45.2994 62.8022 45.2166 62.8022 44.3109V41.4602C62.8022 40.5839 62.728 40.5278 61.9521 40.4156V40.1057C62.6433 39.9935 63.2947 39.8332 64.0045 39.542V41.0755" fill="#E7E8EC"/>
<path d="M70.787 42.4536C70.5062 42.5952 69.9475 42.8597 69.6588 42.9906C69.1185 43.2257 68.8193 43.4982 68.8193 44.0058C68.8193 44.7299 69.3595 45.0505 69.77 45.0505C70.0958 45.0505 70.546 44.8421 70.787 44.599V42.4536ZM71.8781 45.9081C71.6159 45.9081 71.3193 45.7852 71.1683 45.6356C70.9803 45.4566 70.8982 45.2669 70.832 45.0532C70.2732 45.4112 69.6191 45.9081 69.2298 45.9081C68.1943 45.9081 67.5137 45.0799 67.5137 44.2142C67.5137 43.5276 67.8871 43.1135 68.6418 42.8677C69.529 42.5872 70.4877 42.2292 70.787 41.9754V41.7296C70.787 40.7411 70.3394 40.2147 69.6773 40.2147C69.4363 40.2147 69.2298 40.3083 69.0894 40.4579C68.912 40.6369 68.7928 40.9468 68.6683 41.3903C68.5836 41.6334 68.4353 41.7296 68.2208 41.7296C67.9506 41.7296 67.5878 41.4491 67.5878 41.1178C67.5878 40.9121 67.7653 40.7411 68.0354 40.5541C68.4379 40.2628 69.3781 39.7365 70.154 39.5869C70.5936 39.5869 70.9935 39.6911 71.3113 39.9342C71.8251 40.367 71.9734 40.9415 71.9734 41.6762V44.1501C71.9734 44.7619 72.2144 44.9703 72.4686 44.9703C72.6275 44.9703 72.8129 44.9035 72.9639 44.818L73.1042 45.1867" fill="#E7E8EC"/>
<path d="M73.2305 45.7482V45.3795C74.0965 45.2753 74.2183 45.2005 74.2183 44.2788V37.8241C74.2183 36.8917 74.1256 36.8649 73.2675 36.7794V36.4402C74.0144 36.3547 74.9095 36.1195 75.4127 35.9619V44.2788C75.4127 45.2112 75.5345 45.294 76.4402 45.3795V45.7482" fill="#E7E8EC"/>
<path d="M81.5674 43.9793C81.5674 45.0052 81.8376 45.267 82.7142 45.259C83.8053 45.2403 84.7957 44.6766 84.7957 43.2553C84.7957 41.8713 83.845 41.2408 82.1474 41.2408H81.5701V43.9793H81.5674ZM82.1739 40.7626C83.6861 40.7626 84.319 40.1695 84.319 39.0314C84.319 38.0428 83.7682 37.2627 82.4996 37.2627C82.1633 37.2627 81.8482 37.3375 81.7263 37.431C81.6045 37.5165 81.5674 37.6742 81.5674 38.099V40.7626H82.1739ZM83.7788 40.9389C85.2062 41.126 86.2973 41.7297 86.2973 43.111C86.2973 44.0327 85.7941 44.7487 84.9732 45.2002C84.2555 45.5876 83.3047 45.7453 82.1924 45.7453H78.9854V45.3499C80.1797 45.2644 80.2724 45.1709 80.2724 44.014V38.5478C80.2724 37.3723 80.2062 37.2868 79.1072 37.212V36.7979H82.8016C83.8662 36.7979 84.47 36.9581 84.9387 37.2787C85.4234 37.6074 85.7226 38.2085 85.7226 38.8497C85.7226 40.1588 84.5944 40.6931 83.7841 40.8908" fill="#E7E8EC"/>
<path d="M90.7574 42.4536C90.4767 42.5952 89.9179 42.8597 89.6292 42.9906C89.089 43.2257 88.7897 43.4982 88.7897 44.0058C88.7897 44.7299 89.33 45.0505 89.7405 45.0505C90.0662 45.0505 90.5164 44.8421 90.7574 44.599V42.4536ZM91.8485 45.9081C91.5863 45.9081 91.2897 45.7852 91.1387 45.6356C90.9534 45.4566 90.8686 45.2669 90.8024 45.0532C90.2436 45.4112 89.5895 45.9081 89.1975 45.9081C88.1621 45.9081 87.4814 45.0799 87.4814 44.2142C87.4814 43.5276 87.8549 43.1135 88.6096 42.8677C89.4968 42.5872 90.4555 42.2292 90.7547 41.9754V41.7296C90.7547 40.7411 90.3072 40.2147 89.6451 40.2147C89.4041 40.2147 89.1975 40.3083 89.0572 40.4579C88.8798 40.6369 88.7606 40.9468 88.6361 41.3903C88.5514 41.6334 88.403 41.7296 88.1885 41.7296C87.9184 41.7296 87.5556 41.4491 87.5556 41.1178C87.5556 40.9121 87.733 40.7411 88.0032 40.5541C88.4057 40.2628 89.3459 39.7365 90.1218 39.5869C90.5614 39.5869 90.9613 39.6911 91.2791 39.9342C91.7902 40.367 91.9412 40.9415 91.9412 41.6762V44.1501C91.9412 44.7619 92.1822 44.9703 92.4364 44.9703C92.5953 44.9703 92.7807 44.9035 92.929 44.818L93.0694 45.1867" fill="#E7E8EC"/>
<path d="M97.4362 45.748V45.3793C98.228 45.2938 98.3207 45.1816 98.3207 44.2118V41.9729C98.3207 41.0138 97.9367 40.4394 97.0892 40.4394C96.5675 40.4394 96.0537 40.768 95.6353 41.118V44.2973C95.6353 45.2377 95.7095 45.2938 96.5119 45.3793V45.748H93.4346V45.3793C94.3562 45.2671 94.433 45.2003 94.433 44.2786V41.5134C94.433 40.6184 94.3403 40.565 93.612 40.4314V40.0841C94.2741 39.9799 94.9918 39.8036 95.6353 39.5391V40.6478C95.9134 40.4421 96.2126 40.2257 96.5675 39.9906C96.9595 39.7368 97.3037 39.5872 97.7142 39.5872C98.8159 39.5872 99.5151 40.3673 99.5151 41.7325V44.2973C99.5151 45.2377 99.5998 45.2751 100.4 45.3793V45.748" fill="#E7E8EC"/>
<path d="M105.995 45.7771C105.362 45.0798 104.494 43.9417 103.768 43.0681C103.599 42.8624 103.487 42.7876 103.366 42.7876C103.31 42.7769 103.244 42.7876 103.162 42.8063V44.3024C103.162 45.2161 103.283 45.2802 104.168 45.3844V45.7531H100.961V45.3844C101.883 45.2802 101.978 45.1867 101.978 44.3024V37.8289C101.978 36.9339 101.893 36.8591 101.056 36.7736V36.445C101.708 36.3782 102.55 36.1538 103.164 35.9668V42.4483C103.575 42.3628 103.797 42.1757 104.022 41.97C104.322 41.6788 104.74 41.1231 104.973 40.7651C105.251 40.351 105.196 40.2388 104.563 40.164V39.7873L107.473 39.6644V40.0224C106.53 40.1747 106.178 40.3243 105.646 40.8212C105.28 41.1685 105.05 41.433 104.481 42.0929C104.769 42.515 106.205 44.1635 106.644 44.6337C107.121 45.1333 107.513 45.3577 108.016 45.3871V45.7558" fill="#E7E8EC"/>
<path d="M136.067 36.8921H135.575C135.591 36.2535 136.067 36.2829 136.067 36.2829V36.8921ZM137.045 33.4082C136.592 33.7555 136.139 34.1028 135.644 34.3834C135.76 34.517 135.885 34.6532 136.006 34.7868C136.006 34.9391 136.006 35.0967 136.012 35.2517C135.612 35.4013 135.133 35.5001 134.899 35.8982C134.579 36.4432 134.693 37.1004 134.661 37.7016C135.458 37.7042 136.253 37.7069 137.05 37.7016C137.039 36.2696 137.021 34.8375 137.045 33.4082Z" fill="#E7E8EC"/>
<path d="M148.471 36.9927C148.225 36.9927 148.026 36.7923 148.026 36.5438C148.026 36.2954 148.225 36.095 148.471 36.095C148.718 36.095 148.916 36.2954 148.916 36.5438C148.916 36.7923 148.718 36.9927 148.471 36.9927ZM149.793 36.2045C149.544 35.7317 149.162 35.1973 148.572 35.208C148.122 35.1706 147.754 35.4992 147.489 35.8278C147.147 36.3862 147.07 37.0648 147.155 37.7033C147.613 37.8129 148.119 37.6873 148.598 37.7595C148.429 38.5342 147.55 38.6464 146.896 38.561C146.906 38.6304 146.925 38.7693 146.933 38.8388C147.29 38.9857 147.658 39.1166 148.045 39.1701C149.435 39.1728 150.452 37.4362 149.793 36.2045Z" fill="#E7E8EC"/>
<path d="M143.514 34.2461H142.513L144.746 36.704H142.754V36.6827C142.757 36.5918 142.746 36.5037 142.731 36.4182C142.733 36.4422 142.736 36.4663 142.736 36.4903L142.723 36.3941C142.725 36.4021 142.728 36.4101 142.731 36.4182C142.725 36.3834 142.725 36.3514 142.72 36.3193C142.638 35.7369 142.151 35.2907 141.555 35.28C141.549 35.2774 141.541 35.2774 141.534 35.2774H139.034C138.901 35.1545 138.766 35.0289 138.634 34.9113C138.356 35.4109 138.011 35.8705 137.667 36.3246C137.889 36.322 138.181 36.3193 138.509 36.3166C138.681 36.3166 138.859 36.314 139.052 36.314H141.565V36.704H137.667V37.6979H138.39C140.562 37.7112 143.409 37.6979 145.654 37.6979L145.959 38.0372H146.952L143.941 34.4411C143.832 34.3182 143.676 34.2461 143.514 34.2461Z" fill="#E7E8EC"/>
<path d="M148.591 23.4212H147.82V22.9109L148.032 22.6438H148.379L148.591 22.9109V23.4212ZM149.568 22.6331C149.499 22.422 149.327 22.2751 149.221 22.0881C149.335 21.8209 149.632 21.6285 149.597 21.3053C149.597 21.1396 149.595 20.9767 149.592 20.811C149.597 20.2286 149.587 19.6462 149.592 19.0637C149.592 18.9034 149.592 18.7431 149.597 18.5855C149.64 18.5615 149.703 18.5321 149.767 18.4973C149.807 18.476 149.846 18.4573 149.886 18.4359C149.897 18.4306 149.905 18.4252 149.913 18.4225C149.942 18.4092 149.968 18.3932 149.989 18.3851C149.852 18.2783 149.719 18.1607 149.597 18.0405C149.489 17.9363 149.383 17.8241 149.28 17.7119C149.206 17.6317 149.134 17.5516 149.06 17.4714C149.007 17.41 148.951 17.3512 148.896 17.2924C148.79 17.1776 148.681 17.0627 148.57 16.9531C148.565 17.3966 148.562 17.8401 148.559 18.2863C148.559 18.5454 148.562 18.8046 148.562 19.0637C148.562 19.4111 148.565 19.7584 148.562 20.1057C148.554 20.3435 148.573 20.6106 148.562 20.8698C148.554 21.0755 148.53 21.2759 148.459 21.4549C148.427 21.4576 148.387 21.4576 148.345 21.4549H148.34C148.297 21.4549 148.249 21.4522 148.207 21.4522V21.4549C148.083 21.4549 147.979 21.4549 147.956 21.4549C147.884 21.2732 147.86 21.0728 147.852 20.8698C147.842 20.6106 147.86 20.3461 147.852 20.1057C147.852 19.7584 147.852 19.4111 147.852 19.0637C147.852 18.8046 147.852 18.5428 147.855 18.2863C147.852 17.8428 147.847 17.3966 147.844 16.9531C147.73 17.0627 147.624 17.1776 147.519 17.2924C147.463 17.3512 147.41 17.41 147.354 17.4714C147.28 17.5516 147.209 17.6317 147.135 17.7119C147.031 17.8241 146.925 17.9336 146.817 18.0405C146.692 18.1607 146.563 18.2783 146.425 18.3851C146.446 18.3958 146.472 18.4092 146.502 18.4225C146.51 18.4279 146.52 18.4332 146.528 18.4359C146.568 18.4546 146.608 18.476 146.647 18.4973C146.711 18.5294 146.774 18.5615 146.817 18.5855C146.822 18.7431 146.822 18.9034 146.822 19.0637C146.827 19.6462 146.814 20.2286 146.822 20.811C146.822 20.974 146.819 21.1396 146.817 21.3053C146.782 21.6285 147.076 21.8209 147.193 22.0881C147.084 22.2751 146.915 22.4247 146.846 22.6331C146.798 23.2075 146.849 23.7819 146.817 24.3563H149.597C149.566 23.7819 149.613 23.2048 149.568 22.6331Z" fill="#E7E8EC"/>
<path d="M145.119 19.1783C145.071 18.815 145.41 18.6119 145.606 18.3661C145.24 18.1711 144.867 17.9493 144.65 17.5833C144.504 17.3295 144.314 17.1078 144.078 16.9395C144.088 19.4107 144.057 21.8847 144.094 24.356H145.127C145.127 22.6301 145.113 20.9042 145.119 19.1783Z" fill="#E7E8EC"/>
<path d="M135.59 23.3516C135.593 23.3462 135.596 23.3409 135.596 23.3356C135.651 22.7879 136.08 22.8146 136.08 22.8146V23.4237H135.588C135.588 23.3997 135.59 23.3756 135.593 23.3516H135.59ZM143.13 24.3561C143.167 22.6142 143.109 20.6505 143.12 18.9326C143.072 18.6067 143.342 18.4143 143.541 18.214C142.931 17.9121 142.64 17.2602 142.103 16.8701C142.113 19.0128 142.116 21.1555 142.097 23.2981C140.408 23.2875 138.721 23.2955 137.034 23.3222C137.058 22.2028 137.02 21.0833 137.047 19.9639C136.599 20.3299 136.107 20.6238 135.62 20.9284C135.755 21.062 135.892 21.1929 136.035 21.3238C136.027 21.4974 136.017 21.6738 136.001 21.8474C135.633 22.0184 135.188 22.1119 134.939 22.4646C134.595 22.9375 134.674 23.7443 134.677 24.3561" fill="#E7E8EC"/>
<path d="M146.703 31.6979H145.932V31.1876L146.144 30.9204H146.491L146.703 31.1876V31.6979ZM147.68 30.9097C147.611 30.7013 147.439 30.5517 147.333 30.3647C147.447 30.0975 147.744 29.9052 147.707 29.5819C147.707 29.4163 147.704 29.2533 147.701 29.0876C147.709 28.5052 147.696 27.9228 147.701 27.3404C147.701 27.1801 147.704 27.0198 147.707 26.8621C147.749 26.8408 147.812 26.8087 147.876 26.7766C147.918 26.7553 147.958 26.7339 147.995 26.7152C148.006 26.7099 148.014 26.7045 148.024 26.7018C148.053 26.6885 148.08 26.6724 148.101 26.6644C147.961 26.5576 147.831 26.44 147.707 26.3198C147.598 26.2156 147.492 26.1034 147.389 25.9912C147.315 25.911 147.24 25.8309 147.169 25.7507C147.113 25.6919 147.06 25.6305 147.005 25.5717C146.899 25.4568 146.79 25.342 146.679 25.2324C146.674 25.6759 146.671 26.1194 146.668 26.5629C146.668 26.8221 146.671 27.0839 146.671 27.3404C146.671 27.6877 146.671 28.0377 146.671 28.385C146.663 28.6228 146.682 28.8899 146.671 29.1464C146.663 29.3521 146.639 29.5525 146.568 29.7342C146.536 29.7342 146.496 29.7342 146.457 29.7342H146.451C146.409 29.7342 146.361 29.7315 146.319 29.7315V29.7342C146.194 29.7342 146.091 29.7342 146.067 29.7342C145.996 29.5525 145.972 29.3521 145.964 29.1464C145.953 28.8899 145.972 28.6228 145.964 28.385C145.964 28.0377 145.964 27.6877 145.964 27.3404C145.964 27.0812 145.964 26.8221 145.967 26.5629C145.961 26.1194 145.959 25.6759 145.956 25.2324C145.842 25.342 145.736 25.4568 145.628 25.5717C145.572 25.6305 145.519 25.6919 145.463 25.7507C145.392 25.8309 145.318 25.911 145.244 25.9912C145.14 26.1034 145.034 26.2129 144.926 26.3198C144.801 26.44 144.672 26.5576 144.531 26.6644C144.552 26.6751 144.579 26.6885 144.608 26.7018C144.619 26.7072 144.627 26.7125 144.637 26.7152C144.674 26.7339 144.717 26.7553 144.756 26.7766C144.823 26.8087 144.883 26.8408 144.928 26.8621C144.934 27.0224 144.934 27.1827 144.934 27.3404C144.939 27.9228 144.926 28.5052 144.934 29.0876C144.934 29.2533 144.931 29.4163 144.931 29.5819C144.894 29.9052 145.191 30.0975 145.305 30.3647C145.199 30.5517 145.026 30.7013 144.958 30.9097C144.913 31.4841 144.96 32.0612 144.928 32.6356H147.712C147.677 32.0612 147.725 31.4841 147.68 30.9097Z" fill="#E7E8EC"/>
<path d="M143.207 27.426C143.172 27.1268 143.437 26.9612 143.631 26.7955C143.654 26.7528 143.699 26.6673 143.723 26.6245C142.99 26.4268 142.778 25.612 142.166 25.2646C142.179 27.7226 142.251 30.1778 142.198 32.6358H143.228C143.244 30.8992 143.247 29.1626 143.207 27.426Z" fill="#E7E8EC"/>
<path d="M149.486 27.4547C149.439 27.0913 149.778 26.8883 149.974 26.6425C149.608 26.4475 149.235 26.2257 149.017 25.8597C148.872 25.6059 148.684 25.3841 148.445 25.2158C148.456 27.6871 148.424 30.1611 148.464 32.6324H149.497C149.497 30.9065 149.481 29.1806 149.486 27.4547Z" fill="#E7E8EC"/>
<path d="M136.094 31.7695H135.601C135.617 31.131 136.094 31.1631 136.094 31.1631V31.7695ZM140.81 25.8625C140.66 25.5953 140.482 25.3469 140.254 25.1465C140.231 25.3816 140.217 25.6194 140.225 25.8571C140.273 27.7888 140.196 29.7177 140.238 31.6493C139.799 31.6493 139.357 31.6627 138.92 31.66C138.933 30.212 138.906 28.7639 138.92 27.3132C138.872 26.9979 139.161 26.8109 139.335 26.5945C138.75 26.2472 138.385 25.6648 137.889 25.2106C137.932 27.3586 137.921 29.5093 137.889 31.6547C137.611 31.6573 137.336 31.6627 137.06 31.6653C137.071 30.5379 137.071 29.4131 137.055 28.2857C136.608 28.6384 136.157 28.983 135.662 29.2635C135.98 29.4826 136.086 29.8192 136.049 30.1959C135.649 30.3429 135.185 30.4524 134.937 30.8345C134.595 31.3688 134.704 32.0287 134.693 32.6298H141.136C141.168 32.6298 141.202 32.6298 141.234 32.6298C141.202 31.2619 141.155 29.8914 141.218 28.5181C141.242 28.0399 141.12 27.5537 141.255 27.0834C141.356 26.8777 141.544 26.7388 141.698 26.5732C141.38 26.3728 140.999 26.2098 140.81 25.8625Z" fill="#E7E8EC"/>
<path d="M120.617 18.0826C121.616 15.7583 122.934 13.5568 124.619 11.668C124.921 11.7829 125.125 12.0527 125.352 12.2691C125.003 12.7767 124.502 13.1614 124.222 13.7198C123.583 14.4866 123.141 15.3896 122.601 16.2258C122.336 16.7281 122.092 17.2437 121.854 17.762C122.166 17.9197 122.696 18.1468 122.895 17.7113C123.559 16.2846 124.402 14.9488 125.387 13.7278C125.58 13.4473 125.76 13.1374 126.062 12.9557C126.181 13.5007 126.38 14.0271 126.653 14.516C126.364 14.556 126.001 14.4144 125.771 14.6442C124.825 15.793 124.171 17.1342 123.464 18.438C123.303 18.8227 122.858 18.9696 122.474 18.8815C121.777 18.8254 121.25 18.3231 120.617 18.0826Z" fill="#E7E8EC"/>
<path d="M133.734 5.21885C134.2 4.99443 134.698 4.84749 135.182 4.67383C135.662 5.48334 135.169 6.35163 134.862 7.11573C135.614 7.78097 136.705 8.13631 137.068 9.16757C137.433 10.092 136.618 10.8507 136.393 11.6923C135.211 10.7385 133.927 9.93167 132.706 9.03132C132.436 8.79354 132.147 9.19429 131.872 9.24772C131.631 9.10345 131.435 8.89773 131.25 8.69468C131.212 8.71339 131.138 8.75079 131.101 8.77216C131.62 8.45691 132.092 8.04814 132.669 7.83441C133.228 8.02677 133.551 8.58782 134.073 8.85498C134.759 9.24238 135.325 10.0118 136.181 9.98777C136.117 9.63511 136.04 9.26108 135.786 8.99124C135.124 8.37943 134.34 7.92792 133.572 7.47106C133.731 7.01154 134.099 6.6375 134.12 6.12187C133.14 6.61078 132.092 6.9768 131.191 7.60999C130.37 8.03478 129.669 8.63858 128.89 9.13284C128.585 9.34925 128.347 9.6458 128.045 9.86487C127.431 10.2897 126.98 10.9068 126.377 11.3396C126.265 11.0297 125.892 10.6958 126.027 10.3671C127.616 8.83094 129.367 7.43633 131.318 6.39438C132.063 5.89211 132.934 5.63029 133.734 5.21885Z" fill="#E7E8EC"/>
<path d="M132.455 42.6918C132.738 42.3658 132.804 41.8181 133.22 41.6338C133.414 42.3044 133.498 43.0044 133.715 43.6696C133.456 43.7658 133.154 43.7898 132.934 43.9661C132.121 45.286 131.29 46.5951 130.493 47.9229C130.206 48.0084 129.926 47.7519 129.672 47.6343C129.428 47.5275 129.616 47.2576 129.711 47.1134C130.175 46.4641 130.569 45.7722 130.953 45.0776C131.494 44.3054 131.87 43.4318 132.455 42.6918Z" fill="#E7E8EC"/>
<path d="M120.881 20.9335C121.244 20.9335 121.538 21.23 121.538 21.5961C121.538 21.9621 121.244 22.2586 120.881 22.2586C120.518 22.2586 120.224 21.9621 120.224 21.5961C120.224 21.23 120.518 20.9335 120.881 20.9335ZM131.305 39.9745C131.263 39.9825 131.178 39.9985 131.133 40.0038C130.121 41.6923 128.99 43.3087 127.989 45.0052C127.754 45.048 127.597 44.8529 127.441 44.7167C126.768 44.0674 126.053 43.461 125.463 42.7343C126.128 42.2133 126.721 41.6122 127.441 41.166C127.091 40.9069 126.697 40.7172 126.345 40.4634C126.067 41.158 125.346 41.4839 124.832 41.9729C124.284 41.2862 123.702 40.6076 123.315 39.8168C124.03 39.4561 124.644 38.9325 125.373 38.5959C125.373 38.5558 125.367 38.4756 125.367 38.4356C125.084 38.1631 124.78 37.9146 124.501 37.6421C124.096 38.286 123.384 38.5959 122.732 38.9218C122.293 38.286 122.089 37.5192 121.647 36.8887C121.681 36.8459 121.75 36.7684 121.787 36.7257C122.558 36.4532 123.286 36.0792 124.033 35.7372C123.686 35.4674 123.392 35.1441 123.151 34.7781C122.716 35.4059 121.93 35.5822 121.271 35.8628C120.545 34.1128 120.121 32.2507 119.901 30.3671C120.775 30.5248 121.485 31.0831 122.293 31.4091C122.245 30.9977 122.229 30.5862 122.155 30.1801C121.644 29.9343 121.069 29.7954 120.534 29.6004C121.019 29.2878 121.57 29.1088 122.094 28.8817C122.081 28.4329 122.06 27.984 122.012 27.5352C121.591 27.7409 121.3 28.1256 120.897 28.358C120.518 28.5798 120.14 28.7962 119.761 29.0126C119.652 28.2298 119.676 27.439 119.692 26.6509C119.682 25.462 119.991 24.3078 120.103 23.1323C120.728 23.143 121.411 23.1456 121.917 22.7128C122.269 22.3922 122.682 22.1491 123.037 21.8285C122.849 21.8044 122.664 21.7857 122.478 21.7697C122.253 21.2781 122.081 20.693 121.583 20.4072C121.268 20.1961 120.844 20.0599 120.468 20.1266C120.293 20.1587 120.126 20.2282 119.989 20.3644C119.581 20.6423 119.507 21.1659 119.396 21.6094C119.374 21.5987 119.351 21.588 119.329 21.5774C119.041 21.4438 118.728 21.3102 118.585 21.0029C118.291 20.482 118.5 19.8728 118.492 19.3145C117.95 19.8675 117.515 20.7091 117.852 21.4865C118.032 22.0876 118.58 22.4163 119.057 22.7609C118.744 24.3025 118.58 25.8948 118.58 27.5298C118.58 35.3685 122.356 42.3148 128.172 46.6216L128.286 46.4399C128.304 46.4158 128.323 46.3891 128.339 46.3597C128.405 46.2529 128.471 46.146 128.537 46.0391C129.345 44.7354 130.185 43.453 130.995 42.1519C131.151 41.9114 131.472 41.9114 131.713 41.8019C131.594 41.1901 131.448 40.5836 131.305 39.9745Z" fill="#E7E8EC"/>
<path d="M163.22 35.8846C162.912 36.3041 163.315 36.7449 163.665 36.9613C163.911 36.8838 164.223 36.9185 164.411 36.7075C164.658 36.5178 164.618 36.1598 164.554 35.8926C164.313 35.3503 163.469 35.3476 163.22 35.8846ZM158.477 31.6874C158.895 31.2519 159.329 30.8325 159.758 30.4023C160.097 30.5493 160.375 30.8672 160.781 30.8325C162.441 30.8298 164.091 31.0516 165.754 31.0436C165.619 32.3634 165.291 33.6511 164.854 34.8988C165.134 35.2007 165.505 35.5052 165.505 35.9594C165.59 36.5285 165.381 37.1189 164.941 37.4849C164.605 37.8162 164.109 37.8162 163.678 37.9097C163.392 38.6338 162.936 39.275 162.573 39.9616C163.042 40.3864 163.699 40.739 163.8 41.4283C163.842 41.976 163.606 42.6893 163.021 42.8416C163 42.4996 163.016 42.155 163.01 41.8104C162.486 41.2627 161.813 40.8886 161.135 40.5707C160.818 40.3997 160.457 40.4051 160.113 40.4051C160.132 39.8413 160.119 39.2803 160.036 38.7219C160.561 38.9864 161.035 39.3551 161.596 39.5501C162.078 38.9597 162.407 38.2357 162.767 37.5571C162.229 36.9292 161.97 35.914 162.552 35.23C162.846 34.7091 163.45 34.5728 163.985 34.4579C164.247 33.6778 164.456 32.8817 164.621 32.0721C163.614 31.8958 162.597 31.8424 161.58 31.7809C160.548 31.6607 159.509 31.6634 158.477 31.6874Z" fill="#E7E8EC"/>
<path d="M134.867 44.7253C135.261 43.9051 136.273 43.9344 136.956 43.4883C137.073 44.0707 137.15 44.6612 137.348 45.2222C137.663 46.168 137.793 47.1618 138.1 48.1076C138.31 48.1797 138.649 48.0568 138.786 48.2919C138.892 48.5671 138.913 48.869 138.974 49.1576C138.376 49.0908 137.793 48.9385 137.2 48.845C136.914 47.5332 136.779 46.1653 136.207 44.939C136.13 44.9444 135.982 44.9577 135.908 44.963C135.5 45.7058 135.767 46.5393 135.974 47.2954C136.093 47.7282 136.207 48.1664 136.352 48.5938C135.955 48.6793 135.571 48.8129 135.2 48.9839C135.2 49.0373 135.2 49.1495 135.2 49.203C136.609 49.7507 138.111 49.9751 139.597 50.1942C141.178 50.3251 142.775 50.4373 144.358 50.2503C144.287 50.5949 144.189 50.9342 144.086 51.2708C142.298 51.3937 140.494 51.3483 138.728 51.0571C136.864 50.8648 135.105 50.1995 133.347 49.593C133.498 48.674 134.419 48.3187 135.105 47.8698C134.936 46.8466 134.414 45.7539 134.867 44.7253Z" fill="#E7E8EC"/>
<path d="M158.776 29.6112C159.354 29.1463 159.788 28.5211 160.418 28.123C160.678 28.2727 160.861 28.5799 161.173 28.62C162.77 28.6894 164.378 28.6547 165.969 28.8177C165.956 29.141 165.94 29.4616 165.921 29.7822C163.538 29.7501 161.155 29.6566 158.776 29.6112Z" fill="#E7E8EC"/>
<path d="M158.334 41.3526C158.797 41.0667 159.393 41.1843 159.798 41.5236C160.171 41.7934 160.548 42.09 160.773 42.5067C160.05 43.5273 159.109 44.3662 158.236 45.2532C156.737 46.5944 155.079 47.7432 153.315 48.697C152.277 49.1592 151.276 49.7149 150.177 50.0248C149.186 50.3 148.233 50.7194 147.205 50.8423C147.248 51.4007 147.444 52.0366 147.097 52.5362C146.79 52.8434 146.326 52.9129 145.916 52.8407C146.064 52.6751 146.233 52.5148 146.326 52.3064C146.432 51.6892 146.21 51.0828 146.098 50.4843C145.995 50.0248 145.701 49.6481 145.389 49.3141C145.847 49.0149 146.199 48.5955 146.559 48.1894C146.715 48.7611 146.888 49.3302 146.999 49.9153C148.365 49.6508 149.66 49.1378 150.974 48.689C153.839 47.4547 156.504 45.7101 158.665 43.4311C158.945 43.0972 159.258 42.7873 159.602 42.5148C159.361 42.3144 159.067 42.0045 158.723 42.1674C158.432 42.3518 158.206 42.6243 157.952 42.8514C156.498 44.3903 154.777 45.6566 152.952 46.7119C152.385 46.9871 151.824 47.2703 151.265 47.5562C150.566 47.9035 149.793 48.0504 149.094 48.3924C148.911 48.4699 148.715 48.4886 148.527 48.5287C149.019 47.8821 149.308 47.1154 149.742 46.4314C150.05 45.9104 150.256 45.328 150.585 44.8177C150.579 45.6246 150.187 46.3486 149.968 47.1047C152.505 46.1455 154.817 44.6147 156.776 42.7365C157.34 42.3197 157.661 41.6197 158.334 41.3526Z" fill="#E7E8EC"/>
<path d="M145.987 46.598C145.987 46.2748 145.728 46.0156 145.41 46.0156C145.09 46.0156 144.83 46.2774 144.83 46.598C144.83 46.9186 145.09 47.1805 145.41 47.1805C145.728 47.1805 145.987 46.9213 145.987 46.598Z" fill="#E7E8EC"/>
<path d="M149.428 4.6875C149.772 4.78101 150.114 4.89856 150.456 5.00543C150.093 6.39202 149.571 7.72252 149.211 9.10644C149.007 10.0068 148.567 10.827 148.377 11.73C148.03 11.0942 147.701 10.4476 147.373 9.80375C147.617 9.6007 147.932 9.45375 148.054 9.1385C148.281 8.61218 148.371 8.0351 148.565 7.4981C148.925 6.58439 149.184 5.63594 149.428 4.6875Z" fill="#E7E8EC"/>
<path d="M151.57 5.49902C152.25 5.73413 152.913 6.03336 153.53 6.41006C156.904 8.19474 159.793 10.8637 161.938 14.0297C162.494 14.7056 162.815 15.5338 163.302 16.2578C163.937 17.607 164.597 18.9535 164.976 20.4069C165.656 22.4374 165.953 24.5854 165.992 26.7254C165.526 26.7361 165.063 26.7601 164.599 26.7655C164.772 26.4422 164.941 26.1002 164.915 25.7209C164.923 24.2381 164.602 22.7713 164.258 21.3367C163.967 20.5806 163.765 19.7951 163.474 19.039C162.711 17.078 161.649 15.2533 160.413 13.5621C160.37 13.5434 160.293 13.5113 160.254 13.4953C160.111 13.6984 159.957 13.8934 159.851 14.1178C159.846 14.4464 160.097 14.6896 160.275 14.938C161.395 16.6105 162.367 18.4058 162.973 20.3375C163.641 22.0019 163.834 23.7973 164.065 25.5606C163.474 25.1625 163.024 24.5988 162.465 24.1633C162.039 23.8347 161.639 23.4767 161.196 23.1748C161.083 23.0652 160.971 22.9477 160.873 22.8275C161.644 23.0652 162.343 23.4954 162.992 23.9736C162.661 22.595 162.452 21.1684 161.837 19.8779C161.501 18.836 160.961 17.8849 160.458 16.9204C160.042 16.1456 159.446 15.4804 159.08 14.6789C158.773 13.9736 159.205 13.2121 159.79 12.814C159.385 12.2129 158.861 11.716 158.339 11.2217C157.936 11.8656 157.02 12.2503 157.129 13.1346C156.665 12.9423 156.188 12.7953 155.701 12.6992C156.318 11.9431 156.996 11.2404 157.613 10.4817C156.851 9.88056 156.157 9.19126 155.32 8.69433C154.859 9.3195 154.208 9.93399 154.29 10.7863C153.874 10.5645 153.413 10.4763 152.955 10.3962C153.408 9.58934 154.012 8.88403 154.504 8.1039C153.731 7.70048 153.034 7.15278 152.211 6.8589C151.975 7.9623 151.543 9.00692 151.276 10.1023C151.083 11.008 150.736 11.8709 150.529 12.7713C150.479 12.7686 150.378 12.766 150.328 12.766C150.142 12.1675 149.66 11.7213 149.488 11.1202C149.658 11.0721 149.825 11.0187 149.991 10.9546C150.312 10.4202 150.32 9.77636 150.521 9.19928C150.942 7.98902 151.241 6.73868 151.57 5.49902Z" fill="#E7E8EC"/>
<path d="M156.941 6.53555C156.941 6.21495 156.681 5.95312 156.361 5.95312C156.04 5.95312 155.783 6.21495 155.783 6.53555C155.783 6.85882 156.043 7.12064 156.361 7.12064C156.678 7.12064 156.941 6.85615 156.941 6.53555Z" fill="#E7E8EC"/>
<path d="M155.977 14.2709C155.977 13.9476 155.717 13.6885 155.399 13.6885C155.079 13.6885 154.819 13.9503 154.819 14.2709C154.819 14.5915 155.079 14.8533 155.399 14.8533C155.717 14.856 155.977 14.5942 155.977 14.2709Z" fill="#E7E8EC"/>
<mask id="mask0_8122_813" style="mask-type:luminance" maskUnits="userSpaceOnUse" x="114" y="-1" width="57" height="58">
<path d="M170.204 -0.119141H114.206V56.1194H170.204V-0.119141Z" fill="white"/>
</mask>
<g mask="url(#mask0_8122_813)">
<path d="M142.328 55.3179C127.397 55.3179 115.25 43.063 115.25 28.0002C115.25 14.1182 125.567 2.61931 138.875 0.904104C139.026 2.07162 139.744 3.06014 140.742 3.57577C139.617 4.15819 138.843 5.33907 138.843 6.70162C138.843 8.06417 139.614 9.24505 140.742 9.82748C139.617 10.4099 138.843 11.5908 138.843 12.9533C138.843 12.964 138.843 12.972 138.843 12.98C132.08 14.5697 127.037 20.6905 127.037 27.9975C127.037 36.5148 133.883 43.421 142.326 43.421C150.769 43.421 157.614 36.5148 157.614 27.9975C157.614 20.6878 152.572 14.5697 145.806 12.98C145.806 12.9694 145.806 12.9613 145.806 12.9533C145.806 11.5881 145.035 10.4099 143.909 9.82748C145.035 9.24505 145.806 8.06685 145.806 6.70162C145.806 5.3364 145.035 4.15819 143.909 3.57577C144.908 3.06014 145.626 2.07162 145.777 0.904104C159.082 2.61931 169.402 14.1182 169.402 28.0002C169.407 43.063 157.26 55.3179 142.328 55.3179ZM139.627 6.7043C139.627 5.20015 140.84 3.97652 142.331 3.97652C143.819 3.97652 145.032 5.20015 145.032 6.7043C145.032 8.20578 143.819 9.42939 142.331 9.42939C140.84 9.42939 139.627 8.20578 139.627 6.7043ZM142.328 12.5766C141.407 12.5766 140.506 12.6621 139.632 12.8197C139.704 11.3797 140.882 10.2282 142.328 10.2282C143.772 10.2282 144.953 11.3797 145.024 12.8197C144.15 12.6621 143.25 12.5766 142.328 12.5766ZM139.712 13.6212C140.562 13.4636 141.436 13.3781 142.331 13.3781C143.226 13.3781 144.097 13.4636 144.948 13.6212C145.204 13.6693 145.459 13.7228 145.713 13.7842C152.079 15.3258 156.825 21.1126 156.825 28.0028C156.825 36.0659 150.324 42.6249 142.331 42.6249C134.339 42.6249 127.837 36.0659 127.837 28.0028C127.837 21.1126 132.583 15.3258 138.949 13.7842C139.198 13.7228 139.455 13.6693 139.712 13.6212ZM142.328 0.682359C143.231 0.682359 144.124 0.727778 145.003 0.815943C144.823 2.14643 143.692 3.17502 142.328 3.17502C140.962 3.17502 139.831 2.14376 139.654 0.815943C140.536 0.730449 141.425 0.682359 142.328 0.682359ZM145.795 0.0972637C145.53 0.0652037 145.26 0.035819 144.993 0.00910231C144.116 -0.0737194 143.226 -0.119141 142.328 -0.119141C141.431 -0.119141 140.541 -0.0737194 139.664 0.00910231C139.397 0.0331473 139.129 0.0625321 138.862 0.0972637C125.104 1.82049 114.455 13.656 114.455 28.0002C114.455 43.5279 126.934 56.1194 142.328 56.1194C157.72 56.1194 170.202 43.5306 170.202 28.0002C170.202 13.656 159.553 1.82049 145.795 0.0972637Z" fill="#E7E8EC"/>
</g>
</g>
<defs>
<clipPath id="clip0_8122_813">
<rect width="170" height="56" fill="white"/>
</clipPath>
</defs>
</svg>
