<svg width="112" height="24" viewBox="0 0 112 24" fill="none" xmlns="http://www.w3.org/2000/svg">
<path d="M37.6158 5.10924C36.5074 5.1497 33.749 5.68503 31.1368 7.78898C29.4525 9.14597 28.4905 10.3224 27.9581 11.2468V0.440703C27.9581 0.0641074 27.516 -0.138196 27.2327 0.107681L14.2094 11.2748V0.440703C14.2094 0.0641074 13.7673 -0.138196 13.484 0.107681L0.152557 11.5394C0.0560424 11.6234 0 11.7448 0 11.8724V23.5593C0 23.9359 0.442099 24.1382 0.725416 23.8923L13.7487 12.7252V23.5593C13.7487 23.9359 14.1908 24.1382 14.4741 23.8923L27.5066 12.7158V23.2169C27.5066 23.4628 27.846 23.5219 27.9332 23.2947C28.6586 21.39 30.1157 18.3679 32.9115 16.2515C34.6892 14.9069 36.4296 14.6548 37.6811 14.3529C37.7808 14.328 37.8462 14.2378 37.8462 14.1382V5.33022C37.8462 5.20572 37.7465 5.10301 37.622 5.10613L37.6158 5.10924Z" fill="#0B1A3E"/>
<path d="M59.4233 3.92383H61.14V20.0741H59.5839V9.32386C59.5839 9.10911 59.6055 8.28432 59.6518 6.85572C58.3952 10.3167 55.8697 16.2303 53.9061 20.0399H52.4859C50.5316 16.305 48.0555 10.5346 46.6939 6.83393C46.7557 7.46575 46.7865 8.29366 46.7865 9.32698V20.0773H45.2305V3.92694H46.9471C48.4414 7.61826 51.1861 13.9707 53.2176 18.4028C55.1473 13.8991 57.9383 7.61826 59.4203 3.92694L59.4233 3.92383Z" fill="#0B1A3E"/>
<path d="M65.5801 20.0741V3.92383H67.2288V20.0741H65.5801Z" fill="#0B1A3E"/>
<path d="M80.9147 3.92383C80.9147 4.74551 80.7449 5.56096 80.396 6.30171C79.4667 8.26876 78.4478 10.102 77.3456 11.8013C76.0335 13.8244 74.3941 16.0965 72.4243 18.6207H81.3037V20.0741H70.4082C70.4082 19.2525 70.6861 18.4495 71.1831 17.799C74.9529 12.8627 77.6235 8.72317 79.195 5.37733H70.6583V3.92383H80.9116H80.9147Z" fill="#0B1A3E"/>
<path d="M94.6688 20.0741C94.2427 18.5833 93.7456 16.9991 93.1806 15.3215H85.9468C85.3818 16.9991 84.8847 18.5833 84.4587 20.0741H82.7637C84.7767 13.507 86.7526 8.12248 88.6915 3.92383H90.4081C92.5292 8.52398 94.5113 13.9053 96.3576 20.0741H94.6626H94.6688ZM89.5653 5.62943C88.6051 7.79878 87.5584 10.5439 86.4284 13.868H92.699C91.569 10.5439 90.5254 7.79878 89.5622 5.62943H89.5653Z" fill="#0B1A3E"/>
<path d="M100.711 20.0741H99.1553V3.92383H100.758C103.076 8.10691 106.043 12.7133 109.662 17.7429C109.615 17.1423 109.594 16.4139 109.594 15.5518V3.92383H111.15V20.0741H109.548C107.442 17.2294 105.716 14.8142 104.376 12.8284C103.033 10.8458 101.789 8.79164 100.646 6.66898C100.693 7.4533 100.714 8.31544 100.714 9.25228V20.0741H100.711Z" fill="#0B1A3E"/>
</svg>
