<svg width="24" height="24" viewBox="0 0 24 24" fill="none" xmlns="http://www.w3.org/2000/svg">
<path d="M21.3734 16.6805C20.8559 17.8298 20.6065 18.3436 19.9409 19.358C19.009 20.7755 17.6946 22.5455 16.0709 22.5567C14.6253 22.5698 14.2521 21.6136 12.289 21.6305C10.3278 21.6398 9.91901 22.5755 8.47151 22.5605C6.84589 22.5455 5.60276 20.9517 4.67089 19.5361C2.06464 15.5667 1.78901 10.913 3.39964 8.43797C4.53964 6.68297 6.34151 5.65172 8.03464 5.65172C9.75964 5.65172 10.8434 6.59859 12.2684 6.59859C13.6521 6.59859 14.494 5.64984 16.489 5.64984C17.9965 5.64984 19.5903 6.47109 20.7303 7.88859C17.0028 9.93234 17.6084 15.2555 21.3734 16.6805ZM14.974 4.06547C15.6996 3.13359 16.2509 1.81922 16.0503 0.480469C14.8671 0.561094 13.4834 1.31672 12.6753 2.29547C11.9421 3.18797 11.3346 4.51172 11.5709 5.79234C12.8628 5.83359 14.1996 5.06297 14.974 4.06547Z" fill="#0B1A3E"/>
</svg>
