<svg width="24" height="24" viewBox="0 0 24 24" fill="none" xmlns="http://www.w3.org/2000/svg">
<path d="M3.42039 0.959961L13.8154 11.28L16.6654 8.42996L4.06539 1.15496C3.85539 1.03309 3.63039 0.965586 3.42039 0.959961ZM2.55039 1.43996C2.45664 1.60684 2.40039 1.80371 2.40039 2.02496V22.08C2.40039 22.2412 2.43414 22.3856 2.49039 22.515L13.1254 11.955L2.55039 1.43996ZM17.5354 8.92496L14.4904 11.955L17.5354 14.97L21.2554 12.84C21.7841 12.5343 21.8591 12.1462 21.8554 11.94C21.8498 11.5987 21.6341 11.28 21.2704 11.085C20.9535 10.9143 18.6004 9.54371 17.5354 8.92496ZM13.8154 12.63L3.33039 23.025C3.50477 23.0156 3.69414 22.9781 3.87039 22.875C4.28102 22.6368 12.5854 17.835 12.5854 17.835L16.6804 15.48L13.8154 12.63Z" fill="#0B1A3E"/>
</svg>
