<svg width="338" height="370" viewBox="0 0 338 370" fill="none" xmlns="http://www.w3.org/2000/svg">
<g filter="url(#filter0_d_8056_376)">
<path d="M20.0771 32.0771C20.0771 25.4497 25.4497 20.0771 32.0771 20.0771H305.864C312.492 20.0771 317.864 25.4497 317.864 32.0771V337.077C317.864 343.705 312.492 349.077 305.864 349.077H32.0772C25.4497 349.077 20.0771 343.705 20.0771 337.077V32.0771Z" fill="white" shape-rendering="crispEdges"/>
<path d="M37.5795 49.1621V45.2841L37.9855 46.4041L33.7295 39.3621H35.6755L39.0915 45.0321H37.9995L41.4435 39.3621H43.2355L38.9795 46.4041L39.3995 45.2841V49.1621H37.5795ZM46.7853 49.2601C46.02 49.2601 45.3387 49.0968 44.7413 48.7701C44.144 48.4341 43.6727 47.9768 43.3273 47.3981C42.982 46.8194 42.8093 46.1614 42.8093 45.4241C42.8093 44.6774 42.982 44.0194 43.3273 43.4501C43.6727 42.8714 44.144 42.4188 44.7413 42.0921C45.3387 41.7654 46.02 41.6021 46.7853 41.6021C47.56 41.6021 48.246 41.7654 48.8433 42.0921C49.45 42.4188 49.9213 42.8668 50.2573 43.4361C50.6027 44.0054 50.7753 44.6681 50.7753 45.4241C50.7753 46.1614 50.6027 46.8194 50.2573 47.3981C49.9213 47.9768 49.45 48.4341 48.8433 48.7701C48.246 49.0968 47.56 49.2601 46.7853 49.2601ZM46.7853 47.7621C47.2147 47.7621 47.5973 47.6688 47.9333 47.4821C48.2693 47.2954 48.5307 47.0248 48.7173 46.6701C48.9133 46.3154 49.0113 45.9001 49.0113 45.4241C49.0113 44.9388 48.9133 44.5234 48.7173 44.1781C48.5307 43.8234 48.2693 43.5528 47.9333 43.3661C47.5973 43.1794 47.2193 43.0861 46.7993 43.0861C46.37 43.0861 45.9873 43.1794 45.6513 43.3661C45.3247 43.5528 45.0633 43.8234 44.8673 44.1781C44.6713 44.5234 44.5733 44.9388 44.5733 45.4241C44.5733 45.9001 44.6713 46.3154 44.8673 46.6701C45.0633 47.0248 45.3247 47.2954 45.6513 47.4821C45.9873 47.6688 46.3653 47.7621 46.7853 47.7621ZM55.6128 49.2601C54.9781 49.2601 54.4181 49.1434 53.9328 48.9101C53.4474 48.6674 53.0694 48.3034 52.7988 47.8181C52.5281 47.3234 52.3928 46.7028 52.3928 45.9561V41.6861H54.1428V45.7181C54.1428 46.3901 54.2921 46.8941 54.5908 47.2301C54.8988 47.5568 55.3328 47.7201 55.8928 47.7201C56.3034 47.7201 56.6581 47.6361 56.9568 47.4681C57.2648 47.3001 57.5028 47.0481 57.6708 46.7121C57.8481 46.3761 57.9368 45.9608 57.9368 45.4661V41.6861H59.6868V49.1621H58.0208V47.1461L58.3148 47.7621C58.0628 48.2474 57.6941 48.6208 57.2088 48.8821C56.7234 49.1341 56.1914 49.2601 55.6128 49.2601ZM61.9781 49.1621V41.6861H63.6441V43.7441L63.4481 43.1421C63.6721 42.6381 64.0221 42.2554 64.4981 41.9941C64.9834 41.7328 65.5854 41.6021 66.3041 41.6021V43.2681C66.2294 43.2494 66.1594 43.2401 66.0941 43.2401C66.0287 43.2308 65.9634 43.2261 65.8981 43.2261C65.2354 43.2261 64.7081 43.4221 64.3161 43.8141C63.9241 44.1968 63.7281 44.7708 63.7281 45.5361V49.1621H61.9781ZM71.8941 49.1621V39.3621H73.3921L79.5381 46.9081H78.7961V39.3621H80.6021V49.1621H79.1041L72.9581 41.6161H73.7001V49.1621H71.8941ZM86.5741 49.2601C85.7434 49.2601 85.0154 49.0968 84.3901 48.7701C83.7741 48.4341 83.2934 47.9768 82.9481 47.3981C82.6121 46.8194 82.4441 46.1614 82.4441 45.4241C82.4441 44.6774 82.6074 44.0194 82.9341 43.4501C83.2701 42.8714 83.7274 42.4188 84.3061 42.0921C84.8941 41.7654 85.5614 41.6021 86.3081 41.6021C87.0361 41.6021 87.6848 41.7608 88.2541 42.0781C88.8234 42.3954 89.2714 42.8434 89.5981 43.4221C89.9248 44.0008 90.0881 44.6821 90.0881 45.4661C90.0881 45.5408 90.0834 45.6248 90.0741 45.7181C90.0741 45.8114 90.0694 45.9001 90.0601 45.9841H83.8301V44.8221H89.1361L88.4501 45.1861C88.4594 44.7568 88.3708 44.3788 88.1841 44.0521C87.9974 43.7254 87.7408 43.4688 87.4141 43.2821C87.0968 43.0954 86.7281 43.0021 86.3081 43.0021C85.8788 43.0021 85.5008 43.0954 85.1741 43.2821C84.8568 43.4688 84.6048 43.7301 84.4181 44.0661C84.2408 44.3928 84.1521 44.7801 84.1521 45.2281V45.5081C84.1521 45.9561 84.2548 46.3528 84.4601 46.6981C84.6654 47.0434 84.9548 47.3094 85.3281 47.4961C85.7014 47.6828 86.1308 47.7761 86.6161 47.7761C87.0361 47.7761 87.4141 47.7108 87.7501 47.5801C88.0861 47.4494 88.3848 47.2441 88.6461 46.9641L89.5841 48.0421C89.2481 48.4341 88.8234 48.7374 88.3101 48.9521C87.8061 49.1574 87.2274 49.2601 86.5741 49.2601ZM94.5831 49.2601C93.7618 49.2601 93.1271 49.0501 92.6791 48.6301C92.2311 48.2008 92.0071 47.5708 92.0071 46.7401V40.0341H93.7571V46.6981C93.7571 47.0528 93.8458 47.3281 94.0231 47.5241C94.2098 47.7201 94.4664 47.8181 94.7931 47.8181C95.1851 47.8181 95.5118 47.7154 95.7731 47.5101L96.2631 48.7561C96.0578 48.9241 95.8058 49.0501 95.5071 49.1341C95.2084 49.2181 94.9004 49.2601 94.5831 49.2601ZM90.7751 43.1421V41.7421H95.7591V43.1421H90.7751ZM104.05 49.1621L100.802 39.3621H102.692L105.59 48.2241H104.652L107.662 39.3621H109.342L112.268 48.2241H111.358L114.326 39.3621H116.062L112.814 49.1621H110.882L108.208 41.1681H108.712L105.996 49.1621H104.05ZM120.176 49.2601C119.411 49.2601 118.729 49.0968 118.132 48.7701C117.535 48.4341 117.063 47.9768 116.718 47.3981C116.373 46.8194 116.2 46.1614 116.2 45.4241C116.2 44.6774 116.373 44.0194 116.718 43.4501C117.063 42.8714 117.535 42.4188 118.132 42.0921C118.729 41.7654 119.411 41.6021 120.176 41.6021C120.951 41.6021 121.637 41.7654 122.234 42.0921C122.841 42.4188 123.312 42.8668 123.648 43.4361C123.993 44.0054 124.166 44.6681 124.166 45.4241C124.166 46.1614 123.993 46.8194 123.648 47.3981C123.312 47.9768 122.841 48.4341 122.234 48.7701C121.637 49.0968 120.951 49.2601 120.176 49.2601ZM120.176 47.7621C120.605 47.7621 120.988 47.6688 121.324 47.4821C121.66 47.2954 121.921 47.0248 122.108 46.6701C122.304 46.3154 122.402 45.9001 122.402 45.4241C122.402 44.9388 122.304 44.5234 122.108 44.1781C121.921 43.8234 121.66 43.5528 121.324 43.3661C120.988 43.1794 120.61 43.0861 120.19 43.0861C119.761 43.0861 119.378 43.1794 119.042 43.3661C118.715 43.5528 118.454 43.8234 118.258 44.1781C118.062 44.5234 117.964 44.9388 117.964 45.4241C117.964 45.9001 118.062 46.3154 118.258 46.6701C118.454 47.0248 118.715 47.2954 119.042 47.4821C119.378 47.6688 119.756 47.7621 120.176 47.7621ZM125.839 49.1621V41.6861H127.505V43.7441L127.309 43.1421C127.533 42.6381 127.883 42.2554 128.359 41.9941C128.845 41.7328 129.447 41.6021 130.165 41.6021V43.2681C130.091 43.2494 130.021 43.2401 129.955 43.2401C129.89 43.2308 129.825 43.2261 129.759 43.2261C129.097 43.2261 128.569 43.4221 128.177 43.8141C127.785 44.1968 127.589 44.7708 127.589 45.5361V49.1621H125.839ZM134.737 49.2601C133.916 49.2601 133.281 49.0501 132.833 48.6301C132.385 48.2008 132.161 47.5708 132.161 46.7401V40.0341H133.911V46.6981C133.911 47.0528 134 47.3281 134.177 47.5241C134.364 47.7201 134.621 47.8181 134.947 47.8181C135.339 47.8181 135.666 47.7154 135.927 47.5101L136.417 48.7561C136.212 48.9241 135.96 49.0501 135.661 49.1341C135.363 49.2181 135.055 49.2601 134.737 49.2601ZM130.929 43.1421V41.7421H135.913V43.1421H130.929ZM142.099 41.6021C142.696 41.6021 143.228 41.7188 143.695 41.9521C144.171 42.1854 144.544 42.5448 144.815 43.0301C145.086 43.5061 145.221 44.1221 145.221 44.8781V49.1621H143.471V45.1021C143.471 44.4394 143.312 43.9448 142.995 43.6181C142.687 43.2914 142.253 43.1281 141.693 43.1281C141.282 43.1281 140.918 43.2121 140.601 43.3801C140.284 43.5481 140.036 43.8001 139.859 44.1361C139.691 44.4628 139.607 44.8781 139.607 45.3821V49.1621H137.857V38.7741H139.607V43.7021L139.229 43.0861C139.49 42.6101 139.868 42.2461 140.363 41.9941C140.867 41.7328 141.446 41.6021 142.099 41.6021Z" fill="#0B1A3E"/>
<path d="M47.8225 76.6592V69.7755H49.0271L50.9708 74.8471L51.3453 75.8392H51.3656L51.7401 74.8471L53.6939 69.7755H54.8985V76.6592H54.0988V71.6078L54.1191 70.6461H54.0887L53.7344 71.6078L51.7705 76.6592H50.9505L48.9765 71.6078L48.6222 70.6461H48.602L48.6121 71.6078V76.6592H47.8225ZM59.3877 76.6592V76.2036H59.3472C59.1245 76.4567 58.5981 76.7604 57.9604 76.7604C57.0088 76.7604 56.4419 76.153 56.4419 75.4039C56.4419 74.3815 57.2619 73.9259 58.4361 73.9259H59.3675V73.3894C59.3675 72.6302 59.0233 72.3569 58.1628 72.3569C57.6263 72.3569 57.0898 72.4682 56.8569 72.5897H56.7861V71.9823C57.0797 71.8305 57.6567 71.7191 58.2843 71.7191C59.661 71.7191 60.1469 72.2151 60.1469 73.2578V76.6592H59.3877ZM57.2315 75.3432C57.2315 75.8493 57.5858 76.1429 58.1426 76.1429C58.6892 76.1429 59.2257 75.8291 59.3675 75.5861V74.4625H58.5374C57.687 74.4625 57.2315 74.7358 57.2315 75.3432ZM61.4225 78.9774C61.2504 78.9774 61.1997 78.9774 61.0681 78.9571V78.3194H61.139C61.2706 78.3396 61.3313 78.3599 61.4832 78.3599C62.2222 78.3599 62.5967 77.9144 62.8296 77.2362L62.9409 76.9021L61.0783 71.8203H61.8881L62.9409 74.8674L63.2851 75.8696H63.3053L63.6495 74.8674L64.7023 71.8203H65.4616L63.4066 77.5095C63.0725 78.4408 62.536 78.9774 61.4225 78.9774Z" fill="#5C667E"/>
<path d="M94.9917 69.7755V76.6187C94.9917 77.8335 94.3033 78.4611 92.9772 78.4611V77.8233C93.8276 77.8233 94.1717 77.4488 94.1717 76.6086V69.7755H94.9917ZM98.3356 76.7604C97.3435 76.7604 96.8171 76.2745 96.8171 75.3432V71.8203H97.6067V75.1306C97.6067 75.8291 97.9104 76.1125 98.5988 76.1125C99.1151 76.1125 99.6313 75.8696 99.935 75.5861V71.8203H100.725V76.6592H99.935V76.1935H99.8945C99.5503 76.4972 98.9936 76.7604 98.3356 76.7604ZM102.393 76.6592V71.8203H103.183V72.2759H103.213C103.567 71.9823 104.124 71.7191 104.782 71.7191C105.774 71.7191 106.301 72.205 106.301 73.1363V76.6592H105.511V73.3489C105.511 72.6403 105.197 72.367 104.519 72.367C104.003 72.367 103.486 72.6099 103.183 72.8934V76.6592H102.393Z" fill="#5C667E"/>
<path d="M136.542 69.7755V76.6187C136.542 77.8335 135.854 78.4611 134.528 78.4611V77.8233C135.378 77.8233 135.723 77.4488 135.723 76.6086V69.7755H136.542ZM139.886 76.7604C138.894 76.7604 138.368 76.2745 138.368 75.3432V71.8203H139.157V75.1306C139.157 75.8291 139.461 76.1125 140.15 76.1125C140.666 76.1125 141.182 75.8696 141.486 75.5861V71.8203H142.275V76.6592H141.486V76.1935H141.445C141.101 76.4972 140.544 76.7604 139.886 76.7604ZM144.977 76.7199C144.298 76.7199 143.944 76.3757 143.944 75.5861V69.2693H144.734V75.5051C144.734 75.9404 144.896 76.0822 145.23 76.0822C145.402 76.0822 145.533 76.0619 145.645 76.0315H145.716V76.6389C145.533 76.6895 145.26 76.7199 144.977 76.7199Z" fill="#5C667E"/>
<path d="M180.743 76.6592L183.284 69.7654H184.236L186.746 76.6592H185.876L185.117 74.5232H182.313L181.563 76.6592H180.743ZM182.535 73.8956H184.894L184.074 71.5571L183.74 70.5145H183.71L183.365 71.5571L182.535 73.8956ZM189.209 76.7604C188.217 76.7604 187.69 76.2745 187.69 75.3432V71.8203H188.48V75.1306C188.48 75.8291 188.784 76.1125 189.472 76.1125C189.988 76.1125 190.505 75.8696 190.808 75.5861V71.8203H191.598V76.6592H190.808V76.1935H190.768C190.424 76.4972 189.867 76.7604 189.209 76.7604ZM194.633 79.028C193.368 79.028 192.669 78.5522 192.669 77.8132C192.669 77.1552 193.256 76.7098 193.712 76.5478V76.5175C193.429 76.3757 193.287 76.153 193.287 75.8291C193.287 75.4343 193.58 75.1002 193.884 74.9383V74.918C193.408 74.7459 192.912 74.2094 192.912 73.4198C192.912 72.3872 193.682 71.7191 194.805 71.7191C195.089 71.7191 195.352 71.7697 195.575 71.8507C195.716 71.3041 196.172 70.9903 196.759 70.9903H197.093V71.628H196.789C196.435 71.628 196.131 71.7596 196 72.0734C196.415 72.3569 196.648 72.8124 196.648 73.3591C196.648 74.4625 195.838 75.0901 194.745 75.0901C194.643 75.0901 194.532 75.0901 194.38 75.08C194.178 75.1913 193.975 75.3735 193.975 75.6064C193.975 75.8797 194.208 76.0113 194.643 76.0315L195.382 76.072C196.627 76.1429 197.296 76.5175 197.296 77.3374C197.296 78.3497 196.283 79.028 194.633 79.028ZM194.694 78.4611C195.777 78.4611 196.587 78.1068 196.587 77.469C196.587 76.973 196.202 76.7705 195.271 76.73L194.238 76.6895C193.752 76.8819 193.388 77.1957 193.388 77.6715C193.388 78.1675 193.844 78.4611 194.694 78.4611ZM194.785 74.5637C195.433 74.5637 195.878 74.1487 195.878 73.3995C195.878 72.6707 195.433 72.2759 194.775 72.2759C194.127 72.2759 193.692 72.6909 193.692 73.3995C193.692 74.1082 194.127 74.5637 194.785 74.5637Z" fill="#5C667E"/>
<path d="M234.507 76.7604C233.657 76.7604 233.039 76.5883 232.766 76.4466V75.7987H232.837C233.08 75.9303 233.778 76.0923 234.487 76.0923C235.59 76.0923 236.167 75.5355 236.167 74.8471C236.167 73.9766 235.519 73.7336 234.629 73.4097C233.576 73.0351 232.827 72.5998 232.827 71.4357C232.827 70.3019 233.717 69.6743 235.104 69.6743C235.864 69.6743 236.532 69.8261 236.815 69.9881V70.6359H236.734C236.491 70.5043 235.772 70.3424 235.084 70.3424C234.143 70.3424 233.647 70.7574 233.647 71.3648C233.647 72.124 234.214 72.3872 234.993 72.6808C236.218 73.1465 236.977 73.4907 236.977 74.7459C236.977 75.9101 236.086 76.7604 234.507 76.7604ZM240.212 71.7191C241.528 71.7191 242.105 72.7112 242.105 73.8956C242.105 74.0474 242.105 74.1993 242.085 74.3511H238.785C238.826 75.5963 239.342 76.1227 240.526 76.1227C241.032 76.1227 241.569 75.9911 241.822 75.8493H241.893V76.4567C241.66 76.5984 241.103 76.7604 240.395 76.7604C238.735 76.7604 237.955 75.819 237.955 74.2701C237.955 72.7314 238.785 71.7191 240.212 71.7191ZM240.182 72.3063C239.382 72.3063 238.886 72.7517 238.795 73.8045H241.316C241.286 72.9035 240.951 72.3063 240.182 72.3063ZM243.401 78.9369V71.8203H244.191V72.2759H244.221C244.454 72.0127 244.889 71.7191 245.537 71.7191C246.772 71.7191 247.592 72.6201 247.592 74.0677C247.592 75.738 246.61 76.7604 244.94 76.7604C244.616 76.7604 244.332 76.6997 244.191 76.6491V78.9369H243.401ZM246.772 74.1082C246.772 72.9136 246.154 72.3872 245.385 72.3872C244.808 72.3872 244.413 72.6201 244.191 72.8833V76.0518C244.322 76.1024 244.626 76.153 244.93 76.153C246.053 76.153 246.772 75.4748 246.772 74.1082Z" fill="#0F408F"/>
<path d="M278.827 76.7604C276.873 76.7604 275.679 75.4647 275.679 73.2477C275.679 71.0409 276.873 69.6743 278.827 69.6743C280.791 69.6743 281.986 70.97 281.986 73.1768C281.986 75.3938 280.791 76.7604 278.827 76.7604ZM278.827 76.0923C280.295 76.0923 281.095 74.9787 281.095 73.1971C281.095 71.4154 280.295 70.3424 278.827 70.3424C277.369 70.3424 276.57 71.4559 276.57 73.2376C276.57 75.0192 277.369 76.0923 278.827 76.0923ZM283.012 74.3106C283.012 72.7011 283.984 71.7191 285.442 71.7191C285.998 71.7191 286.434 71.8507 286.677 71.9924V72.5998H286.606C286.342 72.4581 285.998 72.3265 285.452 72.3265C284.409 72.3265 283.842 72.9744 283.842 74.2499C283.842 75.6266 284.5 76.1227 285.583 76.1227C286.059 76.1227 286.454 76.0214 286.707 75.8797H286.788V76.4567C286.545 76.5883 286.059 76.7604 285.442 76.7604C283.893 76.7604 283.012 75.819 283.012 74.3106ZM289.382 76.7604C288.572 76.7604 288.127 76.3555 288.127 75.4545V72.4379H287.246V71.8203H288.127V70.5955H288.917V71.8203H290.364V72.4379H288.917V75.3432C288.917 75.9202 289.109 76.1227 289.625 76.1227C289.888 76.1227 290.131 76.0822 290.273 76.0214H290.344V76.6288C290.192 76.6895 289.848 76.7604 289.382 76.7604Z" fill="#5C667E"/>
<g clip-path="url(#clip0_8056_376)">
<path d="M147.526 219.752C121.828 227.647 114.373 177.868 91.3936 183.966C68.4146 190.063 50.698 219.752 35.2617 254.539V266.249H652.713V97.5312C641.135 151.179 624.734 244.301 596.581 252.026C568.427 259.751 563.954 151.179 540.449 129.454C516.944 107.729 507.998 201.043 484.317 205.332C460.636 209.622 449.147 159.329 428.185 154.863C407.223 150.398 396.085 191.773 372.053 184.41C348.022 177.047 339.163 115.059 315.921 101.507C292.679 87.956 283.207 148.514 259.789 151.179C236.372 153.843 223.391 108.346 203.657 115.059C183.924 121.772 173.223 211.857 147.526 219.752Z" fill="url(#paint0_linear_8056_376)" fill-opacity="0.2"/>
<path d="M35.2617 255.246C50.698 220.303 68.4146 190.48 91.3936 184.355C114.373 178.23 121.828 228.233 147.526 220.303C173.223 212.372 183.924 121.881 203.657 115.138C223.391 108.395 236.372 154.096 259.789 151.42C283.207 148.744 292.679 87.9129 315.921 101.525C339.163 115.138 348.022 177.405 372.053 184.801C396.085 192.197 407.223 150.636 428.185 155.122C449.147 159.607 460.636 210.127 484.317 205.818C507.998 201.509 516.944 107.775 540.449 129.598C563.954 151.42 568.427 260.481 596.581 252.722C624.734 244.962 641.135 151.42 652.713 97.5312" stroke="#00C412" stroke-width="1.68718" stroke-linejoin="round"/>
<line x1="261.976" y1="97.5312" x2="261.976" y2="266.249" stroke="#B3B8C3" stroke-width="1.26538" stroke-dasharray="8.44 8.44"/>
<circle cx="261.766" cy="151.099" r="3.79615" fill="#00C412"/>
</g>
<path d="M47.6388 296.121V288.09H50.0126C51.855 288.09 52.7054 288.976 52.7054 290.192C52.7054 290.889 52.2448 291.586 51.4062 291.928C52.5282 292.236 53.1423 292.956 53.1423 293.842C53.1423 295.283 52.1739 296.121 50.0362 296.121H47.6388ZM48.7844 295.259H49.8945C51.17 295.259 51.9141 294.999 51.9141 293.842C51.9141 292.85 51.2291 292.448 50.0953 292.448H48.7844V295.259ZM48.7844 291.586H50.0126C50.9693 291.586 51.5125 291.161 51.5125 290.275C51.5125 289.436 50.9811 288.952 49.9418 288.952H48.7844V291.586ZM56.9837 290.334C58.5781 290.334 59.2513 291.539 59.2513 292.944C59.2513 293.145 59.2395 293.298 59.2159 293.499H55.4248C55.4838 294.834 56.0507 295.365 57.3735 295.365C57.964 295.365 58.5899 295.212 58.8852 295.058H58.9796V295.885C58.6962 296.062 58.0466 296.239 57.1963 296.239C55.1649 296.239 54.2792 295.117 54.2792 293.334C54.2792 291.539 55.2594 290.334 56.9837 290.334ZM56.9365 291.137C56.0861 291.137 55.5547 291.574 55.4484 292.743H58.1411C58.0939 291.775 57.7632 291.137 56.9365 291.137ZM62.0709 296.239C61.3387 296.239 60.6182 296.074 60.2757 295.885V295.046H60.3702C60.6537 295.2 61.4095 295.389 62.0237 295.389C62.9803 295.389 63.3464 295.117 63.3464 294.586C63.3464 294.054 62.6732 293.865 62.0237 293.676C61.1024 293.405 60.3584 293.098 60.3584 291.94C60.3584 290.948 61.0434 290.334 62.4606 290.334C63.1811 290.334 63.8542 290.464 64.2085 290.641V291.48H64.1141C63.8306 291.326 63.1692 291.161 62.5551 291.161C61.7048 291.161 61.4095 291.456 61.4095 291.869C61.4095 292.401 61.8583 292.566 62.437 292.732C63.3582 293.003 64.3975 293.298 64.3975 294.468C64.3975 295.566 63.618 296.239 62.0709 296.239ZM67.6881 296.239C66.6842 296.239 66.1409 295.731 66.1409 294.633V291.303H65.1134V290.452H66.1409V288.988H67.2275V290.452H68.9399V291.303H67.2275V294.479C67.2275 295.141 67.44 295.365 68.0305 295.365C68.3612 295.365 68.6447 295.318 68.7982 295.259H68.8927V296.086C68.7037 296.157 68.2786 296.239 67.6881 296.239ZM70.0633 295.424C70.0633 295.117 70.142 294.901 70.2995 294.775C70.457 294.649 70.6459 294.586 70.8664 294.586C71.0947 294.586 71.2876 294.649 71.4451 294.775C71.6026 294.901 71.6813 295.117 71.6813 295.424C71.6813 295.731 71.6026 295.952 71.4451 296.086C71.2876 296.22 71.0947 296.286 70.8664 296.286C70.6459 296.286 70.457 296.22 70.2995 296.086C70.142 295.952 70.0633 295.731 70.0633 295.424ZM70.0633 290.464C70.0633 290.141 70.142 289.917 70.2995 289.791C70.457 289.665 70.6459 289.602 70.8664 289.602C71.0947 289.602 71.2876 289.665 71.4451 289.791C71.6026 289.917 71.6813 290.141 71.6813 290.464C71.6813 290.763 71.6026 290.98 71.4451 291.114C71.2876 291.247 71.0947 291.314 70.8664 291.314C70.6459 291.314 70.457 291.247 70.2995 291.114C70.142 290.98 70.0633 290.763 70.0633 290.464Z" fill="#0B1A3E"/>
<path d="M242.912 296.334C242.824 297.048 242.786 297.357 242.456 298.053L237.396 299.098C237.512 298.346 237.667 297.766 237.919 297.418L242.912 296.334ZM235.864 291.413L237.377 291.085V286.308C237.94 285.675 238.286 285.391 238.966 285.032V290.74L242.912 289.884C242.824 290.597 242.785 290.906 242.456 291.602L238.966 292.339V293.944L242.912 293.109C242.824 293.823 242.785 294.132 242.456 294.827L238.966 295.547V295.563L237.377 295.892V292.675L235.864 292.994V295.022L235.837 295.027C235.489 295.637 234.999 296.37 234.526 296.954L229.561 297.9C229.605 297.262 229.698 296.901 229.986 296.258L234.274 295.327V293.331L230.301 294.172C230.345 293.533 230.438 293.173 230.727 292.529L234.274 291.758V285.419C234.838 284.787 235.184 284.502 235.864 284.144V291.413Z" fill="#0B1A3E"/>
<path d="M251.87 297.121L256.216 287.375L256.728 288.247H250.757L251.689 287.3V290.037H249.869V286.593H258.051V287.902L253.96 297.121H251.87ZM258.586 299.392L259.459 296.068L259.714 297.181C259.364 297.181 259.068 297.076 258.827 296.865C258.596 296.645 258.481 296.349 258.481 295.978C258.481 295.597 258.596 295.296 258.827 295.076C259.068 294.845 259.359 294.73 259.699 294.73C260.05 294.73 260.341 294.845 260.572 295.076C260.802 295.306 260.918 295.607 260.918 295.978C260.918 296.078 260.908 296.189 260.888 296.309C260.868 296.419 260.832 296.55 260.782 296.7C260.742 296.85 260.672 297.041 260.572 297.271L259.805 299.392H258.586ZM266.564 297.271C265.611 297.271 264.794 297.071 264.112 296.67C263.431 296.259 262.909 295.667 262.548 294.895C262.187 294.123 262.007 293.171 262.007 292.038C262.007 290.834 262.222 289.817 262.654 288.984C263.095 288.152 263.701 287.521 264.473 287.089C265.256 286.658 266.153 286.443 267.166 286.443C267.697 286.443 268.203 286.498 268.685 286.608C269.176 286.718 269.592 286.889 269.933 287.119L269.211 288.593C268.92 288.403 268.604 288.273 268.264 288.202C267.933 288.122 267.582 288.082 267.211 288.082C266.218 288.082 265.431 288.388 264.849 288.999C264.268 289.611 263.977 290.514 263.977 291.707C263.977 291.897 263.982 292.123 263.992 292.383C264.002 292.634 264.037 292.89 264.097 293.151L263.496 292.489C263.676 292.078 263.922 291.737 264.233 291.466C264.554 291.185 264.93 290.975 265.361 290.834C265.802 290.694 266.278 290.624 266.79 290.624C267.481 290.624 268.098 290.759 268.64 291.03C269.181 291.291 269.612 291.667 269.933 292.158C270.254 292.639 270.414 293.206 270.414 293.857C270.414 294.549 270.244 295.151 269.903 295.662C269.562 296.174 269.101 296.57 268.519 296.85C267.938 297.131 267.286 297.271 266.564 297.271ZM266.459 295.737C266.86 295.737 267.216 295.667 267.527 295.527C267.837 295.376 268.078 295.166 268.248 294.895C268.429 294.624 268.519 294.309 268.519 293.948C268.519 293.396 268.329 292.96 267.948 292.639C267.567 292.318 267.055 292.158 266.414 292.158C265.992 292.158 265.621 292.238 265.301 292.399C264.99 292.549 264.739 292.759 264.549 293.03C264.368 293.301 264.278 293.612 264.278 293.963C264.278 294.284 264.363 294.579 264.534 294.85C264.704 295.121 264.95 295.336 265.271 295.497C265.601 295.657 265.997 295.737 266.459 295.737ZM275.828 297.271C274.996 297.271 274.244 297.061 273.572 296.64C272.91 296.219 272.389 295.607 272.008 294.805C271.627 293.993 271.436 293.01 271.436 291.857C271.436 290.704 271.627 289.726 272.008 288.924C272.389 288.112 272.91 287.495 273.572 287.074C274.244 286.653 274.996 286.443 275.828 286.443C276.67 286.443 277.422 286.653 278.084 287.074C278.746 287.495 279.267 288.112 279.648 288.924C280.039 289.726 280.235 290.704 280.235 291.857C280.235 293.01 280.039 293.993 279.648 294.805C279.267 295.607 278.746 296.219 278.084 296.64C277.422 297.061 276.67 297.271 275.828 297.271ZM275.828 295.572C276.319 295.572 276.745 295.442 277.106 295.181C277.467 294.91 277.748 294.499 277.949 293.948C278.159 293.396 278.264 292.699 278.264 291.857C278.264 291.005 278.159 290.308 277.949 289.767C277.748 289.215 277.467 288.809 277.106 288.548C276.745 288.278 276.319 288.142 275.828 288.142C275.357 288.142 274.936 288.278 274.565 288.548C274.204 288.809 273.918 289.215 273.707 289.767C273.507 290.308 273.406 291.005 273.406 291.857C273.406 292.699 273.507 293.396 273.707 293.948C273.918 294.499 274.204 294.91 274.565 295.181C274.936 295.442 275.357 295.572 275.828 295.572ZM285.948 297.271C285.115 297.271 284.363 297.061 283.692 296.64C283.03 296.219 282.508 295.607 282.127 294.805C281.746 293.993 281.556 293.01 281.556 291.857C281.556 290.704 281.746 289.726 282.127 288.924C282.508 288.112 283.03 287.495 283.692 287.074C284.363 286.653 285.115 286.443 285.948 286.443C286.79 286.443 287.542 286.653 288.204 287.074C288.865 287.495 289.387 288.112 289.768 288.924C290.159 289.726 290.354 290.704 290.354 291.857C290.354 293.01 290.159 293.993 289.768 294.805C289.387 295.607 288.865 296.219 288.204 296.64C287.542 297.061 286.79 297.271 285.948 297.271ZM285.948 295.572C286.439 295.572 286.865 295.442 287.226 295.181C287.587 294.91 287.868 294.499 288.068 293.948C288.279 293.396 288.384 292.699 288.384 291.857C288.384 291.005 288.279 290.308 288.068 289.767C287.868 289.215 287.587 288.809 287.226 288.548C286.865 288.278 286.439 288.142 285.948 288.142C285.476 288.142 285.055 288.278 284.684 288.548C284.323 288.809 284.038 289.215 283.827 289.767C283.626 290.308 283.526 291.005 283.526 291.857C283.526 292.699 283.626 293.396 283.827 293.948C284.038 294.499 284.323 294.91 284.684 295.181C285.055 295.442 285.476 295.572 285.948 295.572Z" fill="#0B1A3E"/>
<path d="M49.2922 330.11C48.2883 330.11 47.7451 329.602 47.7451 328.504V325.174H46.7176V324.323H47.7451V322.859H48.8316V324.323H50.5441V325.174H48.8316V328.351C48.8316 329.012 49.0442 329.236 49.6347 329.236C49.9654 329.236 50.2488 329.189 50.4024 329.13H50.4968V329.957C50.3079 330.028 49.8827 330.11 49.2922 330.11ZM51.821 329.992V321.371H52.9075V324.831H52.9548C53.3563 324.5 53.9704 324.205 54.7381 324.205C55.9309 324.205 56.5451 324.784 56.5451 325.894V329.992H55.4585V326.189C55.4585 325.398 55.1278 325.091 54.3602 325.091C53.7933 325.091 53.2382 325.363 52.9075 325.658V329.992H51.821ZM58.4296 329.992V324.323H59.5162V329.992H58.4296ZM58.9729 323.095C58.5359 323.095 58.2643 322.847 58.2643 322.41C58.2643 321.961 58.5359 321.713 58.9729 321.713C59.4099 321.713 59.6933 321.961 59.6933 322.41C59.6933 322.847 59.4099 323.095 58.9729 323.095ZM62.7629 330.11C62.0307 330.11 61.3102 329.945 60.9677 329.756V328.917H61.0622C61.3457 329.071 62.1015 329.26 62.7157 329.26C63.6723 329.26 64.0384 328.988 64.0384 328.457C64.0384 327.925 63.3652 327.736 62.7157 327.547C61.7945 327.276 61.0504 326.969 61.0504 325.811C61.0504 324.819 61.7354 324.205 63.1526 324.205C63.8731 324.205 64.5462 324.335 64.9006 324.512V325.351H64.8061C64.5226 325.197 63.8613 325.032 63.2471 325.032C62.3968 325.032 62.1015 325.327 62.1015 325.74C62.1015 326.272 62.5503 326.437 63.129 326.603C64.0502 326.874 65.0895 327.17 65.0895 328.339C65.0895 329.437 64.31 330.11 62.7629 330.11ZM69.1904 329.992V324.323H70.2769V324.831H70.3241C70.7257 324.5 71.3398 324.205 72.1075 324.205C72.9106 324.205 73.4539 324.477 73.7255 324.996C74.257 324.548 74.8829 324.205 75.745 324.205C76.9379 324.205 77.552 324.772 77.552 325.894V329.992H76.4655V326.189C76.4655 325.398 76.123 325.091 75.3671 325.091C74.8002 325.091 74.2688 325.363 73.9026 325.646C73.9026 325.729 73.9145 325.811 73.9145 325.894V329.992H72.8279V326.189C72.8279 325.398 72.4972 325.091 71.7296 325.091C71.1627 325.091 70.6076 325.363 70.2769 325.658V329.992H69.1904ZM81.7112 330.11C79.9632 330.11 79.0184 328.953 79.0184 327.252C79.0184 325.445 80.0459 324.205 81.7584 324.205C83.5063 324.205 84.4511 325.363 84.4511 327.063C84.4511 328.87 83.4237 330.11 81.7112 330.11ZM81.7466 329.284C82.8095 329.284 83.3055 328.528 83.3055 327.146C83.3055 325.8 82.7977 325.032 81.723 325.032C80.6601 325.032 80.164 325.788 80.164 327.17C80.164 328.516 80.6719 329.284 81.7466 329.284ZM85.9369 329.992V324.323H87.0235V324.831H87.0707C87.4723 324.5 88.0864 324.205 88.8541 324.205C90.0469 324.205 90.661 324.784 90.661 325.894V329.992H89.5745V326.189C89.5745 325.398 89.2438 325.091 88.4761 325.091C87.9092 325.091 87.3542 325.363 87.0235 325.658V329.992H85.9369ZM94.388 330.11C93.3841 330.11 92.8409 329.602 92.8409 328.504V325.174H91.8134V324.323H92.8409V322.859H93.9274V324.323H95.6399V325.174H93.9274V328.351C93.9274 329.012 94.14 329.236 94.7305 329.236C95.0612 329.236 95.3446 329.189 95.4982 329.13H95.5926V329.957C95.4037 330.028 94.9785 330.11 94.388 330.11ZM96.9168 329.992V321.371H98.0033V324.831H98.0506C98.4521 324.5 99.0662 324.205 99.8339 324.205C101.027 324.205 101.641 324.784 101.641 325.894V329.992H100.554V326.189C100.554 325.398 100.224 325.091 99.456 325.091C98.8891 325.091 98.334 325.363 98.0033 325.658V329.992H96.9168ZM103.372 329.295C103.372 328.988 103.451 328.772 103.608 328.646C103.766 328.52 103.955 328.457 104.175 328.457C104.403 328.457 104.596 328.52 104.754 328.646C104.911 328.772 104.99 328.988 104.99 329.295C104.99 329.602 104.911 329.823 104.754 329.957C104.596 330.091 104.403 330.158 104.175 330.158C103.955 330.158 103.766 330.091 103.608 329.957C103.451 329.823 103.372 329.602 103.372 329.295ZM103.372 324.335C103.372 324.012 103.451 323.788 103.608 323.662C103.766 323.536 103.955 323.473 104.175 323.473C104.403 323.473 104.596 323.536 104.754 323.662C104.911 323.788 104.99 324.012 104.99 324.335C104.99 324.634 104.911 324.851 104.754 324.985C104.596 325.118 104.403 325.185 104.175 325.185C103.955 325.185 103.766 325.118 103.608 324.985C103.451 324.851 103.372 324.634 103.372 324.335Z" fill="#0B1A3E"/>
<path d="M241.912 330.205C241.824 330.919 241.786 331.228 241.456 331.924L236.396 332.969C236.512 332.217 236.667 331.637 236.919 331.289L241.912 330.205ZM234.864 325.284L236.377 324.956V320.179C236.94 319.546 237.286 319.262 237.966 318.903V324.611L241.912 323.755C241.824 324.468 241.785 324.777 241.456 325.473L237.966 326.21V327.815L241.912 326.98C241.824 327.694 241.785 328.003 241.456 328.698L237.966 329.418V329.435L236.377 329.763V326.546L234.864 326.865V328.894L234.837 328.898C234.489 329.508 233.999 330.241 233.526 330.825L228.561 331.771C228.605 331.133 228.698 330.772 228.986 330.129L233.274 329.198V327.202L229.301 328.043C229.345 327.404 229.438 327.044 229.727 326.4L233.274 325.629V319.29C233.838 318.658 234.184 318.374 234.864 318.015V325.284Z" fill="#0B1A3E"/>
<path d="M252.419 331.143C251.677 331.143 250.95 331.037 250.238 330.827C249.536 330.606 248.945 330.305 248.463 329.924L249.306 328.405C249.687 328.716 250.148 328.967 250.689 329.157C251.231 329.348 251.797 329.443 252.389 329.443C253.091 329.443 253.637 329.303 254.028 329.022C254.419 328.731 254.615 328.34 254.615 327.849C254.615 327.368 254.434 326.987 254.073 326.706C253.712 326.425 253.131 326.285 252.329 326.285H251.366V324.946L254.374 321.367L254.63 322.104H248.975V320.464H256.149V321.773L253.141 325.352L252.118 324.751H252.705C253.998 324.751 254.966 325.041 255.607 325.623C256.259 326.194 256.585 326.931 256.585 327.834C256.585 328.425 256.434 328.972 256.134 329.473C255.833 329.974 255.372 330.381 254.75 330.691C254.138 330.992 253.361 331.143 252.419 331.143ZM257.939 333.263L258.811 329.939L259.067 331.052C258.716 331.052 258.42 330.947 258.18 330.737C257.949 330.516 257.834 330.22 257.834 329.849C257.834 329.468 257.949 329.167 258.18 328.947C258.42 328.716 258.711 328.601 259.052 328.601C259.403 328.601 259.694 328.716 259.924 328.947C260.155 329.177 260.27 329.478 260.27 329.849C260.27 329.949 260.26 330.06 260.24 330.18C260.22 330.29 260.185 330.421 260.135 330.571C260.095 330.721 260.024 330.912 259.924 331.143L259.157 333.263H257.939ZM265.751 331.143C264.919 331.143 264.167 330.932 263.495 330.511C262.833 330.09 262.312 329.478 261.931 328.676C261.55 327.864 261.359 326.881 261.359 325.728C261.359 324.575 261.55 323.598 261.931 322.795C262.312 321.983 262.833 321.367 263.495 320.945C264.167 320.524 264.919 320.314 265.751 320.314C266.593 320.314 267.345 320.524 268.007 320.945C268.669 321.367 269.19 321.983 269.571 322.795C269.962 323.598 270.158 324.575 270.158 325.728C270.158 326.881 269.962 327.864 269.571 328.676C269.19 329.478 268.669 330.09 268.007 330.511C267.345 330.932 266.593 331.143 265.751 331.143ZM265.751 329.443C266.242 329.443 266.668 329.313 267.029 329.052C267.39 328.781 267.671 328.37 267.872 327.819C268.082 327.267 268.188 326.57 268.188 325.728C268.188 324.876 268.082 324.179 267.872 323.638C267.671 323.086 267.39 322.68 267.029 322.419C266.668 322.149 266.242 322.013 265.751 322.013C265.28 322.013 264.859 322.149 264.488 322.419C264.127 322.68 263.841 323.086 263.63 323.638C263.43 324.179 263.33 324.876 263.33 325.728C263.33 326.57 263.43 327.267 263.63 327.819C263.841 328.37 264.127 328.781 264.488 329.052C264.859 329.313 265.28 329.443 265.751 329.443ZM275.871 331.143C275.039 331.143 274.287 330.932 273.615 330.511C272.953 330.09 272.432 329.478 272.051 328.676C271.67 327.864 271.479 326.881 271.479 325.728C271.479 324.575 271.67 323.598 272.051 322.795C272.432 321.983 272.953 321.367 273.615 320.945C274.287 320.524 275.039 320.314 275.871 320.314C276.713 320.314 277.465 320.524 278.127 320.945C278.789 321.367 279.31 321.983 279.691 322.795C280.082 323.598 280.277 324.575 280.277 325.728C280.277 326.881 280.082 327.864 279.691 328.676C279.31 329.478 278.789 330.09 278.127 330.511C277.465 330.932 276.713 331.143 275.871 331.143ZM275.871 329.443C276.362 329.443 276.788 329.313 277.149 329.052C277.51 328.781 277.791 328.37 277.991 327.819C278.202 327.267 278.307 326.57 278.307 325.728C278.307 324.876 278.202 324.179 277.991 323.638C277.791 323.086 277.51 322.68 277.149 322.419C276.788 322.149 276.362 322.013 275.871 322.013C275.399 322.013 274.978 322.149 274.607 322.419C274.246 322.68 273.961 323.086 273.75 323.638C273.55 324.179 273.449 324.876 273.449 325.728C273.449 326.57 273.55 327.267 273.75 327.819C273.961 328.37 274.246 328.781 274.607 329.052C274.978 329.313 275.399 329.443 275.871 329.443ZM285.99 331.143C285.158 331.143 284.406 330.932 283.734 330.511C283.073 330.09 282.551 329.478 282.17 328.676C281.789 327.864 281.599 326.881 281.599 325.728C281.599 324.575 281.789 323.598 282.17 322.795C282.551 321.983 283.073 321.367 283.734 320.945C284.406 320.524 285.158 320.314 285.99 320.314C286.833 320.314 287.585 320.524 288.246 320.945C288.908 321.367 289.43 321.983 289.811 322.795C290.202 323.598 290.397 324.575 290.397 325.728C290.397 326.881 290.202 327.864 289.811 328.676C289.43 329.478 288.908 330.09 288.246 330.511C287.585 330.932 286.833 331.143 285.99 331.143ZM285.99 329.443C286.482 329.443 286.908 329.313 287.269 329.052C287.63 328.781 287.911 328.37 288.111 327.819C288.322 327.267 288.427 326.57 288.427 325.728C288.427 324.876 288.322 324.179 288.111 323.638C287.911 323.086 287.63 322.68 287.269 322.419C286.908 322.149 286.482 322.013 285.99 322.013C285.519 322.013 285.098 322.149 284.727 322.419C284.366 322.68 284.08 323.086 283.87 323.638C283.669 324.179 283.569 324.876 283.569 325.728C283.569 326.57 283.669 327.267 283.87 327.819C284.08 328.37 284.366 328.781 284.727 329.052C285.098 329.313 285.519 329.443 285.99 329.443Z" fill="#0B1A3E"/>
</g>
<defs>
<filter id="filter0_d_8056_376" x="-0.000286102" y="-0.000286102" width="337.942" height="369.155" filterUnits="userSpaceOnUse" color-interpolation-filters="sRGB">
<feFlood flood-opacity="0" result="BackgroundImageFix"/>
<feColorMatrix in="SourceAlpha" type="matrix" values="0 0 0 0 0 0 0 0 0 0 0 0 0 0 0 0 0 0 127 0" result="hardAlpha"/>
<feOffset/>
<feGaussianBlur stdDeviation="10.0387"/>
<feComposite in2="hardAlpha" operator="out"/>
<feColorMatrix type="matrix" values="0 0 0 0 0 0 0 0 0 0 0 0 0 0 0 0 0 0 0.08 0"/>
<feBlend mode="normal" in2="BackgroundImageFix" result="effect1_dropShadow_8056_376"/>
<feBlend mode="normal" in="SourceGraphic" in2="effect1_dropShadow_8056_376" result="shape"/>
</filter>
<linearGradient id="paint0_linear_8056_376" x1="343.987" y1="97.5312" x2="343.987" y2="266.249" gradientUnits="userSpaceOnUse">
<stop stop-color="#00C412"/>
<stop offset="1" stop-color="white"/>
</linearGradient>
<clipPath id="clip0_8056_376">
<rect width="267.418" height="168.718" fill="white" transform="translate(35.2617 97.5312)"/>
</clipPath>
</defs>
</svg>
