<svg width="24" height="24" viewBox="0 0 24 24" fill="none" xmlns="http://www.w3.org/2000/svg">
<path d="M7.68043 1.43945C4.23883 1.43945 1.44043 4.23785 1.44043 7.67945V16.3195C1.44043 19.7611 4.23883 22.5595 7.68043 22.5595H16.3204C19.762 22.5595 22.5604 19.7611 22.5604 16.3195V7.67945C22.5604 4.23785 19.762 1.43945 16.3204 1.43945H7.68043ZM17.7604 5.27945C18.2884 5.27945 18.7204 5.71145 18.7204 6.23945C18.7204 6.76745 18.2884 7.19945 17.7604 7.19945C17.2324 7.19945 16.8004 6.76745 16.8004 6.23945C16.8004 5.71145 17.2324 5.27945 17.7604 5.27945ZM12.0004 6.71945C14.914 6.71945 17.2804 9.08585 17.2804 11.9995C17.2804 14.9131 14.914 17.2795 12.0004 17.2795C9.08683 17.2795 6.72043 14.9131 6.72043 11.9995C6.72043 9.08585 9.08683 6.71945 12.0004 6.71945ZM12.0004 7.67945C9.61963 7.67945 7.68043 9.61865 7.68043 11.9995C7.68043 14.3803 9.61963 16.3195 12.0004 16.3195C14.3812 16.3195 16.3204 14.3803 16.3204 11.9995C16.3204 9.61865 14.3812 7.67945 12.0004 7.67945Z" fill="#E7E8EC"/>
</svg>
