<svg width="287" height="357" viewBox="0 0 287 357" fill="none" xmlns="http://www.w3.org/2000/svg">
<g filter="url(#filter0_d_8122_1094)">
<path d="M13.877 25.877C13.877 19.2495 19.2495 13.877 25.877 13.877H260.471C267.098 13.877 272.471 19.2495 272.471 25.877V330.877C272.471 337.504 267.098 342.877 260.471 342.877H25.877C19.2495 342.877 13.877 337.504 13.877 330.877V25.877Z" fill="#0B1A3E" shape-rendering="crispEdges"/>
<g clip-path="url(#clip0_8122_1094)">
<rect x="35.9199" y="28.3525" width="31.584" height="31.584" rx="5.264" fill="#08234F"/>
<path d="M58.292 50.7246H45.132" stroke="#E7E8EC" stroke-width="0.987" stroke-miterlimit="10" stroke-linecap="round" stroke-linejoin="round"/>
<path d="M57.667 50.7253L57.6341 42.8096C57.6341 42.4082 57.4433 42.0266 57.1274 41.7765L52.5214 38.1904C52.0477 37.8219 51.3831 37.8219 50.9028 38.1904L46.2968 41.7699C45.9743 42.02 45.7901 42.4016 45.7901 42.8096V50.7253" stroke="#E7E8EC" stroke-width="0.987" stroke-miterlimit="10" stroke-linejoin="round"/>
<path d="M51.0544 47.4346H52.3704C52.9166 47.4346 53.3574 47.8754 53.3574 48.4216V50.7246H50.0674V48.4216C50.0674 47.8754 50.5083 47.4346 51.0544 47.4346Z" stroke="#E7E8EC" stroke-width="0.987" stroke-miterlimit="10" stroke-linejoin="round"/>
<path d="M53.3571 45.2962H54.6731C55.035 45.2962 55.3311 45.0001 55.3311 44.6382V43.6512C55.3311 43.2893 55.035 42.9932 54.6731 42.9932H53.3571C52.9952 42.9932 52.6991 43.2893 52.6991 43.6512V44.6382C52.6991 45.0001 52.9952 45.2962 53.3571 45.2962Z" stroke="#E7E8EC" stroke-width="0.987" stroke-miterlimit="10" stroke-linejoin="round"/>
<path d="M48.7516 45.2962H50.0676C50.4295 45.2962 50.7256 45.0001 50.7256 44.6382V43.6512C50.7256 43.2893 50.4295 42.9932 50.0676 42.9932H48.7516C48.3897 42.9932 48.0936 43.2893 48.0936 43.6512V44.6382C48.0936 45.0001 48.3897 45.2962 48.7516 45.2962Z" stroke="#E7E8EC" stroke-width="0.987" stroke-miterlimit="10" stroke-linejoin="round"/>
<path d="M47.1065 40.8549L47.1263 38.8809H50.0215" stroke="#E7E8EC" stroke-width="0.987" stroke-miterlimit="10" stroke-linecap="round" stroke-linejoin="round"/>
<path d="M80.2534 40.2759H81.622V47.6455H80.2534V40.2759ZM76.4423 47.6455H75.0736V40.2759H76.4423V47.6455ZM80.3587 44.4871H76.3264V43.3185H80.3587V44.4871ZM85.9972 47.7192C85.4216 47.7192 84.9093 47.5964 84.4601 47.3507C84.0109 47.0981 83.6564 46.7541 83.3967 46.319C83.137 45.8838 83.0072 45.389 83.0072 44.8345C83.0072 44.273 83.137 43.7782 83.3967 43.3501C83.6564 42.9149 84.0109 42.5745 84.4601 42.3289C84.9093 42.0832 85.4216 41.9604 85.9972 41.9604C86.5797 41.9604 87.0956 42.0832 87.5448 42.3289C88.001 42.5745 88.3554 42.9114 88.6081 43.3396C88.8678 43.7677 88.9976 44.266 88.9976 44.8345C88.9976 45.389 88.8678 45.8838 88.6081 46.319C88.3554 46.7541 88.001 47.0981 87.5448 47.3507C87.0956 47.5964 86.5797 47.7192 85.9972 47.7192ZM85.9972 46.5927C86.32 46.5927 86.6078 46.5225 86.8605 46.3821C87.1131 46.2418 87.3096 46.0382 87.45 45.7715C87.5974 45.5048 87.6711 45.1925 87.6711 44.8345C87.6711 44.4696 87.5974 44.1572 87.45 43.8975C87.3096 43.6308 87.1131 43.4273 86.8605 43.2869C86.6078 43.1465 86.3235 43.0764 86.0077 43.0764C85.6848 43.0764 85.3971 43.1465 85.1444 43.2869C84.8987 43.4273 84.7022 43.6308 84.5548 43.8975C84.4074 44.1572 84.3337 44.4696 84.3337 44.8345C84.3337 45.1925 84.4074 45.5048 84.5548 45.7715C84.7022 46.0382 84.8987 46.2418 85.1444 46.3821C85.3971 46.5225 85.6813 46.5927 85.9972 46.5927ZM92.6354 47.7192C92.1581 47.7192 91.737 47.6315 91.372 47.456C91.0071 47.2735 90.7228 46.9998 90.5193 46.6348C90.3157 46.2628 90.2139 45.7961 90.2139 45.2346V42.0236H91.5299V45.0556C91.5299 45.561 91.6422 45.94 91.8668 46.1926C92.0985 46.4383 92.4248 46.5611 92.8459 46.5611C93.1548 46.5611 93.4215 46.498 93.6461 46.3716C93.8777 46.2453 94.0567 46.0558 94.183 45.8031C94.3164 45.5504 94.383 45.2381 94.383 44.8661V42.0236H95.699V47.6455H94.4462V46.1295L94.6673 46.5927C94.4778 46.9577 94.2006 47.2384 93.8356 47.4349C93.4706 47.6245 93.0705 47.7192 92.6354 47.7192ZM99.1592 47.7192C98.689 47.7192 98.2363 47.6595 97.8011 47.5402C97.373 47.4139 97.0326 47.263 96.7799 47.0875L97.2852 46.0874C97.5379 46.2488 97.8397 46.3821 98.1906 46.4874C98.5416 46.5927 98.8925 46.6453 99.2434 46.6453C99.6575 46.6453 99.9558 46.5892 100.138 46.4769C100.328 46.3646 100.423 46.2137 100.423 46.0242C100.423 45.8698 100.359 45.754 100.233 45.6768C100.107 45.5925 99.9418 45.5294 99.7383 45.4873C99.5347 45.4452 99.3066 45.4066 99.0539 45.3715C98.8083 45.3364 98.5591 45.2907 98.3064 45.2346C98.0608 45.1714 97.8362 45.0837 97.6327 44.9714C97.4291 44.8521 97.2642 44.6942 97.1378 44.4976C97.0115 44.3011 96.9483 44.0414 96.9483 43.7186C96.9483 43.3606 97.0501 43.0518 97.2536 42.7921C97.4572 42.5254 97.7414 42.3218 98.1064 42.1815C98.4784 42.0341 98.9171 41.9604 99.4224 41.9604C99.8014 41.9604 100.184 42.0025 100.57 42.0867C100.956 42.1709 101.275 42.2903 101.528 42.4447L101.023 43.4448C100.756 43.2834 100.486 43.1746 100.212 43.1185C99.9453 43.0553 99.6786 43.0237 99.4119 43.0237C99.0118 43.0237 98.7135 43.0834 98.517 43.2027C98.3275 43.322 98.2327 43.4729 98.2327 43.6554C98.2327 43.8238 98.2959 43.9502 98.4223 44.0344C98.5486 44.1186 98.7135 44.1853 98.9171 44.2344C99.1206 44.2836 99.3452 44.3257 99.5909 44.3608C99.8435 44.3888 100.093 44.4345 100.338 44.4976C100.584 44.5608 100.809 44.6485 101.012 44.7608C101.223 44.8661 101.391 45.017 101.517 45.2135C101.644 45.4101 101.707 45.6662 101.707 45.9821C101.707 46.333 101.602 46.6383 101.391 46.898C101.188 47.1577 100.896 47.3613 100.517 47.5086C100.138 47.649 99.6856 47.7192 99.1592 47.7192ZM102.84 47.6455V42.0236H104.156V47.6455H102.84ZM103.504 41.0971C103.258 41.0971 103.054 41.0199 102.893 40.8655C102.739 40.7111 102.661 40.5251 102.661 40.3075C102.661 40.0829 102.739 39.8969 102.893 39.7495C103.054 39.5951 103.258 39.5179 103.504 39.5179C103.749 39.5179 103.949 39.5916 104.104 39.739C104.265 39.8794 104.346 40.0583 104.346 40.2759C104.346 40.5075 104.269 40.704 104.114 40.8655C103.96 41.0199 103.756 41.0971 103.504 41.0971ZM109.074 41.9604C109.523 41.9604 109.923 42.0481 110.274 42.2236C110.632 42.3991 110.912 42.6693 111.116 43.0342C111.32 43.3922 111.421 43.8554 111.421 44.4239V47.6455H110.105V44.5924C110.105 44.0941 109.986 43.7221 109.747 43.4764C109.516 43.2308 109.189 43.1079 108.768 43.1079C108.459 43.1079 108.186 43.1711 107.947 43.2974C107.708 43.4238 107.522 43.6133 107.389 43.866C107.263 44.1116 107.2 44.4239 107.2 44.8029V47.6455H105.884V42.0236H107.136V43.5396L106.915 43.0764C107.112 42.7184 107.396 42.4447 107.768 42.2552C108.147 42.0586 108.582 41.9604 109.074 41.9604ZM115.649 49.7616C115.129 49.7616 114.621 49.6914 114.122 49.5511C113.631 49.4177 113.227 49.2212 112.911 48.9615L113.501 47.9719C113.747 48.1754 114.056 48.3368 114.428 48.4562C114.807 48.5825 115.189 48.6457 115.575 48.6457C116.193 48.6457 116.645 48.5018 116.933 48.214C117.221 47.9333 117.365 47.5086 117.365 46.9401V45.94L117.47 44.6661L117.428 43.3922V42.0236H118.681V46.7927C118.681 47.8104 118.421 48.5579 117.902 49.0352C117.382 49.5195 116.631 49.7616 115.649 49.7616ZM115.48 47.3928C114.947 47.3928 114.463 47.2805 114.027 47.0559C113.599 46.8243 113.259 46.505 113.006 46.0979C112.761 45.6908 112.638 45.2135 112.638 44.6661C112.638 44.1256 112.761 43.6519 113.006 43.2448C113.259 42.8377 113.599 42.5219 114.027 42.2973C114.463 42.0727 114.947 41.9604 115.48 41.9604C115.958 41.9604 116.386 42.0551 116.765 42.2446C117.144 42.4341 117.446 42.7289 117.67 43.129C117.902 43.5291 118.018 44.0414 118.018 44.6661C118.018 45.2907 117.902 45.8066 117.67 46.2137C117.446 46.6138 117.144 46.9121 116.765 47.1086C116.386 47.2981 115.958 47.3928 115.48 47.3928ZM115.68 46.2769C116.01 46.2769 116.305 46.2102 116.565 46.0768C116.824 45.9365 117.024 45.747 117.165 45.5083C117.312 45.2627 117.386 44.9819 117.386 44.6661C117.386 44.3502 117.312 44.073 117.165 43.8344C117.024 43.5887 116.824 43.4027 116.565 43.2764C116.305 43.143 116.01 43.0764 115.68 43.0764C115.35 43.0764 115.052 43.143 114.785 43.2764C114.526 43.4027 114.322 43.5887 114.175 43.8344C114.034 44.073 113.964 44.3502 113.964 44.6661C113.964 44.9819 114.034 45.2627 114.175 45.5083C114.322 45.747 114.526 45.9365 114.785 46.0768C115.052 46.2102 115.35 46.2769 115.68 46.2769ZM125.574 47.7508C125.061 47.7508 124.601 47.6666 124.194 47.4981C123.787 47.3297 123.468 47.0981 123.236 46.8033C123.005 46.5085 122.889 46.1681 122.889 45.7821C122.889 45.4311 122.966 45.1153 123.121 44.8345C123.275 44.5538 123.521 44.2871 123.857 44.0344C124.194 43.7747 124.626 43.515 125.152 43.2553C125.567 43.0518 125.889 42.8728 126.121 42.7184C126.36 42.564 126.525 42.4166 126.616 42.2762C126.714 42.1359 126.763 41.9885 126.763 41.8341C126.763 41.6235 126.69 41.455 126.542 41.3287C126.395 41.1954 126.184 41.1287 125.91 41.1287C125.616 41.1287 125.384 41.2024 125.216 41.3498C125.054 41.4901 124.973 41.6761 124.973 41.9077C124.973 42.0271 124.995 42.1429 125.037 42.2552C125.086 42.3675 125.17 42.4938 125.289 42.6342C125.409 42.7746 125.581 42.9535 125.805 43.1711L129.701 46.9085L128.974 47.7613L124.763 43.7186C124.524 43.4869 124.331 43.2729 124.184 43.0764C124.036 42.8798 123.931 42.6903 123.868 42.5078C123.805 42.3183 123.773 42.1253 123.773 41.9288C123.773 41.5849 123.861 41.2831 124.036 41.0234C124.212 40.7567 124.461 40.5531 124.784 40.4128C125.107 40.2654 125.482 40.1917 125.91 40.1917C126.311 40.1917 126.654 40.2584 126.942 40.3917C127.237 40.5181 127.465 40.704 127.627 40.9497C127.795 41.1883 127.879 41.4761 127.879 41.813C127.879 42.1078 127.805 42.3815 127.658 42.6342C127.511 42.8798 127.279 43.115 126.963 43.3396C126.654 43.5642 126.24 43.7993 125.721 44.0449C125.335 44.2344 125.03 44.4134 124.805 44.5819C124.58 44.7503 124.419 44.9188 124.321 45.0872C124.222 45.2557 124.173 45.4416 124.173 45.6452C124.173 45.8487 124.233 46.0277 124.352 46.1821C124.479 46.3365 124.654 46.4594 124.879 46.5506C125.103 46.6348 125.367 46.6769 125.668 46.6769C126.117 46.6769 126.525 46.5787 126.89 46.3821C127.262 46.1786 127.574 45.8768 127.827 45.4767C128.079 45.0767 128.262 44.5819 128.374 43.9923L129.437 44.3397C129.29 45.0486 129.034 45.6592 128.669 46.1716C128.311 46.6769 127.869 47.0665 127.342 47.3402C126.816 47.6139 126.226 47.7508 125.574 47.7508ZM133.79 47.6455V40.2759H136.822C137.475 40.2759 138.033 40.3812 138.496 40.5917C138.966 40.8023 139.328 41.1041 139.58 41.4972C139.833 41.8902 139.959 42.3569 139.959 42.8974C139.959 43.4378 139.833 43.9046 139.58 44.2976C139.328 44.6836 138.966 44.9819 138.496 45.1925C138.033 45.396 137.475 45.4978 136.822 45.4978H134.548L135.158 44.8766V47.6455H133.79ZM138.612 47.6455L136.748 44.9714H138.212L140.086 47.6455H138.612ZM135.158 45.024L134.548 44.3713H136.759C137.362 44.3713 137.815 44.2415 138.117 43.9818C138.426 43.7221 138.58 43.3606 138.58 42.8974C138.58 42.4271 138.426 42.0657 138.117 41.813C137.815 41.5603 137.362 41.434 136.759 41.434H134.548L135.158 40.7602V45.024ZM144.007 47.7192C143.382 47.7192 142.835 47.5964 142.364 47.3507C141.901 47.0981 141.54 46.7541 141.28 46.319C141.027 45.8838 140.901 45.389 140.901 44.8345C140.901 44.273 141.024 43.7782 141.269 43.3501C141.522 42.9149 141.866 42.5745 142.301 42.3289C142.743 42.0832 143.245 41.9604 143.807 41.9604C144.354 41.9604 144.842 42.0797 145.27 42.3183C145.698 42.557 146.035 42.8939 146.281 43.329C146.526 43.7642 146.649 44.2765 146.649 44.8661C146.649 44.9223 146.646 44.9854 146.639 45.0556C146.639 45.1258 146.635 45.1925 146.628 45.2557H141.943V44.3818H145.933L145.417 44.6556C145.424 44.3327 145.358 44.0484 145.217 43.8028C145.077 43.5571 144.884 43.3641 144.638 43.2237C144.4 43.0834 144.122 43.0132 143.807 43.0132C143.484 43.0132 143.2 43.0834 142.954 43.2237C142.715 43.3641 142.526 43.5606 142.385 43.8133C142.252 44.059 142.185 44.3502 142.185 44.6871V44.8977C142.185 45.2346 142.263 45.5329 142.417 45.7926C142.571 46.0523 142.789 46.2523 143.07 46.3927C143.35 46.533 143.673 46.6032 144.038 46.6032C144.354 46.6032 144.638 46.5541 144.891 46.4558C145.144 46.3576 145.368 46.2032 145.565 45.9926L146.27 46.8033C146.018 47.0981 145.698 47.3262 145.312 47.4876C144.933 47.642 144.498 47.7192 144.007 47.7192ZM151.103 41.9604C151.552 41.9604 151.953 42.0481 152.303 42.2236C152.661 42.3991 152.942 42.6693 153.146 43.0342C153.349 43.3922 153.451 43.8554 153.451 44.4239V47.6455H152.135V44.5924C152.135 44.0941 152.016 43.7221 151.777 43.4764C151.545 43.2308 151.219 43.1079 150.798 43.1079C150.489 43.1079 150.215 43.1711 149.977 43.2974C149.738 43.4238 149.552 43.6133 149.419 43.866C149.292 44.1116 149.229 44.4239 149.229 44.8029V47.6455H147.913V42.0236H149.166V43.5396L148.945 43.0764C149.142 42.7184 149.426 42.4447 149.798 42.2552C150.177 42.0586 150.612 41.9604 151.103 41.9604ZM157.237 47.7192C156.619 47.7192 156.142 47.5613 155.805 47.2454C155.468 46.9226 155.299 46.4488 155.299 45.8242V40.7813H156.615V45.7926C156.615 46.0593 156.682 46.2663 156.815 46.4137C156.956 46.5611 157.149 46.6348 157.395 46.6348C157.689 46.6348 157.935 46.5576 158.131 46.4032L158.5 47.3402C158.346 47.4665 158.156 47.5613 157.931 47.6245C157.707 47.6876 157.475 47.7192 157.237 47.7192ZM154.373 43.1185V42.0657H158.121V43.1185H154.373Z" fill="#E7E8EC"/>
<rect x="35.9199" y="73.0977" width="31.584" height="31.584" rx="5.264" fill="#08234F"/>
<path d="M55.0028 94.4829H48.4228C46.4488 94.4829 45.1328 93.4959 45.1328 91.1929V86.5869C45.1328 84.2839 46.4488 83.2969 48.4228 83.2969H55.0028C56.9768 83.2969 58.2928 84.2839 58.2928 86.5869V91.1929C58.2928 93.4959 56.9768 94.4829 55.0028 94.4829Z" stroke="#E7E8EC" stroke-width="0.987" stroke-miterlimit="10" stroke-linecap="round" stroke-linejoin="round"/>
<path d="M51.7123 90.864C52.8025 90.864 53.6863 89.9802 53.6863 88.89C53.6863 87.7998 52.8025 86.916 51.7123 86.916C50.6221 86.916 49.7383 87.7998 49.7383 88.89C49.7383 89.9802 50.6221 90.864 51.7123 90.864Z" stroke="#E7E8EC" stroke-width="0.987" stroke-miterlimit="10" stroke-linecap="round" stroke-linejoin="round"/>
<path d="M47.4355 87.2451V90.5351" stroke="#E7E8EC" stroke-width="0.987" stroke-miterlimit="10" stroke-linecap="round" stroke-linejoin="round"/>
<path d="M55.9893 87.2451V90.5351" stroke="#E7E8EC" stroke-width="0.987" stroke-miterlimit="10" stroke-linecap="round" stroke-linejoin="round"/>
<path d="M75.0736 92.3896V85.02H76.4423V91.2316H80.2955V92.3896H75.0736ZM83.725 92.4633C83.1495 92.4633 82.6371 92.3405 82.1879 92.0949C81.7387 91.8422 81.3843 91.4983 81.1246 91.0631C80.8649 90.628 80.735 90.1331 80.735 89.5787C80.735 89.0172 80.8649 88.5224 81.1246 88.0942C81.3843 87.6591 81.7387 87.3187 82.1879 87.073C82.6371 86.8274 83.1495 86.7045 83.725 86.7045C84.3075 86.7045 84.8234 86.8274 85.2726 87.073C85.7288 87.3187 86.0833 87.6556 86.3359 88.0837C86.5956 88.5118 86.7255 89.0102 86.7255 89.5787C86.7255 90.1331 86.5956 90.628 86.3359 91.0631C86.0833 91.4983 85.7288 91.8422 85.2726 92.0949C84.8234 92.3405 84.3075 92.4633 83.725 92.4633ZM83.725 91.3368C84.0479 91.3368 84.3356 91.2667 84.5883 91.1263C84.841 90.9859 85.0375 90.7824 85.1779 90.5157C85.3253 90.249 85.399 89.9366 85.399 89.5787C85.399 89.2137 85.3253 88.9014 85.1779 88.6417C85.0375 88.375 84.841 88.1714 84.5883 88.0311C84.3356 87.8907 84.0514 87.8205 83.7355 87.8205C83.4127 87.8205 83.1249 87.8907 82.8722 88.0311C82.6266 88.1714 82.4301 88.375 82.2827 88.6417C82.1353 88.9014 82.0616 89.2137 82.0616 89.5787C82.0616 89.9366 82.1353 90.249 82.2827 90.5157C82.4301 90.7824 82.6266 90.9859 82.8722 91.1263C83.1249 91.2667 83.4092 91.3368 83.725 91.3368ZM91.3756 92.3896V91.2526L91.302 91.0105V89.0207C91.302 88.6347 91.1861 88.3364 90.9545 88.1258C90.7229 87.9082 90.372 87.7994 89.9017 87.7994C89.5859 87.7994 89.2736 87.8486 88.9647 87.9468C88.6629 88.0451 88.4068 88.182 88.1962 88.3574L87.6803 87.3994C87.9821 87.1678 88.3401 86.9958 88.7542 86.8835C89.1753 86.7642 89.6105 86.7045 90.0596 86.7045C90.8738 86.7045 91.502 86.9011 91.9442 87.2941C92.3934 87.6801 92.618 88.2802 92.618 89.0944V92.3896H91.3756ZM89.6069 92.4633C89.1858 92.4633 88.8173 92.3932 88.5015 92.2528C88.1857 92.1054 87.94 91.9054 87.7645 91.6527C87.5961 91.393 87.5119 91.1017 87.5119 90.7789C87.5119 90.463 87.5856 90.1788 87.733 89.9261C87.8874 89.6734 88.1365 89.4734 88.4804 89.326C88.8244 89.1786 89.2806 89.1049 89.8491 89.1049H91.4809V89.9787H89.9438C89.4946 89.9787 89.1928 90.0524 89.0384 90.1998C88.884 90.3402 88.8068 90.5157 88.8068 90.7262C88.8068 90.9649 88.9016 91.1544 89.0911 91.2947C89.2806 91.4351 89.5438 91.5053 89.8807 91.5053C90.2035 91.5053 90.4913 91.4316 90.744 91.2842C91.0037 91.1368 91.1897 90.9192 91.302 90.6315L91.523 91.4211C91.3967 91.7509 91.1686 92.0071 90.8387 92.1896C90.5159 92.3721 90.1053 92.4633 89.6069 92.4633ZM97.4969 86.7045C97.9461 86.7045 98.3461 86.7923 98.697 86.9677C99.055 87.1432 99.3357 87.4134 99.5393 87.7784C99.7428 88.1363 99.8446 88.5996 99.8446 89.1681V92.3896H98.5286V89.3365C98.5286 88.8382 98.4093 88.4662 98.1706 88.2206C97.939 87.9749 97.6127 87.8521 97.1915 87.8521C96.8827 87.8521 96.609 87.9152 96.3704 88.0416C96.1317 88.1679 95.9457 88.3574 95.8124 88.6101C95.686 88.8557 95.6229 89.1681 95.6229 89.5471V92.3896H94.3069V86.7677H95.5597V88.2837L95.3386 87.8205C95.5351 87.4625 95.8194 87.1888 96.1914 86.9993C96.5704 86.8028 97.0056 86.7045 97.4969 86.7045Z" fill="#E7E8EC"/>
<rect x="35.9199" y="117.842" width="31.584" height="31.584" rx="5.264" fill="#08234F"/>
<path d="M55.5226 132.628V137.444C55.5226 138.977 54.279 140.214 52.7525 140.214H47.903C46.3764 140.214 45.1328 138.971 45.1328 137.444V132.628C45.1328 131.094 46.3764 129.857 47.903 129.857H52.7525C54.279 129.857 55.5226 131.101 55.5226 132.628Z" stroke="#E7E8EC" stroke-width="0.987" stroke-linecap="round" stroke-linejoin="round"/>
<path d="M47.4355 128.37V127.219" stroke="#E7E8EC" stroke-width="0.987" stroke-linecap="round" stroke-linejoin="round"/>
<path d="M50.0674 128.37V127.219" stroke="#E7E8EC" stroke-width="0.987" stroke-linecap="round" stroke-linejoin="round"/>
<path d="M52.6992 128.37V127.219" stroke="#E7E8EC" stroke-width="0.987" stroke-linecap="round" stroke-linejoin="round"/>
<path d="M58.2926 134.398C58.2926 135.925 57.049 137.168 55.5225 137.168V131.628C57.049 131.628 58.2926 132.865 58.2926 134.398Z" stroke="#E7E8EC" stroke-width="0.987" stroke-linecap="round" stroke-linejoin="round"/>
<path d="M45.1328 133.635H55.3384" stroke="#E7E8EC" stroke-width="0.987" stroke-linecap="round" stroke-linejoin="round"/>
<path d="M76.3264 133.154H80.0007V134.312H76.3264V133.154ZM76.4423 137.134H75.0736V129.764H80.4534V130.912H76.4423V137.134ZM84.0232 137.207C83.4476 137.207 82.9353 137.085 82.4861 136.839C82.0369 136.586 81.6824 136.242 81.4227 135.807C81.163 135.372 81.0332 134.877 81.0332 134.323C81.0332 133.761 81.163 133.267 81.4227 132.838C81.6824 132.403 82.0369 132.063 82.4861 131.817C82.9353 131.571 83.4476 131.449 84.0232 131.449C84.6057 131.449 85.1216 131.571 85.5708 131.817C86.027 132.063 86.3814 132.4 86.6341 132.828C86.8938 133.256 87.0236 133.754 87.0236 134.323C87.0236 134.877 86.8938 135.372 86.6341 135.807C86.3814 136.242 86.027 136.586 85.5708 136.839C85.1216 137.085 84.6057 137.207 84.0232 137.207ZM84.0232 136.081C84.346 136.081 84.6338 136.011 84.8865 135.87C85.1391 135.73 85.3356 135.527 85.476 135.26C85.6234 134.993 85.6971 134.681 85.6971 134.323C85.6971 133.958 85.6234 133.646 85.476 133.386C85.3356 133.119 85.1391 132.916 84.8865 132.775C84.6338 132.635 84.3495 132.565 84.0337 132.565C83.7108 132.565 83.4231 132.635 83.1704 132.775C82.9247 132.916 82.7282 133.119 82.5808 133.386C82.4334 133.646 82.3597 133.958 82.3597 134.323C82.3597 134.681 82.4334 134.993 82.5808 135.26C82.7282 135.527 82.9247 135.73 83.1704 135.87C83.4231 136.011 83.7073 136.081 84.0232 136.081ZM90.8088 137.207C90.2333 137.207 89.7209 137.085 89.2717 136.839C88.8225 136.586 88.4681 136.242 88.2084 135.807C87.9487 135.372 87.8188 134.877 87.8188 134.323C87.8188 133.761 87.9487 133.267 88.2084 132.838C88.4681 132.403 88.8225 132.063 89.2717 131.817C89.7209 131.571 90.2333 131.449 90.8088 131.449C91.3913 131.449 91.9072 131.571 92.3564 131.817C92.8126 132.063 93.1671 132.4 93.4197 132.828C93.6794 133.256 93.8093 133.754 93.8093 134.323C93.8093 134.877 93.6794 135.372 93.4197 135.807C93.1671 136.242 92.8126 136.586 92.3564 136.839C91.9072 137.085 91.3913 137.207 90.8088 137.207ZM90.8088 136.081C91.1316 136.081 91.4194 136.011 91.6721 135.87C91.9248 135.73 92.1213 135.527 92.2616 135.26C92.409 134.993 92.4827 134.681 92.4827 134.323C92.4827 133.958 92.409 133.646 92.2616 133.386C92.1213 133.119 91.9248 132.916 91.6721 132.775C91.4194 132.635 91.1352 132.565 90.8193 132.565C90.4965 132.565 90.2087 132.635 89.956 132.775C89.7104 132.916 89.5138 133.119 89.3664 133.386C89.2191 133.646 89.1454 133.958 89.1454 134.323C89.1454 134.681 89.2191 134.993 89.3664 135.26C89.5138 135.527 89.7104 135.73 89.956 135.87C90.2087 136.011 90.4929 136.081 90.8088 136.081ZM97.447 137.207C96.9066 137.207 96.4188 137.088 95.9836 136.85C95.5555 136.604 95.2186 136.267 94.9729 135.839C94.7273 135.411 94.6045 134.905 94.6045 134.323C94.6045 133.74 94.7273 133.235 94.9729 132.807C95.2186 132.379 95.5555 132.045 95.9836 131.807C96.4188 131.568 96.9066 131.449 97.447 131.449C97.9173 131.449 98.3384 131.554 98.7104 131.765C99.0824 131.968 99.3771 132.28 99.5947 132.702C99.8123 133.123 99.9211 133.663 99.9211 134.323C99.9211 134.976 99.8158 135.516 99.6053 135.944C99.3947 136.365 99.1034 136.681 98.7314 136.892C98.3594 137.102 97.9313 137.207 97.447 137.207ZM97.6049 136.081C97.9208 136.081 98.2015 136.011 98.4472 135.87C98.6998 135.73 98.8999 135.527 99.0473 135.26C99.2017 134.993 99.2789 134.681 99.2789 134.323C99.2789 133.958 99.2017 133.646 99.0473 133.386C98.8999 133.119 98.6998 132.916 98.4472 132.775C98.2015 132.635 97.9208 132.565 97.6049 132.565C97.2891 132.565 97.0048 132.635 96.7522 132.775C96.5065 132.916 96.3065 133.119 96.1521 133.386C96.0047 133.646 95.931 133.958 95.931 134.323C95.931 134.681 96.0047 134.993 96.1521 135.26C96.3065 135.527 96.5065 135.73 96.7522 135.87C97.0048 136.011 97.2891 136.081 97.6049 136.081ZM99.3105 137.134V135.807L99.3631 134.312L99.2578 132.817V129.322H100.563V137.134H99.3105ZM107.458 137.239C106.946 137.239 106.486 137.155 106.079 136.986C105.672 136.818 105.352 136.586 105.121 136.292C104.889 135.997 104.773 135.656 104.773 135.27C104.773 134.919 104.851 134.604 105.005 134.323C105.159 134.042 105.405 133.775 105.742 133.523C106.079 133.263 106.51 133.003 107.037 132.744C107.451 132.54 107.774 132.361 108.005 132.207C108.244 132.052 108.409 131.905 108.5 131.765C108.599 131.624 108.648 131.477 108.648 131.322C108.648 131.112 108.574 130.943 108.427 130.817C108.279 130.684 108.069 130.617 107.795 130.617C107.5 130.617 107.268 130.691 107.1 130.838C106.939 130.978 106.858 131.164 106.858 131.396C106.858 131.515 106.879 131.631 106.921 131.743C106.97 131.856 107.054 131.982 107.174 132.122C107.293 132.263 107.465 132.442 107.69 132.659L111.585 136.397L110.859 137.25L106.647 133.207C106.409 132.975 106.216 132.761 106.068 132.565C105.921 132.368 105.816 132.179 105.752 131.996C105.689 131.807 105.658 131.614 105.658 131.417C105.658 131.073 105.745 130.771 105.921 130.512C106.096 130.245 106.346 130.041 106.668 129.901C106.991 129.754 107.367 129.68 107.795 129.68C108.195 129.68 108.539 129.747 108.827 129.88C109.121 130.006 109.35 130.192 109.511 130.438C109.679 130.677 109.764 130.964 109.764 131.301C109.764 131.596 109.69 131.87 109.543 132.122C109.395 132.368 109.164 132.603 108.848 132.828C108.539 133.052 108.125 133.288 107.605 133.533C107.219 133.723 106.914 133.902 106.689 134.07C106.465 134.239 106.303 134.407 106.205 134.575C106.107 134.744 106.058 134.93 106.058 135.133C106.058 135.337 106.117 135.516 106.237 135.67C106.363 135.825 106.539 135.948 106.763 136.039C106.988 136.123 107.251 136.165 107.553 136.165C108.002 136.165 108.409 136.067 108.774 135.87C109.146 135.667 109.458 135.365 109.711 134.965C109.964 134.565 110.146 134.07 110.258 133.481L111.322 133.828C111.174 134.537 110.918 135.148 110.553 135.66C110.195 136.165 109.753 136.555 109.227 136.828C108.7 137.102 108.111 137.239 107.458 137.239ZM115.674 137.134V129.764H118.896C119.696 129.764 120.398 129.919 121.001 130.227C121.605 130.536 122.075 130.964 122.412 131.512C122.749 132.059 122.918 132.705 122.918 133.449C122.918 134.186 122.749 134.832 122.412 135.386C122.075 135.934 121.605 136.362 121.001 136.671C120.398 136.979 119.696 137.134 118.896 137.134H115.674ZM117.043 135.976H118.833C119.387 135.976 119.864 135.87 120.264 135.66C120.672 135.449 120.984 135.155 121.201 134.776C121.426 134.397 121.538 133.954 121.538 133.449C121.538 132.937 121.426 132.494 121.201 132.122C120.984 131.743 120.672 131.449 120.264 131.238C119.864 131.028 119.387 130.922 118.833 130.922H117.043V135.976ZM124.246 137.134V131.512H125.499V133.059L125.351 132.607C125.52 132.228 125.783 131.94 126.141 131.743C126.506 131.547 126.959 131.449 127.499 131.449V132.702C127.443 132.687 127.39 132.68 127.341 132.68C127.292 132.673 127.243 132.67 127.194 132.67C126.695 132.67 126.299 132.817 126.004 133.112C125.709 133.4 125.562 133.832 125.562 134.407V137.134H124.246ZM128.615 137.134V131.512H129.931V137.134H128.615ZM129.279 130.585C129.033 130.585 128.829 130.508 128.668 130.354C128.514 130.199 128.436 130.013 128.436 129.796C128.436 129.571 128.514 129.385 128.668 129.238C128.829 129.083 129.033 129.006 129.279 129.006C129.524 129.006 129.724 129.08 129.879 129.227C130.04 129.368 130.121 129.547 130.121 129.764C130.121 129.996 130.044 130.192 129.889 130.354C129.735 130.508 129.531 130.585 129.279 130.585ZM134.849 131.449C135.298 131.449 135.698 131.536 136.049 131.712C136.407 131.887 136.688 132.158 136.891 132.523C137.095 132.88 137.196 133.344 137.196 133.912V137.134H135.88V134.081C135.88 133.582 135.761 133.21 135.522 132.965C135.291 132.719 134.964 132.596 134.543 132.596C134.235 132.596 133.961 132.659 133.722 132.786C133.484 132.912 133.298 133.102 133.164 133.354C133.038 133.6 132.975 133.912 132.975 134.291V137.134H131.659V131.512H132.911V133.028L132.69 132.565C132.887 132.207 133.171 131.933 133.543 131.743C133.922 131.547 134.357 131.449 134.849 131.449ZM139.94 135.881L139.971 134.228L142.909 131.512H144.488L141.993 134.018L141.298 134.597L139.94 135.881ZM138.866 137.134V129.322H140.182V137.134H138.866ZM143.109 137.134L141.056 134.597L141.887 133.544L144.709 137.134H143.109Z" fill="#E7E8EC"/>
<rect x="35.9199" y="162.584" width="31.584" height="31.584" rx="5.264" fill="#08234F"/>
<path d="M54.0218 172.343H49.4027C47.7642 172.343 47.4023 173.159 47.1918 174.159L46.4482 177.719H56.9762L56.2327 174.159C56.0221 173.159 55.6602 172.343 54.0218 172.343Z" stroke="#E7E8EC" stroke-width="0.987" stroke-linecap="round" stroke-linejoin="round"/>
<path d="M58.2854 183.522C58.3578 184.292 57.7393 184.957 56.9497 184.957H55.7126C55.002 184.957 54.9033 184.654 54.7783 184.279L54.6467 183.884C54.4624 183.345 54.344 182.983 53.3965 182.983H50.0275C49.08 182.983 48.9418 183.391 48.7773 183.884L48.6457 184.279C48.5207 184.654 48.422 184.957 47.7114 184.957H46.4743C45.6847 184.957 45.0662 184.292 45.1386 183.522L45.5071 179.515C45.5992 178.528 45.79 177.719 47.514 177.719H55.91C57.634 177.719 57.8248 178.528 57.9169 179.515L58.2854 183.522Z" stroke="#E7E8EC" stroke-width="0.987" stroke-linecap="round" stroke-linejoin="round"/>
<path d="M46.448 175.744H45.79" stroke="#E7E8EC" stroke-width="0.987" stroke-linecap="round" stroke-linejoin="round"/>
<path d="M57.6346 175.744H56.9766" stroke="#E7E8EC" stroke-width="0.987" stroke-linecap="round" stroke-linejoin="round"/>
<path d="M51.7129 172.454V173.77" stroke="#E7E8EC" stroke-width="0.987" stroke-linecap="round" stroke-linejoin="round"/>
<path d="M50.7256 173.771H52.6996" stroke="#E7E8EC" stroke-width="0.987" stroke-linecap="round" stroke-linejoin="round"/>
<path d="M47.7646 180.351H49.7386" stroke="#E7E8EC" stroke-width="0.987" stroke-linecap="round" stroke-linejoin="round"/>
<path d="M53.6865 180.351H55.6605" stroke="#E7E8EC" stroke-width="0.987" stroke-linecap="round" stroke-linejoin="round"/>
<path d="M76.5686 181.877V175.665H74.1261V174.507H80.3797V175.665H77.9372V181.877H76.5686ZM81.1469 181.877V176.255H82.3997V177.803L82.2523 177.35C82.4208 176.971 82.684 176.683 83.0419 176.487C83.4069 176.29 83.8596 176.192 84.4 176.192V177.445C84.3439 177.431 84.2912 177.424 84.2421 177.424C84.193 177.417 84.1438 177.413 84.0947 177.413C83.5964 177.413 83.1998 177.56 82.9051 177.855C82.6103 178.143 82.4629 178.575 82.4629 179.15V181.877H81.1469ZM88.5791 181.877V180.74L88.5055 180.498V178.508C88.5055 178.122 88.3896 177.824 88.158 177.613C87.9264 177.396 87.5755 177.287 87.1052 177.287C86.7894 177.287 86.4771 177.336 86.1682 177.434C85.8664 177.532 85.6103 177.669 85.3997 177.845L84.8838 176.887C85.1856 176.655 85.5436 176.483 85.9577 176.371C86.3788 176.251 86.814 176.192 87.2631 176.192C88.0773 176.192 88.7055 176.388 89.1477 176.781C89.5969 177.167 89.8215 177.768 89.8215 178.582V181.877H88.5791ZM86.8104 181.951C86.3893 181.951 86.0208 181.88 85.705 181.74C85.3892 181.593 85.1435 181.393 84.968 181.14C84.7996 180.88 84.7154 180.589 84.7154 180.266C84.7154 179.95 84.7891 179.666 84.9365 179.413C85.0909 179.161 85.34 178.961 85.6839 178.813C86.0279 178.666 86.4841 178.592 87.0526 178.592H88.6844V179.466H87.1473C86.6981 179.466 86.3963 179.54 86.2419 179.687C86.0875 179.828 86.0103 180.003 86.0103 180.214C86.0103 180.452 86.1051 180.642 86.2946 180.782C86.4841 180.922 86.7473 180.993 87.0842 180.993C87.407 180.993 87.6948 180.919 87.9475 180.772C88.2072 180.624 88.3932 180.407 88.5055 180.119L88.7265 180.908C88.6002 181.238 88.3721 181.494 88.0422 181.677C87.7194 181.859 87.3088 181.951 86.8104 181.951ZM94.7004 176.192C95.1496 176.192 95.5496 176.28 95.9005 176.455C96.2585 176.63 96.5392 176.901 96.7428 177.266C96.9463 177.624 97.0481 178.087 97.0481 178.655V181.877H95.7321V178.824C95.7321 178.326 95.6128 177.954 95.3741 177.708C95.1425 177.462 94.8162 177.339 94.395 177.339C94.0862 177.339 93.8125 177.403 93.5739 177.529C93.3352 177.655 93.1492 177.845 93.0159 178.097C92.8895 178.343 92.8264 178.655 92.8264 179.034V181.877H91.5104V176.255H92.7632V177.771L92.5421 177.308C92.7386 176.95 93.0229 176.676 93.3949 176.487C93.7739 176.29 94.2091 176.192 94.7004 176.192ZM100.455 181.951C99.9844 181.951 99.5317 181.891 99.0965 181.772C98.6684 181.645 98.328 181.494 98.0753 181.319L98.5807 180.319C98.8333 180.48 99.1351 180.614 99.4861 180.719C99.837 180.824 100.188 180.877 100.539 180.877C100.953 180.877 101.251 180.821 101.434 180.708C101.623 180.596 101.718 180.445 101.718 180.256C101.718 180.101 101.655 179.985 101.529 179.908C101.402 179.824 101.237 179.761 101.034 179.719C100.83 179.677 100.602 179.638 100.349 179.603C100.104 179.568 99.8546 179.522 99.6019 179.466C99.3562 179.403 99.1316 179.315 98.9281 179.203C98.7245 179.084 98.5596 178.926 98.4333 178.729C98.3069 178.533 98.2438 178.273 98.2438 177.95C98.2438 177.592 98.3455 177.283 98.5491 177.024C98.7526 176.757 99.0369 176.553 99.4019 176.413C99.7738 176.266 100.213 176.192 100.718 176.192C101.097 176.192 101.479 176.234 101.865 176.318C102.251 176.402 102.571 176.522 102.823 176.676L102.318 177.676C102.051 177.515 101.781 177.406 101.507 177.35C101.241 177.287 100.974 177.255 100.707 177.255C100.307 177.255 100.009 177.315 99.8124 177.434C99.6229 177.553 99.5282 177.704 99.5282 177.887C99.5282 178.055 99.5914 178.182 99.7177 178.266C99.844 178.35 100.009 178.417 100.213 178.466C100.416 178.515 100.641 178.557 100.886 178.592C101.139 178.62 101.388 178.666 101.634 178.729C101.879 178.792 102.104 178.88 102.308 178.992C102.518 179.098 102.687 179.248 102.813 179.445C102.939 179.642 103.002 179.898 103.002 180.214C103.002 180.564 102.897 180.87 102.687 181.129C102.483 181.389 102.192 181.593 101.813 181.74C101.434 181.88 100.981 181.951 100.455 181.951ZM107.252 181.951C106.796 181.951 106.378 181.845 105.999 181.635C105.627 181.424 105.329 181.108 105.104 180.687C104.887 180.259 104.778 179.719 104.778 179.066C104.778 178.406 104.883 177.866 105.094 177.445C105.311 177.024 105.606 176.711 105.978 176.508C106.35 176.297 106.775 176.192 107.252 176.192C107.807 176.192 108.294 176.311 108.715 176.55C109.144 176.788 109.48 177.122 109.726 177.55C109.979 177.978 110.105 178.483 110.105 179.066C110.105 179.649 109.979 180.157 109.726 180.593C109.48 181.021 109.144 181.354 108.715 181.593C108.294 181.831 107.807 181.951 107.252 181.951ZM104.136 183.919V176.255H105.389V177.582L105.346 179.077L105.452 180.571V183.919H104.136ZM107.105 180.824C107.42 180.824 107.701 180.754 107.947 180.614C108.2 180.473 108.4 180.27 108.547 180.003C108.694 179.736 108.768 179.424 108.768 179.066C108.768 178.701 108.694 178.389 108.547 178.129C108.4 177.862 108.2 177.659 107.947 177.518C107.701 177.378 107.42 177.308 107.105 177.308C106.789 177.308 106.505 177.378 106.252 177.518C105.999 177.659 105.799 177.862 105.652 178.129C105.504 178.389 105.431 178.701 105.431 179.066C105.431 179.424 105.504 179.736 105.652 180.003C105.799 180.27 105.999 180.473 106.252 180.614C106.505 180.754 106.789 180.824 107.105 180.824ZM113.88 181.951C113.304 181.951 112.792 181.828 112.343 181.582C111.894 181.329 111.539 180.986 111.279 180.55C111.02 180.115 110.89 179.62 110.89 179.066C110.89 178.504 111.02 178.01 111.279 177.582C111.539 177.146 111.894 176.806 112.343 176.56C112.792 176.315 113.304 176.192 113.88 176.192C114.462 176.192 114.978 176.315 115.428 176.56C115.884 176.806 116.238 177.143 116.491 177.571C116.751 177.999 116.88 178.497 116.88 179.066C116.88 179.62 116.751 180.115 116.491 180.55C116.238 180.986 115.884 181.329 115.428 181.582C114.978 181.828 114.462 181.951 113.88 181.951ZM113.88 180.824C114.203 180.824 114.491 180.754 114.743 180.614C114.996 180.473 115.192 180.27 115.333 180.003C115.48 179.736 115.554 179.424 115.554 179.066C115.554 178.701 115.48 178.389 115.333 178.129C115.192 177.862 114.996 177.659 114.743 177.518C114.491 177.378 114.206 177.308 113.89 177.308C113.568 177.308 113.28 177.378 113.027 177.518C112.781 177.659 112.585 177.862 112.438 178.129C112.29 178.389 112.216 178.701 112.216 179.066C112.216 179.424 112.29 179.736 112.438 180.003C112.585 180.27 112.781 180.473 113.027 180.614C113.28 180.754 113.564 180.824 113.88 180.824ZM118.139 181.877V176.255H119.392V177.803L119.244 177.35C119.413 176.971 119.676 176.683 120.034 176.487C120.399 176.29 120.852 176.192 121.392 176.192V177.445C121.336 177.431 121.283 177.424 121.234 177.424C121.185 177.417 121.136 177.413 121.087 177.413C120.588 177.413 120.192 177.56 119.897 177.855C119.602 178.143 119.455 178.575 119.455 179.15V181.877H118.139ZM124.83 181.951C124.212 181.951 123.735 181.793 123.398 181.477C123.061 181.154 122.893 180.68 122.893 180.056V175.013H124.209V180.024C124.209 180.291 124.276 180.498 124.409 180.645C124.549 180.793 124.742 180.866 124.988 180.866C125.283 180.866 125.528 180.789 125.725 180.635L126.093 181.572C125.939 181.698 125.75 181.793 125.525 181.856C125.3 181.919 125.069 181.951 124.83 181.951ZM121.966 177.35V176.297H125.714V177.35H121.966ZM130.64 181.877V180.74L130.566 180.498V178.508C130.566 178.122 130.45 177.824 130.219 177.613C129.987 177.396 129.636 177.287 129.166 177.287C128.85 177.287 128.538 177.336 128.229 177.434C127.927 177.532 127.671 177.669 127.46 177.845L126.944 176.887C127.246 176.655 127.604 176.483 128.018 176.371C128.439 176.251 128.875 176.192 129.324 176.192C130.138 176.192 130.766 176.388 131.208 176.781C131.657 177.167 131.882 177.768 131.882 178.582V181.877H130.64ZM128.871 181.951C128.45 181.951 128.081 181.88 127.766 181.74C127.45 181.593 127.204 181.393 127.029 181.14C126.86 180.88 126.776 180.589 126.776 180.266C126.776 179.95 126.85 179.666 126.997 179.413C127.151 179.161 127.401 178.961 127.745 178.813C128.088 178.666 128.545 178.592 129.113 178.592H130.745V179.466H129.208C128.759 179.466 128.457 179.54 128.303 179.687C128.148 179.828 128.071 180.003 128.071 180.214C128.071 180.452 128.166 180.642 128.355 180.782C128.545 180.922 128.808 180.993 129.145 180.993C129.468 180.993 129.755 180.919 130.008 180.772C130.268 180.624 130.454 180.407 130.566 180.119L130.787 180.908C130.661 181.238 130.433 181.494 130.103 181.677C129.78 181.859 129.369 181.951 128.871 181.951ZM135.687 181.951C135.069 181.951 134.592 181.793 134.255 181.477C133.918 181.154 133.75 180.68 133.75 180.056V175.013H135.066V180.024C135.066 180.291 135.133 180.498 135.266 180.645C135.406 180.793 135.599 180.866 135.845 180.866C136.14 180.866 136.385 180.789 136.582 180.635L136.95 181.572C136.796 181.698 136.607 181.793 136.382 181.856C136.157 181.919 135.926 181.951 135.687 181.951ZM132.823 177.35V176.297H136.571V177.35H132.823ZM138.033 181.877V176.255H139.349V181.877H138.033ZM138.696 175.329C138.451 175.329 138.247 175.251 138.086 175.097C137.931 174.943 137.854 174.757 137.854 174.539C137.854 174.314 137.931 174.128 138.086 173.981C138.247 173.827 138.451 173.749 138.696 173.749C138.942 173.749 139.142 173.823 139.296 173.97C139.458 174.111 139.539 174.29 139.539 174.507C139.539 174.739 139.461 174.935 139.307 175.097C139.153 175.251 138.949 175.329 138.696 175.329ZM143.603 181.951C143.027 181.951 142.515 181.828 142.066 181.582C141.617 181.329 141.262 180.986 141.003 180.55C140.743 180.115 140.613 179.62 140.613 179.066C140.613 178.504 140.743 178.01 141.003 177.582C141.262 177.146 141.617 176.806 142.066 176.56C142.515 176.315 143.027 176.192 143.603 176.192C144.186 176.192 144.701 176.315 145.151 176.56C145.607 176.806 145.961 177.143 146.214 177.571C146.474 177.999 146.603 178.497 146.603 179.066C146.603 179.62 146.474 180.115 146.214 180.55C145.961 180.986 145.607 181.329 145.151 181.582C144.701 181.828 144.186 181.951 143.603 181.951ZM143.603 180.824C143.926 180.824 144.214 180.754 144.466 180.614C144.719 180.473 144.915 180.27 145.056 180.003C145.203 179.736 145.277 179.424 145.277 179.066C145.277 178.701 145.203 178.389 145.056 178.129C144.915 177.862 144.719 177.659 144.466 177.518C144.214 177.378 143.929 177.308 143.614 177.308C143.291 177.308 143.003 177.378 142.75 177.518C142.505 177.659 142.308 177.862 142.161 178.129C142.013 178.389 141.94 178.701 141.94 179.066C141.94 179.424 142.013 179.736 142.161 180.003C142.308 180.27 142.505 180.473 142.75 180.614C143.003 180.754 143.287 180.824 143.603 180.824ZM151.052 176.192C151.501 176.192 151.901 176.28 152.252 176.455C152.61 176.63 152.891 176.901 153.094 177.266C153.298 177.624 153.4 178.087 153.4 178.655V181.877H152.084V178.824C152.084 178.326 151.964 177.954 151.726 177.708C151.494 177.462 151.168 177.339 150.747 177.339C150.438 177.339 150.164 177.403 149.925 177.529C149.687 177.655 149.501 177.845 149.367 178.097C149.241 178.343 149.178 178.655 149.178 179.034V181.877H147.862V176.255H149.115V177.771L148.894 177.308C149.09 176.95 149.374 176.676 149.746 176.487C150.125 176.29 150.561 176.192 151.052 176.192Z" fill="#E7E8EC"/>
<rect x="35.9199" y="207.328" width="31.584" height="31.584" rx="5.264" fill="#08234F"/>
<path d="M57.226 217.5L54.3439 216.539C54.3439 217.237 54.0666 217.907 53.573 218.4C53.0794 218.894 52.41 219.171 51.7119 219.171C51.0139 219.171 50.3444 218.894 49.8508 218.4C49.3572 217.907 49.0799 217.237 49.0799 216.539L46.1979 217.5C45.9001 217.599 45.6475 217.801 45.4858 218.07C45.3242 218.34 45.264 218.658 45.3162 218.967L45.6978 221.25C45.7229 221.405 45.8022 221.545 45.9216 221.647C46.041 221.748 46.1926 221.804 46.3492 221.803H47.7639V228.383C47.7639 229.107 48.3561 229.699 49.0799 229.699H54.3439C54.693 229.699 55.0277 229.56 55.2745 229.314C55.5213 229.067 55.6599 228.732 55.6599 228.383V221.803H57.0746C57.2312 221.804 57.3828 221.748 57.5022 221.647C57.6216 221.545 57.701 221.405 57.7261 221.25L58.1077 218.967C58.1599 218.658 58.0997 218.34 57.938 218.07C57.7763 217.801 57.5238 217.599 57.226 217.5Z" stroke="#E7E8EC" stroke-width="0.987" stroke-linecap="round" stroke-linejoin="round"/>
<path d="M78.4847 226.726C77.9232 226.726 77.4003 226.635 76.916 226.453C76.4387 226.263 76.0211 226 75.6632 225.663C75.3123 225.319 75.0385 224.916 74.842 224.452C74.6455 223.989 74.5472 223.484 74.5472 222.936C74.5472 222.389 74.6455 221.883 74.842 221.42C75.0385 220.957 75.3158 220.557 75.6737 220.22C76.0317 219.876 76.4493 219.613 76.9265 219.43C77.4038 219.241 77.9267 219.146 78.4952 219.146C79.0988 219.146 79.6498 219.251 80.1481 219.462C80.6464 219.666 81.0676 219.971 81.4115 220.378L80.5271 221.21C80.2604 220.922 79.9621 220.708 79.6322 220.567C79.3024 220.42 78.9444 220.346 78.5584 220.346C78.1724 220.346 77.8179 220.41 77.4951 220.536C77.1792 220.662 76.902 220.841 76.6633 221.073C76.4317 221.304 76.2492 221.578 76.1159 221.894C75.9896 222.21 75.9264 222.557 75.9264 222.936C75.9264 223.315 75.9896 223.663 76.1159 223.979C76.2492 224.294 76.4317 224.568 76.6633 224.8C76.902 225.031 77.1792 225.21 77.4951 225.337C77.8179 225.463 78.1724 225.526 78.5584 225.526C78.9444 225.526 79.3024 225.456 79.6322 225.316C79.9621 225.168 80.2604 224.947 80.5271 224.652L81.4115 225.495C81.0676 225.895 80.6464 226.2 80.1481 226.411C79.6498 226.621 79.0953 226.726 78.4847 226.726ZM82.5965 226.621V218.809H83.9125V226.621H82.5965ZM88.1665 226.695C87.591 226.695 87.0786 226.572 86.6294 226.326C86.1802 226.074 85.8258 225.73 85.5661 225.295C85.3064 224.859 85.1765 224.365 85.1765 223.81C85.1765 223.249 85.3064 222.754 85.5661 222.326C85.8258 221.891 86.1802 221.55 86.6294 221.304C87.0786 221.059 87.591 220.936 88.1665 220.936C88.7491 220.936 89.2649 221.059 89.7141 221.304C90.1703 221.55 90.5248 221.887 90.7774 222.315C91.0371 222.743 91.167 223.242 91.167 223.81C91.167 224.365 91.0371 224.859 90.7774 225.295C90.5248 225.73 90.1703 226.074 89.7141 226.326C89.2649 226.572 88.7491 226.695 88.1665 226.695ZM88.1665 225.568C88.4894 225.568 88.7771 225.498 89.0298 225.358C89.2825 225.217 89.479 225.014 89.6194 224.747C89.7668 224.48 89.8405 224.168 89.8405 223.81C89.8405 223.445 89.7668 223.133 89.6194 222.873C89.479 222.606 89.2825 222.403 89.0298 222.263C88.7771 222.122 88.4929 222.052 88.177 222.052C87.8542 222.052 87.5664 222.122 87.3137 222.263C87.0681 222.403 86.8716 222.606 86.7242 222.873C86.5768 223.133 86.5031 223.445 86.5031 223.81C86.5031 224.168 86.5768 224.48 86.7242 224.747C86.8716 225.014 87.0681 225.217 87.3137 225.358C87.5664 225.498 87.8507 225.568 88.1665 225.568ZM94.5415 226.695C93.9239 226.695 93.4466 226.537 93.1097 226.221C92.7728 225.898 92.6044 225.424 92.6044 224.8V219.757H93.9204V224.768C93.9204 225.035 93.9871 225.242 94.1204 225.389C94.2608 225.537 94.4538 225.61 94.6995 225.61C94.9942 225.61 95.2399 225.533 95.4364 225.379L95.8049 226.316C95.6505 226.442 95.461 226.537 95.2364 226.6C95.0118 226.663 94.7802 226.695 94.5415 226.695ZM91.6779 222.094V221.041H95.4259V222.094H91.6779ZM100.077 220.936C100.527 220.936 100.927 221.024 101.278 221.199C101.636 221.375 101.916 221.645 102.12 222.01C102.323 222.368 102.425 222.831 102.425 223.4V226.621H101.109V223.568C101.109 223.07 100.99 222.698 100.751 222.452C100.52 222.206 100.193 222.084 99.7721 222.084C99.4633 222.084 99.1896 222.147 98.951 222.273C98.7123 222.399 98.5263 222.589 98.393 222.842C98.2666 223.087 98.2035 223.4 98.2035 223.779V226.621H96.8875V218.809H98.2035V222.515L97.9192 222.052C98.1157 221.694 98.4 221.42 98.772 221.231C99.151 221.034 99.5861 220.936 100.077 220.936ZM104.095 226.621V220.999H105.411V226.621H104.095ZM104.758 220.073C104.512 220.073 104.309 219.995 104.147 219.841C103.993 219.687 103.916 219.501 103.916 219.283C103.916 219.058 103.993 218.872 104.147 218.725C104.309 218.571 104.512 218.493 104.758 218.493C105.004 218.493 105.204 218.567 105.358 218.715C105.519 218.855 105.6 219.034 105.6 219.251C105.6 219.483 105.523 219.68 105.369 219.841C105.214 219.995 105.011 220.073 104.758 220.073ZM110.328 220.936C110.777 220.936 111.177 221.024 111.528 221.199C111.886 221.375 112.167 221.645 112.37 222.01C112.574 222.368 112.676 222.831 112.676 223.4V226.621H111.36V223.568C111.36 223.07 111.24 222.698 111.002 222.452C110.77 222.206 110.444 222.084 110.023 222.084C109.714 222.084 109.44 222.147 109.201 222.273C108.963 222.399 108.777 222.589 108.643 222.842C108.517 223.087 108.454 223.4 108.454 223.779V226.621H107.138V220.999H108.391V222.515L108.17 222.052C108.366 221.694 108.65 221.42 109.022 221.231C109.401 221.034 109.837 220.936 110.328 220.936ZM116.903 228.737C116.384 228.737 115.875 228.667 115.377 228.527C114.885 228.393 114.482 228.197 114.166 227.937L114.755 226.947C115.001 227.151 115.31 227.312 115.682 227.432C116.061 227.558 116.443 227.621 116.829 227.621C117.447 227.621 117.9 227.477 118.188 227.19C118.475 226.909 118.619 226.484 118.619 225.916V224.916L118.724 223.642L118.682 222.368V220.999H119.935V225.768C119.935 226.786 119.675 227.534 119.156 228.011C118.637 228.495 117.886 228.737 116.903 228.737ZM116.735 226.368C116.201 226.368 115.717 226.256 115.282 226.032C114.854 225.8 114.513 225.481 114.261 225.073C114.015 224.666 113.892 224.189 113.892 223.642C113.892 223.101 114.015 222.627 114.261 222.22C114.513 221.813 114.854 221.497 115.282 221.273C115.717 221.048 116.201 220.936 116.735 220.936C117.212 220.936 117.64 221.031 118.019 221.22C118.398 221.41 118.7 221.705 118.924 222.105C119.156 222.505 119.272 223.017 119.272 223.642C119.272 224.266 119.156 224.782 118.924 225.189C118.7 225.589 118.398 225.888 118.019 226.084C117.64 226.274 117.212 226.368 116.735 226.368ZM116.935 225.252C117.265 225.252 117.559 225.186 117.819 225.052C118.079 224.912 118.279 224.723 118.419 224.484C118.567 224.238 118.64 223.958 118.64 223.642C118.64 223.326 118.567 223.049 118.419 222.81C118.279 222.564 118.079 222.378 117.819 222.252C117.559 222.119 117.265 222.052 116.935 222.052C116.605 222.052 116.307 222.119 116.04 222.252C115.78 222.378 115.577 222.564 115.429 222.81C115.289 223.049 115.219 223.326 115.219 223.642C115.219 223.958 115.289 224.238 115.429 224.484C115.577 224.723 115.78 224.912 116.04 225.052C116.307 225.186 116.605 225.252 116.935 225.252Z" fill="#E7E8EC"/>
<rect x="35.9199" y="252.073" width="31.584" height="31.584" rx="5.264" fill="#08234F"/>
<path d="M49.7585 274.241L51.2916 272.951C51.5219 272.754 51.9036 272.754 52.1339 272.951L53.667 274.241C54.0223 274.419 54.4566 274.241 54.5882 273.859L54.8777 272.984C54.9501 272.774 54.8777 272.465 54.7198 272.307L53.2262 270.806C53.1143 270.701 53.0288 270.491 53.0288 270.339V268.464C53.0288 268.188 53.2327 268.056 53.4894 268.161L56.7201 269.556C57.2268 269.773 57.6413 269.504 57.6413 268.951V268.102C57.6413 267.661 57.3123 267.154 56.9044 266.983L53.2262 265.398C53.1209 265.352 53.0288 265.213 53.0288 265.095V263.121C53.0288 262.502 52.5747 261.772 52.022 261.489C51.8246 261.39 51.5943 261.39 51.3969 261.489C50.8442 261.772 50.3902 262.509 50.3902 263.127V265.101C50.3902 265.22 50.2981 265.358 50.1928 265.404L46.5211 266.99C46.1132 267.154 45.7842 267.661 45.7842 268.102V268.951C45.7842 269.504 46.1987 269.773 46.7054 269.556L49.9362 268.161C50.1862 268.049 50.3968 268.188 50.3968 268.464V270.339C50.3968 270.491 50.3112 270.701 50.2059 270.806L48.7123 272.307C48.5544 272.465 48.482 272.767 48.5544 272.984L48.8439 273.859C48.9623 274.241 49.3966 274.425 49.7585 274.241Z" stroke="#E7E8EC" stroke-width="0.987" stroke-linecap="round" stroke-linejoin="round"/>
<path d="M76.337 267.059H80.0007V268.186H76.337V267.059ZM76.4423 270.218H80.6008V271.365H75.0736V263.996H80.4534V265.143H76.4423V270.218ZM85.1902 265.68C85.6394 265.68 86.0395 265.768 86.3904 265.943C86.7483 266.119 87.0291 266.389 87.2326 266.754C87.4362 267.112 87.5379 267.575 87.5379 268.144V271.365H86.2219V268.312C86.2219 267.814 86.1026 267.442 85.864 267.196C85.6324 266.95 85.306 266.828 84.8849 266.828C84.5761 266.828 84.3023 266.891 84.0637 267.017C83.8251 267.144 83.6391 267.333 83.5057 267.586C83.3794 267.831 83.3162 268.144 83.3162 268.523V271.365H82.0002V265.743H83.253V267.259L83.032 266.796C83.2285 266.438 83.5127 266.164 83.8847 265.975C84.2637 265.778 84.6989 265.68 85.1902 265.68ZM91.3235 271.439C90.7059 271.439 90.2286 271.281 89.8917 270.965C89.5548 270.642 89.3864 270.169 89.3864 269.544V264.501H90.7024V269.512C90.7024 269.779 90.769 269.986 90.9024 270.133C91.0428 270.281 91.2358 270.355 91.4814 270.355C91.7762 270.355 92.0219 270.277 92.2184 270.123L92.5869 271.06C92.4325 271.186 92.2429 271.281 92.0184 271.344C91.7938 271.407 91.5621 271.439 91.3235 271.439ZM88.4599 266.838V265.785H92.2079V266.838H88.4599ZM96.1269 271.439C95.5022 271.439 94.9548 271.316 94.4845 271.07C94.0213 270.818 93.6598 270.474 93.4002 270.039C93.1475 269.604 93.0211 269.109 93.0211 268.554C93.0211 267.993 93.144 267.498 93.3896 267.07C93.6423 266.635 93.9862 266.294 94.4214 266.049C94.8635 265.803 95.3654 265.68 95.9269 265.68C96.4743 265.68 96.9621 265.799 97.3903 266.038C97.8184 266.277 98.1553 266.614 98.401 267.049C98.6466 267.484 98.7694 267.996 98.7694 268.586C98.7694 268.642 98.7659 268.705 98.7589 268.775C98.7589 268.846 98.7554 268.912 98.7484 268.975H94.0634V268.102H98.0535L97.5377 268.375C97.5447 268.052 97.478 267.768 97.3376 267.523C97.1972 267.277 97.0042 267.084 96.7586 266.943C96.5199 266.803 96.2427 266.733 95.9269 266.733C95.604 266.733 95.3198 266.803 95.0741 266.943C94.8355 267.084 94.646 267.28 94.5056 267.533C94.3722 267.779 94.3056 268.07 94.3056 268.407V268.617C94.3056 268.954 94.3828 269.253 94.5372 269.512C94.6916 269.772 94.9092 269.972 95.1899 270.112C95.4707 270.253 95.7935 270.323 96.1585 270.323C96.4743 270.323 96.7586 270.274 97.0113 270.176C97.2639 270.077 97.4885 269.923 97.685 269.712L98.3904 270.523C98.1378 270.818 97.8184 271.046 97.4324 271.207C97.0534 271.362 96.6182 271.439 96.1269 271.439ZM100.034 271.365V265.743H101.286V267.291L101.139 266.838C101.307 266.459 101.571 266.171 101.929 265.975C102.294 265.778 102.746 265.68 103.287 265.68V266.933C103.231 266.919 103.178 266.912 103.129 266.912C103.08 266.905 103.031 266.901 102.981 266.901C102.483 266.901 102.086 267.049 101.792 267.344C101.497 267.631 101.35 268.063 101.35 268.638V271.365H100.034ZM106.725 271.439C106.107 271.439 105.63 271.281 105.293 270.965C104.956 270.642 104.788 270.169 104.788 269.544V264.501H106.104V269.512C106.104 269.779 106.17 269.986 106.304 270.133C106.444 270.281 106.637 270.355 106.883 270.355C107.178 270.355 107.423 270.277 107.62 270.123L107.988 271.06C107.834 271.186 107.644 271.281 107.42 271.344C107.195 271.407 106.963 271.439 106.725 271.439ZM103.861 266.838V265.785H107.609V266.838H103.861ZM112.534 271.365V270.228L112.461 269.986V267.996C112.461 267.61 112.345 267.312 112.113 267.101C111.882 266.884 111.531 266.775 111.061 266.775C110.745 266.775 110.432 266.824 110.124 266.922C109.822 267.021 109.566 267.158 109.355 267.333L108.839 266.375C109.141 266.143 109.499 265.971 109.913 265.859C110.334 265.74 110.769 265.68 111.218 265.68C112.033 265.68 112.661 265.877 113.103 266.27C113.552 266.656 113.777 267.256 113.777 268.07V271.365H112.534ZM110.766 271.439C110.345 271.439 109.976 271.369 109.66 271.228C109.344 271.081 109.099 270.881 108.923 270.628C108.755 270.369 108.671 270.077 108.671 269.754C108.671 269.439 108.744 269.154 108.892 268.902C109.046 268.649 109.295 268.449 109.639 268.302C109.983 268.154 110.439 268.08 111.008 268.08H112.64V268.954H111.103C110.653 268.954 110.352 269.028 110.197 269.175C110.043 269.316 109.966 269.491 109.966 269.702C109.966 269.94 110.06 270.13 110.25 270.27C110.439 270.411 110.703 270.481 111.039 270.481C111.362 270.481 111.65 270.407 111.903 270.26C112.162 270.112 112.348 269.895 112.461 269.607L112.682 270.397C112.556 270.727 112.327 270.983 111.998 271.165C111.675 271.348 111.264 271.439 110.766 271.439ZM115.466 271.365V265.743H116.782V271.365H115.466ZM116.129 264.817C115.883 264.817 115.68 264.74 115.518 264.585C115.364 264.431 115.287 264.245 115.287 264.027C115.287 263.803 115.364 263.617 115.518 263.469C115.68 263.315 115.883 263.238 116.129 263.238C116.375 263.238 116.575 263.311 116.729 263.459C116.89 263.599 116.971 263.778 116.971 263.996C116.971 264.227 116.894 264.424 116.74 264.585C116.585 264.74 116.382 264.817 116.129 264.817ZM121.699 265.68C122.148 265.68 122.548 265.768 122.899 265.943C123.257 266.119 123.538 266.389 123.741 266.754C123.945 267.112 124.047 267.575 124.047 268.144V271.365H122.731V268.312C122.731 267.814 122.611 267.442 122.373 267.196C122.141 266.95 121.815 266.828 121.394 266.828C121.085 266.828 120.811 266.891 120.572 267.017C120.334 267.144 120.148 267.333 120.014 267.586C119.888 267.831 119.825 268.144 119.825 268.523V271.365H118.509V265.743H119.762V267.259L119.541 266.796C119.737 266.438 120.021 266.164 120.393 265.975C120.772 265.778 121.208 265.68 121.699 265.68ZM132.812 265.68C133.261 265.68 133.658 265.768 134.002 265.943C134.353 266.119 134.626 266.389 134.823 266.754C135.019 267.112 135.118 267.575 135.118 268.144V271.365H133.802V268.312C133.802 267.814 133.693 267.442 133.475 267.196C133.258 266.95 132.945 266.828 132.538 266.828C132.25 266.828 131.994 266.891 131.77 267.017C131.552 267.144 131.38 267.33 131.254 267.575C131.135 267.821 131.075 268.133 131.075 268.512V271.365H129.759V268.312C129.759 267.814 129.65 267.442 129.432 267.196C129.215 266.95 128.903 266.828 128.495 266.828C128.208 266.828 127.952 266.891 127.727 267.017C127.509 267.144 127.337 267.33 127.211 267.575C127.092 267.821 127.032 268.133 127.032 268.512V271.365H125.716V265.743H126.969V267.238L126.748 266.796C126.937 266.431 127.211 266.154 127.569 265.964C127.934 265.775 128.348 265.68 128.811 265.68C129.338 265.68 129.794 265.81 130.18 266.07C130.573 266.329 130.833 266.722 130.959 267.249L130.443 267.07C130.626 266.649 130.927 266.312 131.349 266.059C131.77 265.806 132.257 265.68 132.812 265.68ZM139.452 271.439C138.827 271.439 138.28 271.316 137.81 271.07C137.346 270.818 136.985 270.474 136.725 270.039C136.473 269.604 136.346 269.109 136.346 268.554C136.346 267.993 136.469 267.498 136.715 267.07C136.967 266.635 137.311 266.294 137.747 266.049C138.189 265.803 138.691 265.68 139.252 265.68C139.8 265.68 140.287 265.799 140.715 266.038C141.144 266.277 141.48 266.614 141.726 267.049C141.972 267.484 142.095 267.996 142.095 268.586C142.095 268.642 142.091 268.705 142.084 268.775C142.084 268.846 142.081 268.912 142.074 268.975H137.389V268.102H141.379L140.863 268.375C140.87 268.052 140.803 267.768 140.663 267.523C140.522 267.277 140.329 267.084 140.084 266.943C139.845 266.803 139.568 266.733 139.252 266.733C138.929 266.733 138.645 266.803 138.399 266.943C138.161 267.084 137.971 267.28 137.831 267.533C137.697 267.779 137.631 268.07 137.631 268.407V268.617C137.631 268.954 137.708 269.253 137.862 269.512C138.017 269.772 138.234 269.972 138.515 270.112C138.796 270.253 139.119 270.323 139.484 270.323C139.8 270.323 140.084 270.274 140.336 270.176C140.589 270.077 140.814 269.923 141.01 269.712L141.716 270.523C141.463 270.818 141.144 271.046 140.758 271.207C140.379 271.362 139.943 271.439 139.452 271.439ZM146.549 265.68C146.998 265.68 147.398 265.768 147.749 265.943C148.107 266.119 148.388 266.389 148.591 266.754C148.795 267.112 148.896 267.575 148.896 268.144V271.365H147.58V268.312C147.58 267.814 147.461 267.442 147.222 267.196C146.991 266.95 146.665 266.828 146.243 266.828C145.935 266.828 145.661 266.891 145.422 267.017C145.184 267.144 144.998 267.333 144.864 267.586C144.738 267.831 144.675 268.144 144.675 268.523V271.365H143.359V265.743H144.612V267.259L144.39 266.796C144.587 266.438 144.871 266.164 145.243 265.975C145.622 265.778 146.057 265.68 146.549 265.68ZM152.682 271.439C152.064 271.439 151.587 271.281 151.25 270.965C150.913 270.642 150.745 270.169 150.745 269.544V264.501H152.061V269.512C152.061 269.779 152.128 269.986 152.261 270.133C152.401 270.281 152.594 270.355 152.84 270.355C153.135 270.355 153.38 270.277 153.577 270.123L153.945 271.06C153.791 271.186 153.601 271.281 153.377 271.344C153.152 271.407 152.921 271.439 152.682 271.439ZM149.818 266.838V265.785H153.566V266.838H149.818Z" fill="#E7E8EC"/>
<rect x="35.9199" y="296.817" width="31.584" height="31.584" rx="5.264" fill="#08234F"/>
<path d="M58.2928 315.729V307.787C58.2928 306.997 57.648 306.412 56.865 306.477H56.8255C55.4437 306.596 53.3447 307.3 52.1734 308.037L52.0616 308.109C51.8707 308.228 51.5549 308.228 51.3641 308.109L51.1996 308.011C50.0283 307.28 47.9359 306.583 46.5541 306.471C45.7711 306.405 45.1328 306.997 45.1328 307.78V315.729C45.1328 316.361 45.6461 316.953 46.2777 317.032L46.4686 317.058C47.8964 317.249 50.1007 317.973 51.3641 318.664L51.3904 318.677C51.5681 318.775 51.851 318.775 52.0221 318.677C53.2854 317.979 55.4963 317.249 56.9308 317.058L57.1479 317.032C57.7796 316.953 58.2928 316.361 58.2928 315.729Z" stroke="#E7E8EC" stroke-width="0.987" stroke-linecap="round" stroke-linejoin="round"/>
<path d="M51.7129 308.326V318.196" stroke="#E7E8EC" stroke-width="0.987" stroke-linecap="round" stroke-linejoin="round"/>
<path d="M48.916 310.301H47.4355" stroke="#E7E8EC" stroke-width="0.987" stroke-linecap="round" stroke-linejoin="round"/>
<path d="M49.4095 312.274H47.4355" stroke="#E7E8EC" stroke-width="0.987" stroke-linecap="round" stroke-linejoin="round"/>
<path d="M78.5163 316.215C77.9407 316.215 77.4108 316.123 76.9265 315.941C76.4493 315.751 76.0317 315.488 75.6737 315.151C75.3158 314.807 75.0385 314.404 74.842 313.941C74.6455 313.477 74.5472 312.972 74.5472 312.425C74.5472 311.877 74.6455 311.372 74.842 310.909C75.0385 310.445 75.3158 310.045 75.6737 309.708C76.0387 309.364 76.4633 309.101 76.9476 308.919C77.4319 308.729 77.9618 308.634 78.5373 308.634C79.162 308.634 79.7235 308.736 80.2218 308.94C80.7272 309.143 81.1518 309.442 81.4957 309.835L80.6324 310.677C80.3446 310.389 80.0323 310.179 79.6954 310.045C79.3655 309.905 79.0006 309.835 78.6005 309.835C78.2145 309.835 77.8565 309.898 77.5266 310.024C77.1968 310.151 76.9125 310.33 76.6739 310.561C76.4352 310.793 76.2492 311.066 76.1159 311.382C75.9896 311.698 75.9264 312.046 75.9264 312.425C75.9264 312.797 75.9896 313.14 76.1159 313.456C76.2492 313.772 76.4352 314.049 76.6739 314.288C76.9125 314.52 77.1933 314.699 77.5161 314.825C77.839 314.951 78.1969 315.014 78.59 315.014C78.9549 315.014 79.3059 314.958 79.6428 314.846C79.9867 314.727 80.3131 314.53 80.6219 314.256L81.4009 315.278C81.0149 315.586 80.5657 315.822 80.0534 315.983C79.548 316.137 79.0357 316.215 78.5163 316.215ZM80.106 315.099V312.34H81.4009V315.278L80.106 315.099ZM83.0797 316.109V310.487H84.3957V316.109H83.0797ZM83.743 309.561C83.4974 309.561 83.2938 309.484 83.1324 309.329C82.978 309.175 82.9008 308.989 82.9008 308.771C82.9008 308.547 82.978 308.361 83.1324 308.213C83.2938 308.059 83.4974 307.982 83.743 307.982C83.9887 307.982 84.1887 308.055 84.3431 308.203C84.5045 308.343 84.5853 308.522 84.5853 308.74C84.5853 308.971 84.508 309.168 84.3536 309.329C84.1992 309.484 83.9957 309.561 83.743 309.561ZM86.302 316.109V310.172C86.302 309.582 86.4739 309.112 86.8178 308.761C87.1688 308.403 87.6671 308.224 88.3128 308.224C88.5444 308.224 88.762 308.248 88.9656 308.298C89.1761 308.347 89.3516 308.424 89.492 308.529L89.134 309.519C89.0357 309.442 88.9234 309.385 88.7971 309.35C88.6708 309.308 88.5409 309.287 88.4076 309.287C88.1338 309.287 87.9268 309.364 87.7864 309.519C87.646 309.666 87.5759 309.891 87.5759 310.193V310.824L87.618 311.414V316.109H86.302ZM85.3755 311.582V310.53H89.1235V311.582H85.3755ZM92.1254 316.183C91.5078 316.183 91.0305 316.025 90.6936 315.709C90.3567 315.386 90.1883 314.913 90.1883 314.288V309.245H91.5043V314.256C91.5043 314.523 91.571 314.73 91.7043 314.878C91.8447 315.025 92.0377 315.099 92.2834 315.099C92.5781 315.099 92.8238 315.021 93.0203 314.867L93.3888 315.804C93.2344 315.93 93.0449 316.025 92.8203 316.088C92.5957 316.151 92.3641 316.183 92.1254 316.183ZM89.2618 311.582V310.53H93.0098V311.582H89.2618ZM96.2085 316.183C95.7382 316.183 95.2855 316.123 94.8504 316.004C94.4222 315.878 94.0818 315.727 93.8292 315.551L94.3345 314.551C94.5872 314.713 94.889 314.846 95.2399 314.951C95.5909 315.057 95.9418 315.109 96.2927 315.109C96.7068 315.109 97.0051 315.053 97.1876 314.941C97.3771 314.828 97.4719 314.678 97.4719 314.488C97.4719 314.334 97.4087 314.218 97.2824 314.141C97.156 314.056 96.9911 313.993 96.7875 313.951C96.584 313.909 96.3559 313.87 96.1032 313.835C95.8576 313.8 95.6084 313.755 95.3557 313.698C95.1101 313.635 94.8855 313.548 94.6819 313.435C94.4784 313.316 94.3135 313.158 94.1871 312.962C94.0608 312.765 93.9976 312.505 93.9976 312.182C93.9976 311.824 94.0994 311.516 94.3029 311.256C94.5065 310.989 94.7907 310.786 95.1557 310.645C95.5277 310.498 95.9664 310.424 96.4717 310.424C96.8507 310.424 97.2332 310.466 97.6192 310.551C98.0053 310.635 98.3246 310.754 98.5773 310.909L98.072 311.909C97.8052 311.747 97.535 311.638 97.2613 311.582C96.9946 311.519 96.7279 311.488 96.4612 311.488C96.0611 311.488 95.7628 311.547 95.5663 311.667C95.3768 311.786 95.282 311.937 95.282 312.119C95.282 312.288 95.3452 312.414 95.4715 312.498C95.5979 312.582 95.7628 312.649 95.9664 312.698C96.1699 312.747 96.3945 312.79 96.6401 312.825C96.8928 312.853 97.142 312.898 97.3876 312.962C97.6333 313.025 97.8579 313.112 98.0614 313.225C98.272 313.33 98.4404 313.481 98.5668 313.677C98.6931 313.874 98.7563 314.13 98.7563 314.446C98.7563 314.797 98.651 315.102 98.4404 315.362C98.2369 315.622 97.9456 315.825 97.5666 315.973C97.1876 316.113 96.7349 316.183 96.2085 316.183Z" fill="#E7E8EC"/>
</g>
</g>
<defs>
<filter id="filter0_d_8122_1094" x="-0.000144958" y="-0.000144958" width="286.348" height="356.754" filterUnits="userSpaceOnUse" color-interpolation-filters="sRGB">
<feFlood flood-opacity="0" result="BackgroundImageFix"/>
<feColorMatrix in="SourceAlpha" type="matrix" values="0 0 0 0 0 0 0 0 0 0 0 0 0 0 0 0 0 0 127 0" result="hardAlpha"/>
<feOffset/>
<feGaussianBlur stdDeviation="6.93855"/>
<feComposite in2="hardAlpha" operator="out"/>
<feColorMatrix type="matrix" values="0 0 0 0 0 0 0 0 0 0 0 0 0 0 0 0 0 0 0.08 0"/>
<feBlend mode="normal" in2="BackgroundImageFix" result="effect1_dropShadow_8122_1094"/>
<feBlend mode="normal" in="SourceGraphic" in2="effect1_dropShadow_8122_1094" result="shape"/>
</filter>
<clipPath id="clip0_8122_1094">
<rect width="235.564" height="302.68" fill="white" transform="translate(25.3916 27.0371)"/>
</clipPath>
</defs>
</svg>
