<svg width="121" height="26" viewBox="0 0 121 26" fill="none" xmlns="http://www.w3.org/2000/svg">
<path d="M40.7504 5.53501C39.5497 5.57884 36.5614 6.15878 33.7316 8.43806C31.9069 9.90813 30.8647 11.1826 30.2879 12.184V0.477428C30.2879 0.0694497 29.809 -0.149712 29.5021 0.116654L15.3935 12.2144V0.477428C15.3935 0.0694497 14.9146 -0.149712 14.6077 0.116654L0.16527 12.501C0.0607126 12.592 0 12.7235 0 12.8618V25.5226C0 25.9306 0.478941 26.1497 0.785868 25.8833L14.8944 13.7856V25.5226C14.8944 25.9306 15.3733 26.1497 15.6802 25.8833L29.7989 13.7755V25.1517C29.7989 25.4181 30.1665 25.4821 30.2609 25.236C31.0468 23.1725 32.6253 19.8985 35.6541 17.6058C37.58 16.1492 39.4654 15.8761 40.8212 15.549C40.9292 15.522 41 15.4243 41 15.3164V5.7744C41 5.63953 40.8921 5.52827 40.7572 5.53164L40.7504 5.53501Z" fill="#0B1A3E"/>
<path d="M64.3756 4.25H66.2353V21.7462H64.5495V10.1C64.5495 9.86739 64.573 8.97387 64.6231 7.42622C63.2618 11.1756 60.5259 17.582 58.3986 21.7091H56.8601C54.7429 17.663 52.0604 11.4117 50.5854 7.40261C50.6523 8.08709 50.6857 8.98398 50.6857 10.1034V21.7495H49V4.25337H50.8597C52.4785 8.2523 55.4519 15.1341 57.6528 19.9355C59.7432 15.0566 62.7668 8.2523 64.3723 4.25337L64.3756 4.25Z" fill="#0B1A3E"/>
<path d="M71.0449 21.7462V4.25H72.831V21.7462H71.0449Z" fill="#0B1A3E"/>
<path d="M87.6584 4.25C87.6584 5.14015 87.4744 6.02356 87.0965 6.82604C86.0897 8.95701 84.986 10.943 83.7919 12.784C82.3704 14.9756 80.5944 17.437 78.4605 20.1716H88.0798V21.7462H76.2764C76.2764 20.856 76.5774 19.9861 77.1159 19.2814C81.1998 13.9338 84.0929 9.44929 85.7954 5.82462H76.5473V4.25H87.6551H87.6584Z" fill="#0B1A3E"/>
<path d="M102.557 21.7462C102.096 20.1311 101.557 18.4149 100.945 16.5975H93.1085C92.4965 18.4149 91.958 20.1311 91.4964 21.7462H89.6602C91.8409 14.6317 93.9815 8.79853 96.082 4.25H97.9416C100.239 9.2335 102.387 15.0633 104.387 21.7462H102.551H102.557ZM97.0285 6.09774C95.9883 8.44787 94.8545 11.4218 93.6303 15.0228H100.423C99.1993 11.4218 98.0687 8.44787 97.0252 6.09774H97.0285Z" fill="#0B1A3E"/>
<path d="M109.104 21.7462H107.418V4.25H109.154C111.666 8.78168 114.88 13.7719 118.8 19.2207C118.75 18.57 118.726 17.781 118.726 16.847V4.25H120.412V21.7462H118.676C116.395 18.6644 114.525 16.0479 113.074 13.8967C111.619 11.7488 110.271 9.52347 109.033 7.22391C109.084 8.0736 109.107 9.00758 109.107 10.0225V21.7462H109.104Z" fill="#0B1A3E"/>
</svg>
