<svg width="41" height="26" viewBox="0 0 41 26" fill="none" xmlns="http://www.w3.org/2000/svg">
<path d="M40.7504 5.53501C39.5497 5.57884 36.5614 6.15878 33.7316 8.43806C31.9069 9.90813 30.8647 11.1826 30.2879 12.184V0.477428C30.2879 0.0694497 29.809 -0.149712 29.5021 0.116654L15.3935 12.2144V0.477428C15.3935 0.0694497 14.9146 -0.149712 14.6077 0.116654L0.16527 12.501C0.0607126 12.592 0 12.7235 0 12.8618V25.5226C0 25.9306 0.478941 26.1497 0.785868 25.8833L14.8944 13.7856V25.5226C14.8944 25.9306 15.3733 26.1497 15.6802 25.8833L29.7989 13.7755V25.1517C29.7989 25.4181 30.1665 25.4821 30.2609 25.236C31.0468 23.1725 32.6253 19.8985 35.6541 17.6058C37.58 16.1492 39.4654 15.8761 40.8212 15.549C40.9292 15.522 41 15.4243 41 15.3164V5.7744C41 5.63953 40.8921 5.52827 40.7572 5.53164L40.7504 5.53501Z" fill="#0B1A3E"/>
</svg>
